# Blender v2.78 (sub 0) OBJ File: 'LogCabin AssetPack_Assets.blend'
# www.blender.org
mtllib cabinStairs_Corner_Inside_1.mtl
o Plane.000_Plane.004
v -0.500000 0.000000 -0.500000
v -0.500000 0.125000 -0.500000
v -0.500000 0.125000 -0.375000
v -0.375000 0.125000 -0.375000
v -0.500000 0.250000 -0.375000
v -0.375000 0.250000 -0.375000
v -0.500000 0.250000 -0.250000
v -0.250000 0.250000 -0.250000
v -0.500000 0.375000 -0.250000
v -0.250000 0.375000 -0.250000
v -0.500000 0.375000 -0.125000
v -0.125000 0.375000 -0.125000
v -0.500000 0.500000 -0.125000
v -0.125000 0.500000 -0.125000
v -0.500000 0.500000 0.000000
v 0.000000 0.500000 0.000000
v -0.500000 0.625000 0.000000
v 0.000000 0.625000 0.000000
v -0.500000 0.625000 0.125000
v 0.125000 0.625000 0.125000
v -0.500000 0.750000 0.125000
v 0.125000 0.750000 0.125000
v -0.500000 0.750000 0.250000
v 0.250000 0.750000 0.250000
v -0.500000 0.875000 0.250000
v 0.250000 0.875000 0.250000
v -0.500000 0.875000 0.375000
v 0.375000 0.875000 0.375000
v -0.500000 1.000000 0.375000
v 0.375000 1.000000 0.375000
v -0.500000 1.000000 0.500000
v 0.500000 1.000000 0.500000
v -0.500000 0.000000 -0.400000
v -0.500000 0.900000 0.500000
v 0.500000 0.900000 0.500000
v -0.500000 0.112500 -0.287500
v -0.500000 0.225000 -0.175000
v -0.500000 0.337500 -0.062500
v -0.500000 0.450000 0.050000
v -0.500000 0.562500 0.162500
v -0.500000 0.675000 0.275000
v -0.500000 0.787500 0.387500
v -0.375000 0.125000 -0.500000
v -0.375000 0.250000 -0.500000
v -0.250000 0.250000 -0.500000
v -0.250000 0.250000 -0.250000
v -0.250000 0.375000 -0.500000
v -0.125000 0.375000 -0.500000
v -0.125000 0.500000 -0.500000
v 0.000000 0.500000 -0.500000
v 0.000000 0.625000 -0.500000
v 0.125000 0.625000 -0.500000
v 0.125000 0.750000 -0.500000
v 0.250000 0.750000 -0.500000
v 0.250000 0.875000 -0.500000
v 0.375000 0.875000 -0.500000
v 0.375000 1.000000 -0.500000
v 0.500000 1.000000 -0.500000
v -0.400000 0.000000 -0.500000
v 0.500000 0.900000 -0.500000
v -0.287500 0.112500 -0.500000
v -0.175000 0.225000 -0.500000
v -0.062500 0.337500 -0.500000
v 0.050000 0.450000 -0.500000
v 0.162500 0.562500 -0.500000
v 0.275000 0.675000 -0.500000
v 0.387500 0.787500 -0.500000
v -0.398933 0.000000 -0.398166
v -0.286180 0.112500 -0.285865
v -0.173427 0.225000 -0.173563
v -0.060674 0.337500 -0.061261
v 0.052079 0.450000 0.051041
v 0.164832 0.562500 0.163343
v 0.277586 0.675000 0.275645
v 0.390339 0.787500 0.387947
vn 0.0000 1.0000 0.0000
vn 0.0000 0.0000 -1.0000
vn -1.0000 0.0000 0.0000
vn 0.0000 0.0000 1.0000
vn 1.0000 0.0000 0.0000
vn 0.7085 -0.7057 -0.0044
vn 0.7080 -0.7062 -0.0034
vn 0.7078 -0.7064 -0.0029
vn 0.7076 -0.7066 -0.0027
vn 0.7076 -0.7067 -0.0025
vn 0.7075 -0.7067 -0.0024
vn 0.7074 -0.7068 -0.0023
vn -0.0004 -0.7063 0.7079
vn -0.0006 -0.7062 0.7080
vn -0.0009 -0.7060 0.7082
vn -0.0013 -0.7058 0.7084
vn -0.0020 -0.7055 0.7087
vn -0.0031 -0.7049 0.7093
vn -0.0054 -0.7037 0.7104
vn 0.7071 -0.7071 -0.0023
vn 0.0000 -0.7057 0.7085
vn 0.0000 -1.0000 0.0000
vn 0.7071 -0.7071 -0.0074
vn 0.7071 -0.7071 -0.0044
vn 0.7071 -0.7071 -0.0034
vn 0.7071 -0.7071 -0.0029
vn 0.7071 -0.7071 -0.0027
vn 0.7071 -0.7071 -0.0025
vn 0.7071 -0.7071 -0.0024
vn -0.0006 -0.7071 0.7071
vn -0.0009 -0.7071 0.7071
vn -0.0013 -0.7071 0.7071
vn -0.0020 -0.7071 0.7071
vn -0.0031 -0.7071 0.7071
vn -0.0054 -0.7071 0.7071
vn -0.0128 -0.7070 0.7070
vn 0.7161 -0.6980 0.0000
vn -0.0004 -0.7071 0.7071
usemtl Wood1.002
s off
f 2//1 3//1 4//1
f 5//2 4//2 3//2
f 7//1 6//1 5//1
f 9//2 8//2 7//2
f 11//1 10//1 9//1
f 13//2 12//2 11//2
f 15//1 14//1 13//1
f 17//2 16//2 15//2
f 19//1 18//1 17//1
f 21//2 20//2 19//2
f 23//1 22//1 21//1
f 25//2 24//2 23//2
f 27//1 26//1 25//1
f 29//2 28//2 27//2
f 31//1 30//1 29//1
f 29//3 27//3 31//3
f 25//3 23//3 27//3
f 21//3 19//3 23//3
f 17//3 15//3 19//3
f 13//3 11//3 15//3
f 9//3 7//3 11//3
f 5//3 3//3 7//3
f 2//3 1//3 3//3
f 31//4 35//4 32//4
f 31//3 27//3 34//3
f 1//3 33//3 3//3
f 33//3 36//3 3//3
f 7//3 36//3 37//3
f 11//3 37//3 38//3
f 15//3 38//3 39//3
f 15//3 40//3 19//3
f 19//3 41//3 23//3
f 23//3 42//3 27//3
f 42//3 34//3 27//3
f 2//1 4//1 43//1
f 4//3 44//3 43//3
f 6//1 45//1 44//1
f 46//3 47//3 45//3
f 10//1 48//1 47//1
f 12//3 49//3 48//3
f 14//1 50//1 49//1
f 16//3 51//3 50//3
f 18//1 52//1 51//1
f 20//3 53//3 52//3
f 22//1 54//1 53//1
f 24//3 55//3 54//3
f 26//1 56//1 55//1
f 28//3 57//3 56//3
f 30//1 58//1 57//1
f 57//2 58//2 56//2
f 55//2 56//2 54//2
f 53//2 54//2 52//2
f 51//2 52//2 50//2
f 49//2 50//2 48//2
f 47//2 48//2 45//2
f 44//2 45//2 43//2
f 2//2 43//2 1//2
f 35//5 58//5 32//5
f 58//2 60//2 56//2
f 1//2 43//2 59//2
f 59//2 43//2 61//2
f 45//2 61//2 43//2
f 48//2 62//2 45//2
f 50//2 63//2 48//2
f 65//2 50//2 52//2
f 66//2 52//2 54//2
f 67//2 54//2 56//2
f 67//2 56//2 60//2
f 68//6 61//6 69//6
f 69//7 62//7 70//7
f 70//8 63//8 71//8
f 71//9 64//9 72//9
f 72//10 65//10 73//10
f 73//11 66//11 74//11
f 74//12 67//12 75//12
f 42//13 74//13 75//13
f 41//14 73//14 74//14
f 40//15 72//15 73//15
f 39//16 71//16 72//16
f 38//17 70//17 71//17
f 37//18 69//18 70//18
f 36//19 68//19 69//19
f 60//20 75//20 67//20
f 34//21 75//21 35//21
f 59//22 33//22 1//22
f 5//2 6//2 4//2
f 7//1 8//1 6//1
f 9//2 10//2 8//2
f 11//1 12//1 10//1
f 13//2 14//2 12//2
f 15//1 16//1 14//1
f 17//2 18//2 16//2
f 19//1 20//1 18//1
f 21//2 22//2 20//2
f 23//1 24//1 22//1
f 25//2 26//2 24//2
f 27//1 28//1 26//1
f 29//2 30//2 28//2
f 31//1 32//1 30//1
f 31//4 34//4 35//4
f 7//3 3//3 36//3
f 11//3 7//3 37//3
f 15//3 11//3 38//3
f 15//3 39//3 40//3
f 19//3 40//3 41//3
f 23//3 41//3 42//3
f 4//3 6//3 44//3
f 6//1 46//1 45//1
f 46//3 10//3 47//3
f 10//1 12//1 48//1
f 12//3 14//3 49//3
f 14//1 16//1 50//1
f 16//3 18//3 51//3
f 18//1 20//1 52//1
f 20//3 22//3 53//3
f 22//1 24//1 54//1
f 24//3 26//3 55//3
f 26//1 28//1 56//1
f 28//3 30//3 57//3
f 30//1 32//1 58//1
f 35//5 60//5 58//5
f 45//2 62//2 61//2
f 48//2 63//2 62//2
f 50//2 64//2 63//2
f 65//2 64//2 50//2
f 66//2 65//2 52//2
f 67//2 66//2 54//2
f 68//23 59//23 61//23
f 69//24 61//24 62//24
f 70//25 62//25 63//25
f 71//26 63//26 64//26
f 72//27 64//27 65//27
f 73//28 65//28 66//28
f 74//29 66//29 67//29
f 42//30 41//30 74//30
f 41//31 40//31 73//31
f 40//32 39//32 72//32
f 39//33 38//33 71//33
f 38//34 37//34 70//34
f 37//35 36//35 69//35
f 36//36 33//36 68//36
f 60//37 35//37 75//37
f 34//38 42//38 75//38
f 59//22 68//22 33//22
