# Blender v2.78 (sub 0) OBJ File: 'LogCabin AssetPack_Assets.blend'
# www.blender.org
mtllib cabinStairs_1.mtl
o Plane.001_Plane.003
v -0.500000 0.000000 -0.500000
v 0.500000 0.000000 -0.500000
v -0.500000 0.125000 -0.500000
v 0.500000 0.125000 -0.500000
v -0.500000 0.125000 -0.375000
v 0.500000 0.125000 -0.375000
v -0.500000 0.250000 -0.375000
v 0.500000 0.250000 -0.375000
v -0.500000 0.250000 -0.250000
v 0.500000 0.250000 -0.250000
v -0.500000 0.375000 -0.250000
v 0.500000 0.375000 -0.250000
v -0.500000 0.375000 -0.125000
v 0.500000 0.375000 -0.125000
v -0.500000 0.500000 -0.125000
v 0.500000 0.500000 -0.125000
v -0.500000 0.500000 0.000000
v 0.500000 0.500000 0.000000
v -0.500000 0.625000 0.000000
v 0.500000 0.625000 0.000000
v -0.500000 0.625000 0.125000
v 0.500000 0.625000 0.125000
v -0.500000 0.750000 0.125000
v 0.500000 0.750000 0.125000
v -0.500000 0.750000 0.250000
v 0.500000 0.750000 0.250000
v -0.500000 0.875000 0.250000
v 0.500000 0.875000 0.250000
v -0.500000 0.875000 0.375000
v 0.500000 0.875000 0.375000
v -0.500000 1.000000 0.375000
v 0.500000 1.000000 0.375000
v -0.500000 1.000000 0.500000
v 0.500000 1.000000 0.500000
v -0.500000 0.000000 -0.400000
v 0.500000 0.000000 -0.400000
v -0.500000 0.900000 0.500000
v 0.500000 0.900000 0.500000
v 0.500000 0.112500 -0.287500
v 0.500000 0.225000 -0.175000
v 0.500000 0.337500 -0.062500
v 0.500000 0.450000 0.050000
v 0.500000 0.562500 0.162500
v 0.500000 0.675000 0.275000
v 0.500000 0.787500 0.387500
v -0.500000 0.112500 -0.287500
v -0.500000 0.225000 -0.175000
v -0.500000 0.337500 -0.062500
v -0.500000 0.450000 0.050000
v -0.500000 0.562500 0.162500
v -0.500000 0.675000 0.275000
v -0.500000 0.787500 0.387500
vn 0.0000 0.0000 -1.0000
vn 0.0000 1.0000 0.0000
vn 1.0000 0.0000 0.0000
vn -1.0000 0.0000 0.0000
vn 0.0000 -1.0000 0.0000
vn 0.0000 0.0000 1.0000
vn 0.0000 -0.7071 0.7071
usemtl Wood1.002
s off
f 3//1 2//1 1//1
f 5//2 4//2 3//2
f 7//1 6//1 5//1
f 9//2 8//2 7//2
f 11//1 10//1 9//1
f 13//2 12//2 11//2
f 15//1 14//1 13//1
f 17//2 16//2 15//2
f 19//1 18//1 17//1
f 21//2 20//2 19//2
f 23//1 22//1 21//1
f 25//2 24//2 23//2
f 27//1 26//1 25//1
f 29//2 28//2 27//2
f 31//1 30//1 29//1
f 33//2 32//2 31//2
f 32//3 34//3 30//3
f 28//3 30//3 26//3
f 24//3 26//3 22//3
f 20//3 22//3 18//3
f 16//3 18//3 14//3
f 12//3 14//3 10//3
f 8//3 10//3 6//3
f 4//3 6//3 2//3
f 31//4 29//4 33//4
f 27//4 25//4 29//4
f 23//4 21//4 25//4
f 19//4 17//4 21//4
f 15//4 13//4 17//4
f 11//4 9//4 13//4
f 7//4 5//4 9//4
f 3//4 1//4 5//4
f 2//5 35//5 1//5
f 33//6 38//6 34//6
f 45//7 37//7 52//7
f 33//4 29//4 37//4
f 1//4 35//4 5//4
f 36//7 46//7 35//7
f 39//7 47//7 46//7
f 40//7 48//7 47//7
f 41//7 49//7 48//7
f 42//7 50//7 49//7
f 43//7 51//7 50//7
f 44//7 52//7 51//7
f 35//4 46//4 5//4
f 9//4 46//4 47//4
f 13//4 47//4 48//4
f 17//4 48//4 49//4
f 17//4 50//4 21//4
f 21//4 51//4 25//4
f 25//4 52//4 29//4
f 52//4 37//4 29//4
f 6//3 36//3 2//3
f 36//3 6//3 39//3
f 34//3 38//3 30//3
f 38//3 45//3 30//3
f 45//3 26//3 30//3
f 44//3 22//3 26//3
f 43//3 18//3 22//3
f 18//3 41//3 14//3
f 14//3 40//3 10//3
f 10//3 39//3 6//3
f 3//1 4//1 2//1
f 5//2 6//2 4//2
f 7//1 8//1 6//1
f 9//2 10//2 8//2
f 11//1 12//1 10//1
f 13//2 14//2 12//2
f 15//1 16//1 14//1
f 17//2 18//2 16//2
f 19//1 20//1 18//1
f 21//2 22//2 20//2
f 23//1 24//1 22//1
f 25//2 26//2 24//2
f 27//1 28//1 26//1
f 29//2 30//2 28//2
f 31//1 32//1 30//1
f 33//2 34//2 32//2
f 2//5 36//5 35//5
f 33//6 37//6 38//6
f 45//7 38//7 37//7
f 36//7 39//7 46//7
f 39//7 40//7 47//7
f 40//7 41//7 48//7
f 41//7 42//7 49//7
f 42//7 43//7 50//7
f 43//7 44//7 51//7
f 44//7 45//7 52//7
f 9//4 5//4 46//4
f 13//4 9//4 47//4
f 17//4 13//4 48//4
f 17//4 49//4 50//4
f 21//4 50//4 51//4
f 25//4 51//4 52//4
f 45//3 44//3 26//3
f 44//3 43//3 22//3
f 43//3 42//3 18//3
f 18//3 42//3 41//3
f 14//3 41//3 40//3
f 10//3 40//3 39//3
