# Blender v2.78 (sub 0) OBJ File: 'LogCabin AssetPack_Assets.blend'
# www.blender.org
mtllib cabinDoor_Door_Closed_1.mtl
o Cube.017_Cube.008
v -0.173389 0.000000 -0.540124
v -0.173389 0.775305 -0.540124
v 0.173389 0.000000 -0.540124
v 0.173389 0.775305 -0.540124
v -0.173389 0.000000 -0.520200
v -0.173389 0.775305 -0.520200
v 0.173389 0.775305 -0.520200
v 0.173389 0.000000 -0.520200
v -0.173389 0.387653 -0.540124
v 0.173389 0.387653 -0.540124
v -0.173389 0.387653 -0.520200
v 0.173389 0.387653 -0.520200
v -0.173389 0.465183 -0.540124
v -0.173389 0.542714 -0.540124
v -0.173389 0.620244 -0.540124
v -0.173389 0.697775 -0.540124
v 0.173389 0.697775 -0.540124
v 0.173389 0.620244 -0.540124
v 0.173389 0.542714 -0.540124
v 0.173389 0.465183 -0.540124
v -0.173389 0.697775 -0.520200
v -0.173389 0.620244 -0.520200
v -0.173389 0.542714 -0.520200
v -0.173389 0.465183 -0.520200
v 0.173389 0.697775 -0.520200
v 0.173389 0.620244 -0.520200
v 0.173389 0.542714 -0.520200
v 0.173389 0.465183 -0.520200
v 0.173389 0.310122 -0.540124
v 0.173389 0.232592 -0.540124
v 0.173389 0.155061 -0.540124
v 0.173389 0.077531 -0.540124
v -0.173389 0.310122 -0.520200
v -0.173389 0.232592 -0.520200
v -0.173389 0.155061 -0.520200
v -0.173389 0.077531 -0.520200
v 0.173389 0.310122 -0.520200
v 0.173389 0.232592 -0.520200
v 0.173389 0.155061 -0.520200
v 0.173389 0.077531 -0.520200
v -0.173389 0.077531 -0.540124
v -0.173389 0.155061 -0.540124
v -0.173389 0.232592 -0.540124
v -0.173389 0.310122 -0.540124
v -0.156490 0.765305 -0.550000
v 0.156490 0.765305 -0.550000
v -0.166490 0.775305 -0.520200
v 0.166490 0.775305 -0.520200
v -0.166490 0.000000 -0.540124
v 0.166490 0.000000 -0.540124
v -0.140379 0.026111 -0.516822
v 0.140379 0.026111 -0.516822
v -0.156490 0.377653 -0.550000
v 0.156490 0.377653 -0.550000
v 0.148906 0.405236 -0.524363
v -0.148906 0.405236 -0.524363
v -0.156490 0.465183 -0.540124
v 0.156490 0.465183 -0.540124
v -0.156490 0.542714 -0.540124
v 0.156490 0.542714 -0.540124
v -0.156490 0.620244 -0.540124
v 0.156490 0.620244 -0.540124
v -0.156490 0.707775 -0.550000
v 0.156490 0.707775 -0.550000
v 0.156490 0.465183 -0.520200
v -0.156490 0.465183 -0.520200
v 0.156490 0.542714 -0.520200
v -0.156490 0.542714 -0.520200
v 0.156490 0.620244 -0.520200
v -0.156490 0.620244 -0.520200
v 0.148906 0.680191 -0.524363
v -0.148906 0.680191 -0.524363
v 0.150379 0.077531 -0.520200
v -0.150379 0.077531 -0.520200
v 0.150379 0.155061 -0.520200
v -0.150379 0.155061 -0.520200
v 0.150379 0.232592 -0.520200
v -0.150379 0.232592 -0.520200
v 0.150379 0.310122 -0.520200
v -0.150379 0.310122 -0.520200
v -0.156490 0.087531 -0.550000
v 0.156490 0.087531 -0.550000
v -0.156490 0.145061 -0.550000
v 0.156490 0.145061 -0.550000
v -0.166490 0.232592 -0.540124
v 0.166490 0.232592 -0.540124
v -0.156490 0.320122 -0.550000
v 0.156490 0.320122 -0.550000
v -0.166490 0.775305 -0.540124
v 0.166490 0.775305 -0.540124
v -0.148906 0.405236 -0.535961
v 0.148906 0.405236 -0.535961
v -0.148906 0.680191 -0.535961
v 0.148906 0.680191 -0.535961
v -0.166490 0.077531 -0.540124
v 0.166490 0.077531 -0.540124
v -0.166490 0.155061 -0.540124
v 0.166490 0.155061 -0.540124
v -0.166490 0.310122 -0.540124
v 0.166490 0.310122 -0.540124
v -0.166490 0.387653 -0.540124
v 0.166490 0.387653 -0.540124
v 0.140379 0.361542 -0.516822
v -0.140379 0.361542 -0.516822
v -0.166490 0.697775 -0.540124
v 0.166490 0.697775 -0.540124
v 0.166490 0.697775 -0.520200
v -0.166490 0.697775 -0.520200
v -0.166490 0.620244 -0.520200
v 0.166490 0.620244 -0.520200
v -0.166490 0.542714 -0.520200
v 0.166490 0.542714 -0.520200
v -0.166490 0.465183 -0.520200
v 0.166490 0.465183 -0.520200
v -0.166490 0.620244 -0.540124
v 0.166490 0.620244 -0.540124
v -0.166490 0.542714 -0.540124
v 0.166490 0.542714 -0.540124
v -0.166490 0.465183 -0.540124
v 0.166490 0.465183 -0.540124
v -0.156490 0.397653 -0.540124
v 0.156490 0.397653 -0.540124
v 0.156490 0.397653 -0.520200
v -0.156490 0.397653 -0.520200
v -0.156490 0.687775 -0.540124
v 0.156490 0.687775 -0.540124
v 0.156490 0.687775 -0.520200
v -0.156490 0.687775 -0.520200
v -0.148906 0.620244 -0.524363
v 0.148906 0.620244 -0.524363
v -0.148906 0.542714 -0.524363
v 0.148906 0.542714 -0.524363
v -0.148906 0.465183 -0.524363
v 0.148906 0.465183 -0.524363
v -0.148906 0.620244 -0.535961
v 0.148906 0.620244 -0.535961
v -0.148906 0.542714 -0.535961
v 0.148906 0.542714 -0.535961
v -0.148906 0.465183 -0.535961
v 0.148906 0.465183 -0.535961
v 0.010232 0.402261 -0.534335
v 0.011948 0.402261 -0.532618
v 0.011948 0.685350 -0.532618
v 0.010232 0.685350 -0.534335
v 0.010232 0.685350 -0.525985
v 0.011948 0.685350 -0.527702
v 0.011948 0.402261 -0.527702
v 0.010232 0.402261 -0.525985
v -0.010232 0.685350 -0.534335
v -0.011948 0.685350 -0.532618
v -0.011948 0.402261 -0.532618
v -0.010232 0.402261 -0.534335
v -0.011948 0.685350 -0.527702
v -0.010232 0.685350 -0.525985
v -0.010232 0.402261 -0.525985
v -0.011948 0.402261 -0.527702
v 0.177132 0.750713 -0.548866
v -0.101848 0.738976 -0.548866
v -0.101848 0.733748 -0.548866
v 0.177132 0.722011 -0.548866
v 0.177132 0.750713 -0.551737
v -0.101848 0.738976 -0.551737
v -0.101848 0.733748 -0.551737
v 0.177132 0.722011 -0.551737
v 0.107387 0.750713 -0.548866
v 0.037642 0.748299 -0.548866
v -0.032103 0.744989 -0.548866
v -0.032103 0.727735 -0.548866
v 0.037642 0.724425 -0.548866
v 0.107387 0.722011 -0.548866
v 0.107387 0.750713 -0.551737
v 0.037642 0.748299 -0.551737
v -0.032103 0.744989 -0.551737
v -0.032103 0.727735 -0.551737
v 0.037642 0.724425 -0.551737
v 0.107387 0.722011 -0.551737
v 0.177132 0.363353 -0.548866
v -0.101848 0.351617 -0.548866
v -0.101848 0.346388 -0.548866
v 0.177132 0.334651 -0.548866
v 0.177132 0.363353 -0.551737
v -0.101848 0.351617 -0.551737
v -0.101848 0.346388 -0.551737
v 0.177132 0.334651 -0.551737
v 0.107387 0.363353 -0.548866
v 0.037642 0.360939 -0.548866
v -0.032103 0.357629 -0.548866
v -0.032103 0.340375 -0.548866
v 0.037642 0.337065 -0.548866
v 0.107387 0.334651 -0.548866
v 0.107387 0.363353 -0.551737
v 0.037642 0.360939 -0.551737
v -0.032103 0.357629 -0.551737
v -0.032103 0.340375 -0.551737
v 0.037642 0.337065 -0.551737
v 0.107387 0.334651 -0.551737
v 0.177132 0.129769 -0.548866
v -0.101848 0.118033 -0.548866
v -0.101848 0.112804 -0.548866
v 0.177132 0.101067 -0.548866
v 0.177132 0.129769 -0.551737
v -0.101848 0.118033 -0.551737
v -0.101848 0.112804 -0.551737
v 0.177132 0.101067 -0.551737
v 0.107387 0.129769 -0.548866
v 0.037642 0.127355 -0.548866
v -0.032103 0.124045 -0.548866
v -0.032103 0.106791 -0.548866
v 0.037642 0.103482 -0.548866
v 0.107387 0.101067 -0.548866
v 0.107387 0.129769 -0.551737
v 0.037642 0.127355 -0.551737
v -0.032103 0.124045 -0.551737
v -0.032103 0.106791 -0.551737
v 0.037642 0.103482 -0.551737
v 0.107387 0.101067 -0.551737
v 0.175741 0.097438 -0.556347
v 0.175741 0.133487 -0.556347
v 0.179195 0.097438 -0.553837
v 0.179195 0.133487 -0.553837
v 0.177876 0.097438 -0.549778
v 0.177876 0.133487 -0.549778
v 0.173607 0.097438 -0.549778
v 0.173607 0.133487 -0.549778
v 0.172288 0.097438 -0.553837
v 0.172288 0.133487 -0.553837
v 0.175741 0.331293 -0.556347
v 0.175741 0.367341 -0.556347
v 0.179195 0.331293 -0.553837
v 0.179195 0.367341 -0.553837
v 0.177876 0.331293 -0.549778
v 0.177876 0.367341 -0.549778
v 0.173607 0.331293 -0.549778
v 0.173607 0.367341 -0.549778
v 0.172288 0.331293 -0.553837
v 0.172288 0.367341 -0.553837
v 0.175741 0.718572 -0.556347
v 0.175741 0.754620 -0.556347
v 0.179195 0.718572 -0.553837
v 0.179195 0.754620 -0.553837
v 0.177876 0.718572 -0.549778
v 0.177876 0.754620 -0.549778
v 0.173607 0.718572 -0.549778
v 0.173607 0.754620 -0.549778
v 0.172288 0.718572 -0.553837
v 0.172288 0.754620 -0.553837
v -0.166490 0.000000 -0.520200
v 0.166490 0.000000 -0.520200
v 0.166490 0.387653 -0.520200
v -0.166490 0.387653 -0.520200
v -0.166490 0.232592 -0.520200
v -0.166490 0.310122 -0.520200
v 0.166490 0.232592 -0.520200
v 0.166490 0.310122 -0.520200
v -0.166490 0.155061 -0.520200
v 0.166490 0.155061 -0.520200
v -0.166490 0.077531 -0.520200
v 0.166490 0.077531 -0.520200
v -0.150379 0.016111 -0.520200
v 0.150379 0.016111 -0.520200
v 0.150379 0.371542 -0.520200
v -0.150379 0.371542 -0.520200
v -0.140379 0.232592 -0.516822
v -0.140379 0.310122 -0.516822
v 0.140379 0.232592 -0.516822
v 0.140379 0.310122 -0.516822
v -0.140379 0.155061 -0.516822
v 0.140379 0.155061 -0.516822
v -0.140379 0.077531 -0.516822
v 0.140379 0.077531 -0.516822
vn 1.0000 0.0000 0.0000
vn 0.0000 1.0000 0.0000
vn -1.0000 0.0000 0.0000
vn 0.0000 -1.0000 0.0000
vn 0.0000 0.0000 1.0000
vn 0.0000 0.0000 -1.0000
vn 0.0000 -0.3201 0.9474
vn 0.0000 0.3201 0.9474
vn -0.3201 0.0000 0.9474
vn 0.3201 0.0000 0.9474
vn 0.0000 0.4812 -0.8766
vn 0.0000 0.4812 0.8766
vn 0.0000 -0.4812 -0.8766
vn 0.0000 -0.4812 0.8766
vn 0.4812 0.0000 0.8766
vn -0.4812 0.0000 0.8766
vn 0.4812 0.0000 -0.8766
vn -0.4812 0.0000 -0.8766
vn 0.0000 0.7027 -0.7115
vn 0.0000 -0.7027 -0.7115
vn -0.7027 0.0000 -0.7115
vn 0.7027 0.0000 -0.7115
vn 0.7071 0.0000 -0.7071
vn 0.7071 0.0000 0.7071
vn -0.7071 0.0000 0.7071
vn -0.7071 0.0000 -0.7071
vn -0.0859 -0.9963 0.0000
vn -0.0346 -0.9994 0.0000
vn -0.0474 -0.9989 0.0000
vn -0.0859 0.9963 0.0000
vn -0.0474 0.9989 0.0000
vn -0.0346 0.9994 0.0000
vn 0.5878 0.0000 -0.8090
vn 0.9511 0.0000 0.3090
vn -0.9511 0.0000 0.3090
vn -0.5878 0.0000 -0.8090
usemtl Wood1.002
s off
f 17//1 7//1 25//1
f 89//2 6//2 47//2
f 21//3 2//3 16//3
f 50//4 8//4 248//4
f 25//5 48//5 107//5
f 90//6 17//6 106//6
f 102//6 29//6 100//6
f 37//5 249//5 254//5
f 33//3 9//3 44//3
f 29//1 12//1 37//1
f 120//6 10//6 102//6
f 118//6 20//6 120//6
f 116//6 19//6 118//6
f 106//6 18//6 116//6
f 12//5 114//5 249//5
f 28//5 112//5 114//5
f 27//5 110//5 112//5
f 26//5 107//5 110//5
f 11//3 13//3 9//3
f 24//3 14//3 13//3
f 23//3 15//3 14//3
f 22//3 16//3 15//3
f 10//1 28//1 12//1
f 20//1 27//1 28//1
f 19//1 26//1 27//1
f 18//1 25//1 26//1
f 3//1 40//1 8//1
f 32//1 39//1 40//1
f 31//1 38//1 39//1
f 30//1 37//1 38//1
f 5//3 41//3 1//3
f 36//3 42//3 41//3
f 35//3 43//3 42//3
f 34//3 44//3 43//3
f 8//5 258//5 248//5
f 40//5 256//5 258//5
f 39//5 253//5 256//5
f 38//5 254//5 253//5
f 96//6 3//6 50//6
f 98//6 32//6 96//6
f 86//6 31//6 98//6
f 100//6 30//6 86//6
f 44//6 85//6 43//6
f 99//6 86//6 85//6
f 43//6 97//6 42//6
f 85//6 98//6 97//6
f 41//6 97//6 95//6
f 1//6 95//6 49//6
f 95//6 50//6 49//6
f 251//5 33//5 34//5
f 265//5 264//5 263//5
f 255//5 34//5 35//5
f 268//5 263//5 267//5
f 36//5 255//5 35//5
f 270//5 267//5 269//5
f 5//5 257//5 36//5
f 52//5 269//5 51//5
f 109//5 21//5 22//5
f 111//5 22//5 23//5
f 113//5 23//5 24//5
f 250//5 24//5 11//5
f 16//6 115//6 15//6
f 15//6 117//6 14//6
f 14//6 119//6 13//6
f 13//6 101//6 9//6
f 252//5 11//5 33//5
f 266//5 104//5 264//5
f 9//6 99//6 44//6
f 2//6 105//6 16//6
f 108//5 6//5 21//5
f 107//5 47//5 108//5
f 1//4 247//4 5//4
f 49//4 248//4 247//4
f 4//2 48//2 7//2
f 90//2 47//2 48//2
f 122//6 101//6 121//6
f 124//5 249//5 123//5
f 125//6 106//6 126//6
f 127//5 108//5 128//5
f 128//5 109//5 70//5
f 127//5 110//5 107//5
f 70//5 111//5 68//5
f 67//5 110//5 69//5
f 68//5 113//5 66//5
f 65//5 112//5 67//5
f 124//5 113//5 250//5
f 123//5 114//5 65//5
f 125//6 115//6 105//6
f 126//6 116//6 62//6
f 59//6 115//6 61//6
f 62//6 118//6 60//6
f 57//6 117//6 59//6
f 60//6 120//6 58//6
f 121//6 119//6 57//6
f 122//6 120//6 102//6
f 260//5 247//5 248//5
f 261//5 250//5 262//5
f 80//5 251//5 78//5
f 77//5 254//5 79//5
f 78//5 255//5 76//5
f 75//5 253//5 77//5
f 76//5 257//5 74//5
f 73//5 256//5 75//5
f 259//5 257//5 247//5
f 260//5 258//5 73//5
f 262//5 252//5 80//5
f 261//5 254//5 249//5
f 51//7 260//7 52//7
f 103//8 262//8 104//8
f 264//9 78//9 263//9
f 265//10 79//10 266//10
f 263//9 76//9 267//9
f 268//10 77//10 265//10
f 267//9 74//9 269//9
f 270//10 75//10 268//10
f 51//9 74//9 259//9
f 52//10 73//10 270//10
f 104//9 80//9 264//9
f 103//10 79//10 261//10
f 17//1 4//1 7//1
f 89//2 2//2 6//2
f 21//3 6//3 2//3
f 50//4 3//4 8//4
f 25//5 7//5 48//5
f 90//6 4//6 17//6
f 102//6 10//6 29//6
f 37//5 12//5 249//5
f 33//3 11//3 9//3
f 29//1 10//1 12//1
f 120//6 20//6 10//6
f 118//6 19//6 20//6
f 116//6 18//6 19//6
f 106//6 17//6 18//6
f 12//5 28//5 114//5
f 28//5 27//5 112//5
f 27//5 26//5 110//5
f 26//5 25//5 107//5
f 11//3 24//3 13//3
f 24//3 23//3 14//3
f 23//3 22//3 15//3
f 22//3 21//3 16//3
f 10//1 20//1 28//1
f 20//1 19//1 27//1
f 19//1 18//1 26//1
f 18//1 17//1 25//1
f 3//1 32//1 40//1
f 32//1 31//1 39//1
f 31//1 30//1 38//1
f 30//1 29//1 37//1
f 5//3 36//3 41//3
f 36//3 35//3 42//3
f 35//3 34//3 43//3
f 34//3 33//3 44//3
f 8//5 40//5 258//5
f 40//5 39//5 256//5
f 39//5 38//5 253//5
f 38//5 37//5 254//5
f 96//6 32//6 3//6
f 98//6 31//6 32//6
f 86//6 30//6 31//6
f 100//6 29//6 30//6
f 44//6 99//6 85//6
f 99//6 100//6 86//6
f 43//6 85//6 97//6
f 85//6 86//6 98//6
f 41//6 42//6 97//6
f 1//6 41//6 95//6
f 95//6 96//6 50//6
f 251//5 252//5 33//5
f 265//5 266//5 264//5
f 255//5 251//5 34//5
f 268//5 265//5 263//5
f 36//5 257//5 255//5
f 270//5 268//5 267//5
f 5//5 247//5 257//5
f 52//5 270//5 269//5
f 109//5 108//5 21//5
f 111//5 109//5 22//5
f 113//5 111//5 23//5
f 250//5 113//5 24//5
f 16//6 105//6 115//6
f 15//6 115//6 117//6
f 14//6 117//6 119//6
f 13//6 119//6 101//6
f 252//5 250//5 11//5
f 266//5 103//5 104//5
f 9//6 101//6 99//6
f 2//6 89//6 105//6
f 108//5 47//5 6//5
f 107//5 48//5 47//5
f 1//4 49//4 247//4
f 49//4 50//4 248//4
f 4//2 90//2 48//2
f 90//2 89//2 47//2
f 122//6 102//6 101//6
f 124//5 250//5 249//5
f 125//6 105//6 106//6
f 127//5 107//5 108//5
f 128//5 108//5 109//5
f 127//5 69//5 110//5
f 70//5 109//5 111//5
f 67//5 112//5 110//5
f 68//5 111//5 113//5
f 65//5 114//5 112//5
f 124//5 66//5 113//5
f 123//5 249//5 114//5
f 125//6 61//6 115//6
f 126//6 106//6 116//6
f 59//6 117//6 115//6
f 62//6 116//6 118//6
f 57//6 119//6 117//6
f 60//6 118//6 120//6
f 121//6 101//6 119//6
f 122//6 58//6 120//6
f 260//5 259//5 247//5
f 261//5 249//5 250//5
f 80//5 252//5 251//5
f 77//5 253//5 254//5
f 78//5 251//5 255//5
f 75//5 256//5 253//5
f 76//5 255//5 257//5
f 73//5 258//5 256//5
f 259//5 74//5 257//5
f 260//5 248//5 258//5
f 262//5 250//5 252//5
f 261//5 79//5 254//5
f 51//7 259//7 260//7
f 103//8 261//8 262//8
f 264//9 80//9 78//9
f 265//10 77//10 79//10
f 263//9 78//9 76//9
f 268//10 75//10 77//10
f 267//9 76//9 74//9
f 270//10 73//10 75//10
f 51//9 269//9 74//9
f 52//10 260//10 73//10
f 104//9 262//9 80//9
f 103//10 266//10 79//10
usemtl Wood1.003
f 56//1 139//1 133//1
f 92//2 56//2 55//2
f 92//11 121//11 91//11
f 56//12 123//12 55//12
f 93//13 126//13 94//13
f 71//14 128//14 72//14
f 72//15 70//15 129//15
f 71//16 69//16 127//16
f 129//15 68//15 131//15
f 132//16 69//16 130//16
f 131//15 66//15 133//15
f 134//16 67//16 132//16
f 56//15 66//15 124//15
f 55//16 65//16 134//16
f 93//17 61//17 125//17
f 94//18 62//18 136//18
f 137//17 61//17 135//17
f 136//18 60//18 138//18
f 139//17 59//17 137//17
f 138//18 58//18 140//18
f 91//17 57//17 139//17
f 92//18 58//18 122//18
f 137//1 133//1 139//1
f 129//1 93//1 72//1
f 131//1 135//1 129//1
f 71//3 136//3 130//3
f 130//3 138//3 132//3
f 134//3 138//3 140//3
f 55//3 140//3 92//3
f 56//1 91//1 139//1
f 92//2 91//2 56//2
f 92//11 122//11 121//11
f 56//12 124//12 123//12
f 93//13 125//13 126//13
f 71//14 127//14 128//14
f 72//15 128//15 70//15
f 71//16 130//16 69//16
f 129//15 70//15 68//15
f 132//16 67//16 69//16
f 131//15 68//15 66//15
f 134//16 65//16 67//16
f 56//15 133//15 66//15
f 55//16 123//16 65//16
f 93//17 135//17 61//17
f 94//18 126//18 62//18
f 137//17 59//17 61//17
f 136//18 62//18 60//18
f 139//17 57//17 59//17
f 138//18 60//18 58//18
f 91//17 121//17 57//17
f 92//18 140//18 58//18
f 137//1 131//1 133//1
f 129//1 135//1 93//1
f 131//1 137//1 135//1
f 71//3 94//3 136//3
f 130//3 136//3 138//3
f 134//3 132//3 138//3
f 55//3 134//3 140//3
usemtl Wood1
f 83//6 82//6 81//6
f 53//6 88//6 87//6
f 45//6 64//6 63//6
f 45//19 90//19 46//19
f 54//19 101//19 102//19
f 64//20 105//20 63//20
f 82//20 95//20 81//20
f 83//19 98//19 84//19
f 88//20 99//20 87//20
f 83//21 95//21 97//21
f 84//22 96//22 82//22
f 87//21 101//21 53//21
f 54//22 100//22 88//22
f 63//21 89//21 45//21
f 46//22 106//22 64//22
f 144//6 152//6 149//6
f 150//3 156//3 153//3
f 149//2 150//2 154//2
f 154//5 148//5 145//5
f 146//1 142//1 143//1
f 142//23 144//23 143//23
f 146//24 148//24 147//24
f 154//25 156//25 155//25
f 150//26 152//26 151//26
f 141//4 142//4 148//4
f 83//6 84//6 82//6
f 53//6 54//6 88//6
f 45//6 46//6 64//6
f 45//19 89//19 90//19
f 54//19 53//19 101//19
f 64//20 106//20 105//20
f 82//20 96//20 95//20
f 83//19 97//19 98//19
f 88//20 100//20 99//20
f 83//21 81//21 95//21
f 84//22 98//22 96//22
f 87//21 99//21 101//21
f 54//22 102//22 100//22
f 63//21 105//21 89//21
f 46//22 90//22 106//22
f 144//6 141//6 152//6
f 150//3 151//3 156//3
f 154//2 145//2 144//2
f 146//2 143//2 144//2
f 144//2 149//2 154//2
f 150//2 153//2 154//2
f 145//2 146//2 144//2
f 154//5 155//5 148//5
f 146//1 147//1 142//1
f 142//23 141//23 144//23
f 146//24 145//24 148//24
f 154//25 153//25 156//25
f 150//26 149//26 152//26
f 148//4 155//4 152//4
f 156//4 151//4 152//4
f 152//4 141//4 148//4
f 142//4 147//4 148//4
f 155//4 156//4 152//4
usemtl Metal
f 160//5 165//5 170//5
f 171//6 164//6 176//6
f 160//1 161//1 157//1
f 157//2 171//2 165//2
f 158//3 163//3 159//3
f 159//27 174//27 168//27
f 170//4 164//4 160//4
f 169//28 176//28 170//28
f 168//29 175//29 169//29
f 167//30 162//30 158//30
f 166//31 173//31 167//31
f 165//32 172//32 166//32
f 162//6 174//6 163//6
f 173//6 175//6 174//6
f 175//6 171//6 176//6
f 168//5 158//5 159//5
f 169//5 167//5 168//5
f 169//5 165//5 166//5
f 180//5 185//5 190//5
f 191//6 184//6 196//6
f 180//1 181//1 177//1
f 177//2 191//2 185//2
f 178//3 183//3 179//3
f 179//27 194//27 188//27
f 190//4 184//4 180//4
f 189//28 196//28 190//28
f 188//29 195//29 189//29
f 187//30 182//30 178//30
f 186//31 193//31 187//31
f 185//32 192//32 186//32
f 182//6 194//6 183//6
f 193//6 195//6 194//6
f 195//6 191//6 196//6
f 188//5 178//5 179//5
f 189//5 187//5 188//5
f 189//5 185//5 186//5
f 200//5 205//5 210//5
f 211//6 204//6 216//6
f 200//1 201//1 197//1
f 197//2 211//2 205//2
f 198//3 203//3 199//3
f 199//27 214//27 208//27
f 210//4 204//4 200//4
f 209//28 216//28 210//28
f 208//29 215//29 209//29
f 207//30 202//30 198//30
f 206//31 213//31 207//31
f 205//32 212//32 206//32
f 202//6 214//6 203//6
f 213//6 215//6 214//6
f 212//6 216//6 215//6
f 208//5 198//5 199//5
f 209//5 207//5 208//5
f 210//5 206//5 209//5
f 218//33 219//33 217//33
f 220//34 221//34 219//34
f 222//5 223//5 221//5
f 218//2 224//2 222//2
f 224//35 225//35 223//35
f 226//36 217//36 225//36
f 219//4 223//4 225//4
f 228//33 229//33 227//33
f 230//34 231//34 229//34
f 232//5 233//5 231//5
f 228//2 234//2 232//2
f 234//35 235//35 233//35
f 236//36 227//36 235//36
f 229//4 233//4 235//4
f 238//33 239//33 237//33
f 240//34 241//34 239//34
f 242//5 243//5 241//5
f 238//2 244//2 242//2
f 244//35 245//35 243//35
f 246//36 237//36 245//36
f 239//4 243//4 245//4
f 160//5 157//5 165//5
f 171//6 161//6 164//6
f 160//1 164//1 161//1
f 157//2 161//2 171//2
f 158//3 162//3 163//3
f 159//27 163//27 174//27
f 170//4 176//4 164//4
f 169//28 175//28 176//28
f 168//29 174//29 175//29
f 167//30 173//30 162//30
f 166//31 172//31 173//31
f 165//32 171//32 172//32
f 162//6 173//6 174//6
f 173//6 172//6 175//6
f 175//6 172//6 171//6
f 168//5 167//5 158//5
f 169//5 166//5 167//5
f 169//5 170//5 165//5
f 180//5 177//5 185//5
f 191//6 181//6 184//6
f 180//1 184//1 181//1
f 177//2 181//2 191//2
f 178//3 182//3 183//3
f 179//27 183//27 194//27
f 190//4 196//4 184//4
f 189//28 195//28 196//28
f 188//29 194//29 195//29
f 187//30 193//30 182//30
f 186//31 192//31 193//31
f 185//32 191//32 192//32
f 182//6 193//6 194//6
f 193//6 192//6 195//6
f 195//6 192//6 191//6
f 188//5 187//5 178//5
f 189//5 186//5 187//5
f 189//5 190//5 185//5
f 200//5 197//5 205//5
f 211//6 201//6 204//6
f 200//1 204//1 201//1
f 197//2 201//2 211//2
f 198//3 202//3 203//3
f 199//27 203//27 214//27
f 210//4 216//4 204//4
f 209//28 215//28 216//28
f 208//29 214//29 215//29
f 207//30 213//30 202//30
f 206//31 212//31 213//31
f 205//32 211//32 212//32
f 202//6 213//6 214//6
f 213//6 212//6 215//6
f 212//6 211//6 216//6
f 208//5 207//5 198//5
f 209//5 206//5 207//5
f 210//5 205//5 206//5
f 218//33 220//33 219//33
f 220//34 222//34 221//34
f 222//5 224//5 223//5
f 222//2 220//2 218//2
f 218//2 226//2 224//2
f 224//35 226//35 225//35
f 226//36 218//36 217//36
f 225//4 217//4 219//4
f 219//4 221//4 223//4
f 228//33 230//33 229//33
f 230//34 232//34 231//34
f 232//5 234//5 233//5
f 232//2 230//2 228//2
f 228//2 236//2 234//2
f 234//35 236//35 235//35
f 236//36 228//36 227//36
f 235//4 227//4 229//4
f 229//4 231//4 233//4
f 238//33 240//33 239//33
f 240//34 242//34 241//34
f 242//5 244//5 243//5
f 242//2 240//2 238//2
f 238//2 246//2 244//2
f 244//35 246//35 245//35
f 246//36 238//36 237//36
f 245//4 237//4 239//4
f 239//4 241//4 243//4
