# Blender v2.78 (sub 0) OBJ File: 'LogCabin AssetPack_Assets.blend'
# www.blender.org
mtllib cabinWall_roofWall_Right_1.mtl
o Cube.006_Cube.014
v 0.500000 0.000000 -0.473618
v 0.500000 1.000000 -0.473618
v 0.500000 0.000000 -0.523658
v 0.500000 1.000000 -0.523658
v -0.500000 0.000000 -0.473618
v -0.500000 0.000000 -0.523658
v 0.500000 0.166667 -0.473618
v 0.500000 0.333333 -0.473618
v 0.500000 0.500000 -0.473618
v 0.500000 0.666667 -0.473618
v 0.500000 0.833333 -0.473618
v 0.500000 0.833333 -0.523658
v 0.500000 0.666667 -0.523658
v 0.500000 0.500000 -0.523658
v 0.500000 0.333333 -0.523658
v 0.500000 0.166667 -0.523658
v -0.166645 0.333333 -0.523658
v 0.333378 0.833333 -0.523658
v -0.333319 0.166667 -0.523658
v 0.166704 0.666667 -0.523658
v 0.000030 0.500000 -0.523658
v -0.166683 0.333333 -0.473618
v 0.333331 0.833333 -0.473618
v -0.333318 0.166667 -0.473618
v 0.166665 0.666667 -0.473618
v 0.000013 0.500000 -0.473618
v 0.500000 0.083333 -0.527297
v 0.500000 0.250000 -0.527297
v 0.500000 0.416667 -0.527297
v 0.500000 0.583333 -0.527297
v 0.500000 0.750000 -0.527297
v 0.500000 0.916667 -0.527297
v 0.500000 0.003051 -0.528612
v 0.500000 0.000000 -0.527134
v -0.492632 0.003051 -0.528612
v -0.500000 0.000000 -0.527134
v 0.500000 0.169718 -0.528612
v 0.500000 0.166667 -0.527134
v 0.500000 0.336384 -0.528612
v 0.500000 0.333333 -0.527134
v -0.325952 0.169718 -0.528612
v -0.333319 0.166667 -0.527134
v -0.159277 0.336384 -0.528612
v -0.166645 0.333333 -0.527134
v 0.500000 0.503051 -0.528612
v 0.500000 0.500000 -0.527134
v 0.007397 0.503051 -0.528612
v 0.000030 0.500000 -0.527134
v 0.500000 0.836384 -0.528612
v 0.500000 0.833333 -0.527134
v 0.500000 0.669718 -0.528612
v 0.500000 0.666667 -0.527134
v 0.174071 0.669718 -0.528612
v 0.166704 0.666667 -0.527134
v 0.340744 0.836384 -0.528612
v 0.333378 0.833333 -0.527134
v -0.360663 0.139325 -0.524852
v -0.412343 0.083333 -0.527297
v -0.193987 0.305992 -0.524852
v -0.245666 0.250000 -0.527297
v -0.027313 0.472659 -0.524852
v -0.078991 0.416667 -0.527297
v 0.139361 0.639325 -0.524852
v 0.087683 0.583333 -0.527297
v 0.306036 0.805992 -0.524852
v 0.254357 0.750000 -0.527297
v 0.472666 0.972659 -0.524852
v 0.421005 0.916667 -0.527297
v 0.500000 0.000000 -0.547733
v 0.500000 1.000000 -0.547733
v 0.458340 0.000000 -0.523867
v 0.458340 1.000000 -0.523867
v 0.458340 0.000000 -0.476133
v 0.458340 1.000000 -0.476133
v 0.500000 0.000000 -0.452267
v 0.500000 1.000000 -0.452267
vn -1.0000 0.0000 0.0000
vn 0.0000 -0.0436 0.9990
vn 0.0000 1.0000 0.0000
vn 0.0000 0.0000 -1.0000
vn 0.7071 -0.7072 -0.0000
vn 0.0000 -0.0164 0.9999
vn 0.7071 -0.7071 -0.0000
vn 0.7072 -0.7070 -0.0000
vn 0.7070 -0.7072 0.0005
vn 0.7071 -0.7071 0.0002
vn 0.7071 -0.7071 0.0006
vn 0.7071 -0.7072 -0.0001
vn 0.7070 -0.7072 0.0000
vn 0.0000 0.4359 0.9000
vn 0.3150 -0.3296 0.8900
vn 0.3151 -0.3296 0.8900
vn 0.7071 -0.7071 0.0005
vn 0.7071 -0.7071 0.0007
vn 0.3151 -0.3297 0.8900
vn 0.4971 0.0000 0.8677
vn 1.0000 0.0000 0.0000
vn 0.4971 0.0000 -0.8677
vn 0.0000 -1.0000 0.0000
usemtl Wood1
s off
f 11//1 4//1 12//1
f 19//2 57//2 27//2
f 6//3 1//3 3//3
f 24//4 1//4 5//4
f 27//1 33//1 3//1
f 17//5 61//5 21//5
f 39//6 62//6 43//6
f 31//1 51//1 13//1
f 7//1 3//1 1//1
f 7//1 15//1 16//1
f 8//1 14//1 15//1
f 9//1 13//1 14//1
f 10//1 12//1 13//1
f 26//4 8//4 22//4
f 25//4 9//4 26//4
f 23//4 2//4 11//4
f 23//4 10//4 25//4
f 22//4 7//4 24//4
f 17//2 59//2 28//2
f 16//3 42//3 19//3
f 33//6 58//6 35//6
f 5//7 19//7 24//7
f 19//8 22//8 24//8
f 17//9 26//9 22//9
f 21//10 25//10 26//10
f 20//11 23//11 25//11
f 2//8 18//8 4//8
f 21//2 61//2 29//2
f 37//6 60//6 41//6
f 15//3 44//3 17//3
f 20//2 63//2 30//2
f 14//3 48//3 21//3
f 18//2 65//2 31//2
f 29//1 39//1 15//1
f 45//6 64//6 47//6
f 21//12 63//12 20//12
f 12//3 56//3 18//3
f 67//2 32//2 4//2
f 13//3 54//3 20//3
f 51//6 66//6 53//6
f 18//8 67//8 4//8
f 32//1 49//1 12//1
f 49//6 68//6 55//6
f 6//13 57//13 19//13
f 28//1 37//1 16//1
f 19//5 59//5 17//5
f 30//1 45//1 14//1
f 20//5 65//5 18//5
f 34//14 35//14 36//14
f 47//14 46//14 45//14
f 41//14 38//14 37//14
f 43//14 40//14 39//14
f 53//14 52//14 51//14
f 55//14 50//14 49//14
f 58//15 36//15 35//15
f 60//15 42//15 41//15
f 62//15 44//15 43//15
f 64//15 48//15 47//15
f 66//15 54//15 53//15
f 68//16 56//16 55//16
f 3//3 36//3 6//3
f 11//1 2//1 4//1
f 58//2 27//2 57//2
f 16//2 19//2 27//2
f 6//3 5//3 1//3
f 24//4 7//4 1//4
f 34//1 3//1 33//1
f 16//1 27//1 3//1
f 17//7 44//7 61//7
f 39//6 29//6 62//6
f 52//1 13//1 51//1
f 12//1 31//1 13//1
f 7//1 16//1 3//1
f 7//1 8//1 15//1
f 8//1 9//1 14//1
f 9//1 10//1 13//1
f 10//1 11//1 12//1
f 26//4 9//4 8//4
f 25//4 10//4 9//4
f 23//4 11//4 10//4
f 22//4 8//4 7//4
f 60//2 28//2 59//2
f 15//2 17//2 28//2
f 16//3 38//3 42//3
f 33//6 27//6 58//6
f 5//7 6//7 19//7
f 19//17 17//17 22//17
f 17//10 21//10 26//10
f 21//11 20//11 25//11
f 20//18 18//18 23//18
f 2//18 23//18 18//18
f 62//2 29//2 61//2
f 14//2 21//2 29//2
f 37//6 28//6 60//6
f 15//3 40//3 44//3
f 64//2 30//2 63//2
f 13//2 20//2 30//2
f 14//3 46//3 48//3
f 66//2 31//2 65//2
f 12//2 18//2 31//2
f 40//1 15//1 39//1
f 14//1 29//1 15//1
f 45//6 30//6 64//6
f 21//7 48//7 63//7
f 12//3 50//3 56//3
f 67//2 68//2 32//2
f 13//3 52//3 54//3
f 51//6 31//6 66//6
f 18//8 56//8 67//8
f 50//1 12//1 49//1
f 4//1 32//1 12//1
f 49//6 32//6 68//6
f 6//7 36//7 57//7
f 38//1 16//1 37//1
f 15//1 28//1 16//1
f 19//7 42//7 59//7
f 46//1 14//1 45//1
f 13//1 30//1 14//1
f 20//7 54//7 65//7
f 34//14 33//14 35//14
f 47//14 48//14 46//14
f 41//14 42//14 38//14
f 43//14 44//14 40//14
f 53//14 54//14 52//14
f 55//14 56//14 50//14
f 58//19 57//19 36//19
f 60//16 59//16 42//16
f 62//16 61//16 44//16
f 64//19 63//19 48//19
f 66//15 65//15 54//15
f 68//16 67//16 56//16
f 3//3 34//3 36//3
usemtl Wood1.002
f 70//20 71//20 69//20
f 72//21 73//21 71//21
f 74//22 75//22 73//22
f 70//23 74//23 72//23
f 75//1 70//1 69//1
f 69//3 73//3 75//3
f 70//20 72//20 71//20
f 72//21 74//21 73//21
f 74//22 76//22 75//22
f 70//23 76//23 74//23
f 75//1 76//1 70//1
f 69//3 71//3 73//3
