# Blender v2.78 (sub 0) OBJ File: 'LogCabin AssetPack.blend'
# www.blender.org
mtllib cabinWindow_Frame_1.mtl
o Cube.013_Cube.001
v -0.208873 0.366802 -0.556712
v -0.022179 0.402519 -0.445215
v 0.208874 0.366802 -0.556712
v 0.022179 0.402519 -0.538158
v -0.208874 0.366802 -0.445215
v 0.022179 0.402519 -0.445215
v 0.208874 0.366802 -0.445215
v -0.022179 0.402519 -0.538158
v -0.024771 0.366802 -0.556712
v 0.022179 0.402519 -0.556712
v -0.187022 0.402519 -0.538158
v 0.187022 0.402519 -0.538158
v -0.022179 0.402519 -0.556712
v 0.024771 0.366802 -0.556712
v 0.187022 0.402519 -0.501551
v -0.187022 0.402519 -0.501551
v 0.187022 0.778164 -0.538158
v 0.208874 0.828250 -0.556712
v 0.208874 0.828250 -0.445215
v -0.187022 0.778164 -0.501551
v -0.208874 0.828250 -0.445215
v -0.208873 0.828250 -0.556712
v -0.187022 0.778164 -0.538158
v 0.187022 0.778164 -0.501551
v -0.187022 0.402519 -0.556712
v 0.187022 0.402519 -0.556712
v 0.187022 0.402519 -0.445215
v -0.187022 0.402519 -0.445215
v 0.187022 0.778164 -0.445215
v 0.187022 0.778164 -0.556712
v -0.187022 0.778164 -0.556712
v -0.187022 0.778164 -0.445215
v 0.168320 0.421301 -0.527671
v 0.168320 0.421301 -0.512037
v -0.168320 0.421301 -0.527671
v -0.168320 0.421301 -0.512037
v 0.168320 0.759382 -0.538158
v 0.168320 0.759382 -0.512037
v -0.168320 0.759382 -0.538158
v -0.168320 0.759382 -0.512037
v 0.022179 0.402519 -0.501551
v -0.022179 0.402519 -0.501551
v -0.019961 0.421301 -0.527671
v 0.019962 0.421301 -0.538158
v 0.019961 0.421301 -0.501551
v -0.019961 0.421301 -0.512037
v -0.024771 0.366802 -0.445215
v 0.024771 0.366802 -0.445215
v 0.022179 0.778164 -0.556712
v -0.022179 0.778164 -0.556712
v 0.022179 0.778164 -0.445215
v -0.022179 0.778164 -0.445215
v 0.024771 0.828250 -0.556712
v -0.024771 0.828250 -0.556712
v 0.024771 0.828250 -0.445215
v -0.024771 0.828250 -0.445215
v 0.022179 0.778164 -0.538158
v -0.022179 0.778164 -0.538158
v 0.022179 0.778164 -0.501551
v -0.022179 0.778164 -0.501551
v 0.019961 0.759382 -0.527671
v -0.019961 0.759382 -0.527671
v 0.019961 0.759382 -0.512037
v -0.019961 0.759382 -0.512037
v -0.168320 0.421301 -0.538158
v -0.019961 0.421301 -0.538158
v 0.168320 0.421301 -0.501551
v 0.019961 0.421301 -0.512037
v 0.019961 0.421301 -0.527671
v 0.168320 0.421301 -0.538158
v -0.019961 0.421301 -0.501551
v -0.168320 0.421301 -0.501551
v 0.168320 0.759382 -0.501551
v 0.168320 0.759382 -0.527671
v -0.168320 0.759382 -0.527671
v -0.168320 0.759382 -0.501551
v -0.019961 0.759382 -0.538158
v -0.019961 0.759382 -0.501551
v 0.019962 0.759382 -0.538158
v 0.019961 0.759382 -0.501551
v 0.027379 0.429256 -0.527671
v 0.027379 0.429256 -0.512037
v 0.160902 0.429256 -0.527671
v 0.160902 0.429256 -0.512037
v 0.160902 0.751427 -0.527671
v 0.160902 0.751427 -0.512037
v 0.027379 0.751427 -0.527671
v 0.027379 0.751427 -0.512037
v -0.160902 0.429319 -0.527671
v -0.160902 0.429319 -0.512037
v -0.160902 0.751364 -0.527671
v -0.160902 0.751364 -0.512037
v -0.027379 0.429319 -0.527671
v -0.027379 0.429319 -0.512037
v -0.027379 0.751364 -0.527671
v -0.027379 0.751364 -0.512037
v 0.256234 0.366802 -0.445215
v 0.256234 0.366802 -0.556712
v 0.256234 0.828250 -0.445215
v -0.256234 0.366802 -0.556712
v -0.256234 0.366802 -0.445215
v -0.256234 0.828250 -0.445215
v -0.256234 0.828250 -0.556712
v 0.256234 0.828250 -0.556712
vn 0.0000 1.0000 0.0000
vn 0.0000 0.0000 1.0000
vn 0.0000 0.0000 -1.0000
vn 0.0000 -1.0000 0.0000
vn -1.0000 0.0000 0.0000
vn 1.0000 0.0000 0.0000
usemtl Wood1.002
s off
f 8//1 25//1 11//1
f 4//1 13//1 8//1
f 68//2 88//2 63//2
f 19//1 104//1 18//1
f 12//3 37//3 17//3
f 42//1 6//1 41//1
f 47//4 1//4 9//4
f 15//1 6//1 27//1
f 47//2 28//2 5//2
f 69//3 87//3 81//3
f 14//3 26//3 3//3
f 31//3 54//3 50//3
f 22//1 56//1 54//1
f 7//2 29//2 27//2
f 21//1 103//1 102//1
f 1//3 31//3 25//3
f 5//2 32//2 21//2
f 3//3 30//3 18//3
f 29//2 55//2 51//2
f 12//1 10//1 4//1
f 16//1 2//1 42//1
f 15//5 29//5 24//5
f 17//5 26//5 12//5
f 11//6 31//6 23//6
f 20//6 28//6 16//6
f 23//4 50//4 58//4
f 24//4 51//4 59//4
f 33//3 85//3 74//3
f 46//2 90//2 36//2
f 36//2 92//2 40//2
f 38//2 88//2 86//2
f 25//3 9//3 1//3
f 13//3 14//3 9//3
f 27//2 48//2 7//2
f 6//2 47//2 48//2
f 7//4 14//4 3//4
f 48//4 9//4 14//4
f 64//2 92//2 96//2
f 60//4 32//4 20//4
f 60//4 51//4 52//4
f 57//4 30//4 17//4
f 58//4 49//4 57//4
f 32//2 56//2 21//2
f 51//2 56//2 52//2
f 53//1 19//1 18//1
f 54//1 55//1 53//1
f 30//3 53//3 18//3
f 50//3 53//3 49//3
f 43//3 89//3 93//3
f 34//5 73//5 38//5
f 74//5 70//5 33//5
f 81//6 88//6 82//6
f 84//1 81//1 82//1
f 84//5 85//5 83//5
f 87//4 86//4 88//4
f 34//2 82//2 68//2
f 74//3 87//3 61//3
f 34//2 86//2 84//2
f 33//3 81//3 83//3
f 94//1 89//1 90//1
f 89//6 92//6 90//6
f 91//4 96//4 92//4
f 96//5 93//5 94//5
f 62//3 91//3 75//3
f 75//3 89//3 35//3
f 43//3 95//3 62//3
f 64//2 94//2 46//2
f 101//5 103//5 100//5
f 98//6 99//6 97//6
f 18//3 98//3 3//3
f 7//2 99//2 19//2
f 21//2 101//2 5//2
f 5//4 100//4 1//4
f 1//3 103//3 22//3
f 3//4 97//4 7//4
f 8//1 13//1 25//1
f 4//1 10//1 13//1
f 68//2 82//2 88//2
f 19//1 99//1 104//1
f 12//3 70//3 37//3
f 42//1 2//1 6//1
f 47//4 5//4 1//4
f 15//1 41//1 6//1
f 47//2 2//2 28//2
f 69//3 61//3 87//3
f 14//3 10//3 26//3
f 31//3 22//3 54//3
f 22//1 21//1 56//1
f 7//2 19//2 29//2
f 21//1 22//1 103//1
f 1//3 22//3 31//3
f 5//2 28//2 32//2
f 3//3 26//3 30//3
f 29//2 19//2 55//2
f 12//1 26//1 10//1
f 16//1 28//1 2//1
f 15//5 27//5 29//5
f 17//5 30//5 26//5
f 11//6 25//6 31//6
f 20//6 32//6 28//6
f 23//4 31//4 50//4
f 24//4 29//4 51//4
f 33//3 83//3 85//3
f 46//2 94//2 90//2
f 36//2 90//2 92//2
f 38//2 63//2 88//2
f 25//3 13//3 9//3
f 13//3 10//3 14//3
f 27//2 6//2 48//2
f 6//2 2//2 47//2
f 7//4 48//4 14//4
f 48//4 47//4 9//4
f 64//2 40//2 92//2
f 60//4 52//4 32//4
f 60//4 59//4 51//4
f 57//4 49//4 30//4
f 58//4 50//4 49//4
f 32//2 52//2 56//2
f 51//2 55//2 56//2
f 53//1 55//1 19//1
f 54//1 56//1 55//1
f 30//3 49//3 53//3
f 50//3 54//3 53//3
f 43//3 35//3 89//3
f 34//5 67//5 73//5
f 74//5 37//5 70//5
f 81//6 87//6 88//6
f 84//1 83//1 81//1
f 84//5 86//5 85//5
f 87//4 85//4 86//4
f 34//2 84//2 82//2
f 74//3 85//3 87//3
f 34//2 38//2 86//2
f 33//3 69//3 81//3
f 94//1 93//1 89//1
f 89//6 91//6 92//6
f 91//4 95//4 96//4
f 96//5 95//5 93//5
f 62//3 95//3 91//3
f 75//3 91//3 89//3
f 43//3 93//3 95//3
f 64//2 96//2 94//2
f 101//5 102//5 103//5
f 98//6 104//6 99//6
f 18//3 104//3 98//3
f 7//2 97//2 99//2
f 21//2 102//2 101//2
f 5//4 101//4 100//4
f 1//3 100//3 103//3
f 3//4 98//4 97//4
usemtl Wood1.003
f 4//3 66//3 44//3
f 4//3 70//3 12//3
f 41//2 67//2 45//2
f 16//2 76//2 20//2
f 60//2 76//2 78//2
f 57//3 37//3 79//3
f 23//3 65//3 11//3
f 24//2 67//2 15//2
f 8//3 65//3 66//3
f 42//2 72//2 16//2
f 41//2 71//2 42//2
f 58//3 39//3 23//3
f 57//3 77//3 58//3
f 45//2 78//2 71//2
f 59//2 73//2 24//2
f 60//2 80//2 59//2
f 77//3 44//3 66//3
f 43//1 65//1 35//1
f 34//1 45//1 67//1
f 33//1 44//1 69//1
f 36//1 71//1 46//1
f 35//6 39//6 75//6
f 40//6 72//6 36//6
f 62//4 39//4 77//4
f 40//4 78//4 76//4
f 74//4 79//4 37//4
f 38//4 80//4 63//4
f 63//6 45//6 68//6
f 46//5 78//5 64//5
f 69//6 79//6 61//6
f 62//5 66//5 43//5
f 4//3 8//3 66//3
f 4//3 44//3 70//3
f 41//2 15//2 67//2
f 16//2 72//2 76//2
f 60//2 20//2 76//2
f 57//3 17//3 37//3
f 23//3 39//3 65//3
f 24//2 73//2 67//2
f 8//3 11//3 65//3
f 42//2 71//2 72//2
f 41//2 45//2 71//2
f 58//3 77//3 39//3
f 57//3 79//3 77//3
f 45//2 80//2 78//2
f 59//2 80//2 73//2
f 60//2 78//2 80//2
f 77//3 79//3 44//3
f 43//1 66//1 65//1
f 34//1 68//1 45//1
f 33//1 70//1 44//1
f 36//1 72//1 71//1
f 35//6 65//6 39//6
f 40//6 76//6 72//6
f 62//4 75//4 39//4
f 40//4 64//4 78//4
f 74//4 61//4 79//4
f 38//4 73//4 80//4
f 63//6 80//6 45//6
f 46//5 71//5 78//5
f 69//6 44//6 79//6
f 62//5 77//5 66//5
