# Blender v2.78 (sub 0) OBJ File: 'LogCabin AssetPack_Assets.blend'
# www.blender.org
mtllib cabinWall_Corner_1.mtl
o Cylinder.004
v 0.499115 0.130880 -0.529160
v 0.499115 0.000000 -0.529160
v 0.499115 0.130880 -0.472211
v 0.499115 0.000000 -0.472211
v 0.500069 0.898981 -0.500000
v 0.500069 0.936903 -0.552195
v 0.500069 1.000000 -0.532258
v 0.500069 1.000000 -0.467742
v 0.500069 0.936903 -0.447805
v 0.500069 0.810094 -0.500000
v 0.500069 0.848015 -0.552195
v 0.500069 0.909374 -0.532258
v 0.500069 0.909374 -0.467742
v 0.500069 0.848015 -0.447805
v 0.500069 0.718937 -0.500000
v 0.500069 0.756859 -0.552195
v 0.500069 0.818217 -0.532258
v 0.500069 0.818217 -0.467742
v 0.500069 0.756859 -0.447805
v 0.500069 0.627781 -0.500000
v 0.500069 0.665702 -0.552195
v 0.500069 0.727061 -0.532258
v 0.500069 0.727061 -0.467742
v 0.500069 0.665702 -0.447805
v 0.500069 0.539156 -0.500000
v 0.500069 0.577078 -0.552195
v 0.500069 0.638436 -0.532258
v 0.500069 0.638436 -0.467742
v 0.500069 0.577078 -0.447805
v 0.500069 0.450532 -0.500000
v 0.500069 0.488453 -0.552195
v 0.500069 0.549812 -0.532258
v 0.500069 0.549812 -0.467742
v 0.500069 0.488453 -0.447805
v 0.500069 0.361907 -0.500000
v 0.500069 0.399829 -0.552195
v 0.500069 0.461188 -0.532258
v 0.500069 0.461188 -0.467742
v 0.500069 0.399829 -0.447805
v 0.500069 0.273283 -0.500000
v 0.500069 0.311205 -0.552195
v 0.500069 0.372563 -0.532258
v 0.500069 0.372563 -0.467742
v 0.500069 0.311205 -0.447805
v 0.500069 0.182126 -0.500000
v 0.500069 0.220048 -0.552195
v 0.500069 0.281407 -0.532258
v 0.500069 0.281407 -0.467742
v 0.500069 0.220048 -0.447805
v 0.500069 0.090970 -0.500000
v 0.500069 0.128891 -0.552195
v 0.500069 0.190250 -0.532258
v 0.500069 0.190250 -0.467742
v 0.500069 0.128891 -0.447805
v 0.470889 0.130880 -0.499167
v 0.470889 0.000000 -0.499167
v 0.527837 0.130880 -0.499167
v 0.527837 0.000000 -0.499167
v 0.500049 0.898981 -0.500121
v 0.447854 0.936903 -0.500121
v 0.467791 1.000000 -0.500121
v 0.532307 1.000000 -0.500121
v 0.552243 0.936903 -0.500121
v 0.500049 0.810094 -0.500121
v 0.447854 0.848015 -0.500121
v 0.467791 0.909374 -0.500121
v 0.532307 0.909374 -0.500121
v 0.552243 0.848015 -0.500121
v 0.500049 0.718937 -0.500121
v 0.447854 0.756859 -0.500121
v 0.467791 0.818217 -0.500121
v 0.532307 0.818217 -0.500121
v 0.552243 0.756859 -0.500121
v 0.500049 0.627781 -0.500121
v 0.447854 0.665702 -0.500121
v 0.467791 0.727061 -0.500121
v 0.532307 0.727061 -0.500121
v 0.552243 0.665702 -0.500121
v 0.500049 0.539156 -0.500121
v 0.447854 0.577078 -0.500121
v 0.467791 0.638436 -0.500121
v 0.532307 0.638436 -0.500121
v 0.552243 0.577078 -0.500121
v 0.500049 0.450532 -0.500121
v 0.447854 0.488453 -0.500121
v 0.467791 0.549812 -0.500121
v 0.532307 0.549812 -0.500121
v 0.552243 0.488453 -0.500121
v 0.500049 0.361907 -0.500121
v 0.447854 0.399829 -0.500121
v 0.467791 0.461188 -0.500121
v 0.532307 0.461188 -0.500121
v 0.552243 0.399829 -0.500121
v 0.500049 0.273283 -0.500121
v 0.447854 0.311205 -0.500121
v 0.467791 0.372563 -0.500121
v 0.532307 0.372563 -0.500121
v 0.552243 0.311205 -0.500121
v 0.500049 0.182126 -0.500121
v 0.447854 0.220048 -0.500121
v 0.467791 0.281407 -0.500121
v 0.532307 0.281407 -0.500121
v 0.552243 0.220048 -0.500121
v 0.500049 0.090970 -0.500121
v 0.447854 0.128891 -0.500121
v 0.467791 0.190250 -0.500121
v 0.532307 0.190250 -0.500121
v 0.552243 0.128891 -0.500121
v 0.527837 0.130880 -0.550754
v 0.527837 0.000000 -0.550754
v 0.470889 0.130880 -0.550754
v 0.470889 0.000000 -0.550754
v 0.500049 0.911342 -0.580122
v 0.459560 0.940759 -0.580121
v 0.475118 0.990000 -0.580121
v 0.524979 0.990000 -0.580122
v 0.540538 0.940759 -0.580122
v 0.500049 0.822454 -0.600121
v 0.459610 0.851835 -0.600121
v 0.475056 0.899374 -0.600121
v 0.525042 0.899374 -0.600121
v 0.540488 0.851835 -0.600121
v 0.500049 0.731298 -0.580122
v 0.459610 0.760678 -0.580121
v 0.475056 0.808217 -0.580121
v 0.525042 0.808217 -0.580122
v 0.540488 0.760678 -0.580122
v 0.500049 0.640141 -0.600121
v 0.459610 0.669522 -0.600121
v 0.475056 0.717061 -0.600121
v 0.525042 0.717061 -0.600121
v 0.540488 0.669522 -0.600121
v 0.500049 0.551517 -0.580122
v 0.459610 0.580897 -0.580121
v 0.475056 0.628436 -0.580121
v 0.525042 0.628436 -0.580122
v 0.540488 0.580897 -0.580122
v 0.500049 0.462892 -0.600121
v 0.459610 0.492273 -0.600121
v 0.475056 0.539812 -0.600121
v 0.525042 0.539812 -0.600121
v 0.540488 0.492273 -0.600121
v 0.500049 0.374268 -0.580122
v 0.459610 0.403649 -0.580121
v 0.475056 0.451188 -0.580121
v 0.525042 0.451188 -0.580122
v 0.540488 0.403649 -0.580122
v 0.500049 0.285644 -0.600121
v 0.459610 0.315024 -0.600121
v 0.475056 0.362563 -0.600121
v 0.525042 0.362563 -0.600121
v 0.540488 0.315024 -0.600121
v 0.500049 0.194487 -0.580122
v 0.459610 0.223868 -0.580121
v 0.475056 0.271407 -0.580121
v 0.525042 0.271407 -0.580122
v 0.540488 0.223868 -0.580122
v 0.500049 0.103331 -0.600121
v 0.459610 0.132711 -0.600121
v 0.475056 0.180250 -0.600121
v 0.525042 0.180250 -0.600121
v 0.540488 0.132711 -0.600121
v 0.548908 0.130880 -0.472211
v 0.548908 0.000000 -0.472211
v 0.548908 0.130880 -0.529160
v 0.548908 0.000000 -0.529160
v 0.580069 0.911342 -0.500000
v 0.580069 0.940759 -0.540489
v 0.580069 0.990000 -0.524930
v 0.580069 0.990000 -0.475070
v 0.580069 0.940759 -0.459511
v 0.600069 0.821958 -0.500000
v 0.600069 0.851681 -0.540911
v 0.600069 0.899776 -0.525285
v 0.600069 0.899776 -0.474715
v 0.600069 0.851681 -0.459089
v 0.580069 0.731298 -0.500000
v 0.580069 0.760678 -0.540439
v 0.580069 0.808217 -0.524993
v 0.580069 0.808217 -0.475007
v 0.580069 0.760678 -0.459561
v 0.600069 0.640141 -0.500000
v 0.600069 0.669522 -0.540439
v 0.600069 0.717061 -0.524993
v 0.600069 0.717061 -0.475007
v 0.600069 0.669522 -0.459561
v 0.580069 0.551517 -0.500000
v 0.580069 0.580897 -0.540439
v 0.580069 0.628436 -0.524993
v 0.580069 0.628436 -0.475007
v 0.580069 0.580897 -0.459561
v 0.600069 0.462892 -0.500000
v 0.600069 0.492273 -0.540439
v 0.600069 0.539812 -0.524993
v 0.600069 0.539812 -0.475007
v 0.600069 0.492273 -0.459561
v 0.580069 0.374268 -0.500000
v 0.580069 0.403649 -0.540439
v 0.580069 0.451188 -0.524993
v 0.580069 0.451188 -0.475007
v 0.580069 0.403649 -0.459561
v 0.600069 0.285644 -0.500000
v 0.600069 0.315024 -0.540439
v 0.600069 0.362563 -0.524993
v 0.600069 0.362563 -0.475007
v 0.600069 0.315024 -0.459561
v 0.580069 0.194487 -0.500000
v 0.580069 0.223868 -0.540439
v 0.580069 0.271407 -0.524993
v 0.580069 0.271407 -0.475007
v 0.580069 0.223868 -0.459561
v 0.600069 0.103331 -0.500000
v 0.600069 0.132711 -0.540439
v 0.600069 0.180250 -0.524993
v 0.600069 0.180250 -0.475007
v 0.600069 0.132711 -0.459561
v 0.500049 0.898981 -0.580122
v 0.447854 0.936903 -0.580121
v 0.467791 1.000000 -0.580121
v 0.532307 1.000000 -0.580122
v 0.552244 0.936903 -0.580122
v 0.500049 0.810094 -0.600121
v 0.447854 0.848015 -0.600121
v 0.467791 0.909374 -0.600121
v 0.532307 0.909374 -0.600121
v 0.552244 0.848015 -0.600121
v 0.500049 0.718937 -0.580122
v 0.447854 0.756859 -0.580121
v 0.467791 0.818217 -0.580121
v 0.532307 0.818217 -0.580122
v 0.552244 0.756859 -0.580122
v 0.500049 0.627781 -0.600121
v 0.447854 0.665702 -0.600121
v 0.467791 0.727061 -0.600121
v 0.532307 0.727061 -0.600121
v 0.552244 0.665702 -0.600121
v 0.500049 0.539156 -0.580122
v 0.447854 0.577078 -0.580121
v 0.467791 0.638436 -0.580121
v 0.532307 0.638436 -0.580122
v 0.552244 0.577078 -0.580122
v 0.500049 0.450532 -0.600121
v 0.447854 0.488453 -0.600121
v 0.467791 0.549812 -0.600121
v 0.532307 0.549812 -0.600121
v 0.552244 0.488453 -0.600121
v 0.500049 0.361907 -0.580122
v 0.447854 0.399829 -0.580121
v 0.467791 0.461188 -0.580121
v 0.532307 0.461188 -0.580122
v 0.552244 0.399829 -0.580122
v 0.500049 0.273283 -0.600121
v 0.447854 0.311205 -0.600121
v 0.467791 0.372563 -0.600121
v 0.532307 0.372563 -0.600121
v 0.552244 0.311205 -0.600121
v 0.500049 0.182126 -0.580122
v 0.447854 0.220048 -0.580121
v 0.467791 0.281407 -0.580121
v 0.532307 0.281407 -0.580122
v 0.552244 0.220048 -0.580122
v 0.500049 0.090970 -0.600121
v 0.447854 0.128891 -0.600121
v 0.467791 0.190250 -0.600121
v 0.532307 0.190250 -0.600121
v 0.552244 0.128891 -0.600121
v 0.600069 0.090970 -0.500000
v 0.600069 0.128891 -0.552195
v 0.600069 0.190250 -0.532258
v 0.600069 0.190250 -0.467742
v 0.600069 0.128891 -0.447805
v 0.580069 0.182126 -0.500000
v 0.580069 0.220048 -0.552195
v 0.580069 0.281407 -0.532258
v 0.580069 0.281407 -0.467742
v 0.580069 0.220048 -0.447805
v 0.600069 0.273283 -0.500000
v 0.600069 0.311205 -0.552195
v 0.600069 0.372563 -0.532258
v 0.600069 0.372563 -0.467742
v 0.600069 0.311205 -0.447805
v 0.580069 0.361907 -0.500000
v 0.580069 0.399829 -0.552195
v 0.580069 0.461188 -0.532258
v 0.580069 0.461188 -0.467742
v 0.580069 0.399829 -0.447805
v 0.600069 0.450532 -0.500000
v 0.600069 0.488453 -0.552195
v 0.600069 0.549812 -0.532258
v 0.600069 0.549812 -0.467742
v 0.600069 0.488453 -0.447805
v 0.580069 0.539156 -0.500000
v 0.580069 0.577078 -0.552195
v 0.580069 0.638436 -0.532258
v 0.580069 0.638436 -0.467742
v 0.580069 0.577078 -0.447805
v 0.600069 0.627781 -0.500000
v 0.600069 0.665702 -0.552195
v 0.600069 0.727061 -0.532258
v 0.600069 0.727061 -0.467742
v 0.600069 0.665702 -0.447805
v 0.580069 0.718937 -0.500000
v 0.580069 0.756859 -0.552195
v 0.580069 0.818217 -0.532258
v 0.580069 0.818217 -0.467742
v 0.580069 0.756859 -0.447805
v 0.600069 0.810094 -0.500000
v 0.600069 0.848015 -0.552195
v 0.600069 0.909374 -0.532258
v 0.600069 0.909374 -0.467742
v 0.600069 0.848015 -0.447805
v 0.580069 0.898981 -0.500000
v 0.580069 0.936903 -0.552195
v 0.580069 1.000000 -0.532258
v 0.580069 1.000000 -0.467742
v 0.580069 0.936903 -0.447805
vn -1.0000 0.0000 0.0000
vn 0.0000 -0.0000 1.0000
vn -0.9511 0.3090 -0.0000
vn -0.5878 -0.8090 -0.0000
vn 0.0000 1.0000 -0.0000
vn 0.9511 0.3090 0.0000
vn 0.5878 -0.8090 0.0000
vn -0.9535 0.3013 -0.0000
vn 0.9535 0.3013 0.0000
vn 0.0000 0.3090 -0.9511
vn 0.0000 0.3090 0.9511
vn 0.0000 -0.8090 0.5878
vn 0.0000 -0.8090 -0.5878
vn 0.0000 0.3013 -0.9535
vn -0.0000 0.3013 0.9535
vn -0.0000 0.0000 -1.0000
vn 1.0000 0.0000 0.0000
vn 0.0000 -1.0000 0.0000
usemtl Wood1
s off
f 9//1 7//1 6//1
f 14//1 12//1 10//1
f 19//1 17//1 15//1
f 24//1 22//1 20//1
f 29//1 27//1 25//1
f 34//1 32//1 30//1
f 39//1 37//1 35//1
f 44//1 42//1 40//1
f 49//1 47//1 45//1
f 54//1 52//1 50//1
f 63//2 61//2 60//2
f 67//2 66//2 65//2
f 73//2 71//2 69//2
f 78//2 76//2 74//2
f 83//2 81//2 79//2
f 88//2 86//2 84//2
f 93//2 91//2 89//2
f 98//2 96//2 94//2
f 103//2 101//2 99//2
f 108//2 106//2 104//2
f 101//3 258//3 100//3
f 74//4 233//4 232//4
f 102//5 259//5 101//5
f 76//3 233//3 75//3
f 103//6 260//6 102//6
f 77//5 234//5 76//5
f 99//7 261//7 103//7
f 78//6 235//6 77//6
f 104//4 263//4 262//4
f 78//7 232//7 236//7
f 106//3 263//3 105//3
f 79//4 238//4 237//4
f 107//5 264//5 106//5
f 81//3 238//3 80//3
f 108//6 265//6 107//6
f 82//5 239//5 81//5
f 108//7 262//7 266//7
f 83//6 240//6 82//6
f 83//7 237//7 241//7
f 84//4 243//4 242//4
f 86//3 243//3 85//3
f 59//4 218//4 217//4
f 87//5 244//5 86//5
f 61//8 218//8 60//8
f 88//6 245//6 87//6
f 62//5 219//5 61//5
f 84//7 246//7 88//7
f 63//9 220//9 62//9
f 89//4 248//4 247//4
f 59//7 221//7 63//7
f 91//3 248//3 90//3
f 64//4 223//4 222//4
f 92//5 249//5 91//5
f 66//3 223//3 65//3
f 93//6 250//6 92//6
f 67//5 224//5 66//5
f 93//7 247//7 251//7
f 68//6 225//6 67//6
f 94//4 253//4 252//4
f 68//7 222//7 226//7
f 96//3 253//3 95//3
f 69//4 228//4 227//4
f 97//5 254//5 96//5
f 71//3 228//3 70//3
f 98//6 255//6 97//6
f 72//5 229//5 71//5
f 94//7 256//7 98//7
f 73//6 230//6 72//6
f 99//4 258//4 257//4
f 73//7 227//7 231//7
f 48//5 274//5 47//5
f 21//10 299//10 298//10
f 49//11 275//11 48//11
f 23//5 299//5 22//5
f 49//12 272//12 276//12
f 24//11 300//11 23//11
f 50//13 268//13 267//13
f 24//12 297//12 301//12
f 52//10 268//10 51//10
f 25//13 293//13 292//13
f 53//5 269//5 52//5
f 27//10 293//10 26//10
f 54//11 270//11 53//11
f 28//5 294//5 27//5
f 54//12 267//12 271//12
f 29//11 295//11 28//11
f 25//12 296//12 29//12
f 31//13 287//13 30//13
f 32//10 288//10 31//10
f 6//13 312//13 5//13
f 33//5 289//5 32//5
f 7//14 313//14 6//14
f 34//11 290//11 33//11
f 8//5 314//5 7//5
f 34//12 287//12 291//12
f 8//15 316//15 315//15
f 35//13 283//13 282//13
f 9//12 312//12 316//12
f 36//10 284//10 283//10
f 10//13 308//13 307//13
f 38//5 284//5 37//5
f 12//10 308//10 11//10
f 39//11 285//11 38//11
f 13//5 309//5 12//5
f 39//12 282//12 286//12
f 14//11 310//11 13//11
f 41//13 277//13 40//13
f 14//12 307//12 311//12
f 42//10 278//10 41//10
f 15//13 303//13 302//13
f 43//5 279//5 42//5
f 17//10 303//10 16//10
f 44//11 280//11 43//11
f 18//5 304//5 17//5
f 44//12 277//12 281//12
f 19//11 305//11 18//11
f 45//13 273//13 272//13
f 19//12 302//12 306//12
f 46//10 274//10 273//10
f 21//13 297//13 20//13
f 113//16 218//16 114//16
f 115//16 218//16 219//16
f 115//16 220//16 116//16
f 116//16 221//16 117//16
f 113//16 221//16 217//16
f 119//16 222//16 223//16
f 120//16 223//16 224//16
f 121//16 224//16 225//16
f 121//16 226//16 122//16
f 122//16 222//16 118//16
f 124//16 227//16 228//16
f 125//16 228//16 229//16
f 126//16 229//16 230//16
f 126//16 231//16 127//16
f 127//16 227//16 123//16
f 129//16 232//16 233//16
f 130//16 233//16 234//16
f 131//16 234//16 235//16
f 131//16 236//16 132//16
f 132//16 232//16 128//16
f 134//16 237//16 238//16
f 135//16 238//16 239//16
f 136//16 239//16 240//16
f 136//16 241//16 137//16
f 137//16 237//16 133//16
f 139//16 242//16 243//16
f 140//16 243//16 244//16
f 141//16 244//16 245//16
f 142//16 245//16 246//16
f 142//16 242//16 138//16
f 144//16 247//16 248//16
f 145//16 248//16 249//16
f 146//16 249//16 250//16
f 147//16 250//16 251//16
f 147//16 247//16 143//16
f 149//16 252//16 253//16
f 150//16 253//16 254//16
f 151//16 254//16 255//16
f 152//16 255//16 256//16
f 152//16 252//16 148//16
f 154//16 257//16 258//16
f 154//16 259//16 155//16
f 156//16 259//16 260//16
f 157//16 260//16 261//16
f 157//16 257//16 153//16
f 158//16 263//16 159//16
f 159//16 264//16 160//16
f 161//16 264//16 265//16
f 162//16 265//16 266//16
f 162//16 262//16 158//16
f 212//17 268//17 213//17
f 213//17 269//17 214//17
f 214//17 270//17 215//17
f 215//17 271//17 216//17
f 216//17 267//17 212//17
f 207//17 273//17 208//17
f 208//17 274//17 209//17
f 209//17 275//17 210//17
f 210//17 276//17 211//17
f 211//17 272//17 207//17
f 202//17 278//17 203//17
f 203//17 279//17 204//17
f 204//17 280//17 205//17
f 205//17 281//17 206//17
f 202//17 281//17 277//17
f 197//17 283//17 198//17
f 198//17 284//17 199//17
f 199//17 285//17 200//17
f 200//17 286//17 201//17
f 197//17 286//17 282//17
f 192//17 288//17 193//17
f 193//17 289//17 194//17
f 194//17 290//17 195//17
f 195//17 291//17 196//17
f 192//17 291//17 287//17
f 188//17 292//17 293//17
f 188//17 294//17 189//17
f 189//17 295//17 190//17
f 190//17 296//17 191//17
f 191//17 292//17 187//17
f 183//17 297//17 298//17
f 183//17 299//17 184//17
f 184//17 300//17 185//17
f 185//17 301//17 186//17
f 186//17 297//17 182//17
f 178//17 302//17 303//17
f 178//17 304//17 179//17
f 179//17 305//17 180//17
f 180//17 306//17 181//17
f 181//17 302//17 177//17
f 173//17 307//17 308//17
f 174//17 308//17 309//17
f 174//17 310//17 175//17
f 175//17 311//17 176//17
f 176//17 307//17 172//17
f 167//17 313//17 168//17
f 169//17 313//17 314//17
f 170//17 314//17 315//17
f 170//17 316//17 171//17
f 167//17 316//17 312//17
f 6//1 5//1 9//1
f 9//1 8//1 7//1
f 11//1 10//1 12//1
f 14//1 13//1 12//1
f 16//1 15//1 17//1
f 19//1 18//1 17//1
f 21//1 20//1 22//1
f 24//1 23//1 22//1
f 26//1 25//1 27//1
f 29//1 28//1 27//1
f 31//1 30//1 32//1
f 34//1 33//1 32//1
f 36//1 35//1 37//1
f 39//1 38//1 37//1
f 41//1 40//1 42//1
f 44//1 43//1 42//1
f 46//1 45//1 47//1
f 49//1 48//1 47//1
f 51//1 50//1 52//1
f 54//1 53//1 52//1
f 60//2 59//2 63//2
f 63//2 62//2 61//2
f 65//2 64//2 68//2
f 68//2 67//2 65//2
f 70//2 69//2 71//2
f 73//2 72//2 71//2
f 75//2 74//2 76//2
f 78//2 77//2 76//2
f 80//2 79//2 81//2
f 83//2 82//2 81//2
f 85//2 84//2 86//2
f 88//2 87//2 86//2
f 90//2 89//2 91//2
f 93//2 92//2 91//2
f 95//2 94//2 96//2
f 98//2 97//2 96//2
f 100//2 99//2 101//2
f 103//2 102//2 101//2
f 105//2 104//2 106//2
f 108//2 107//2 106//2
f 101//3 259//3 258//3
f 74//4 75//4 233//4
f 102//5 260//5 259//5
f 76//3 234//3 233//3
f 103//6 261//6 260//6
f 77//5 235//5 234//5
f 99//7 257//7 261//7
f 78//6 236//6 235//6
f 104//4 105//4 263//4
f 78//7 74//7 232//7
f 106//3 264//3 263//3
f 79//4 80//4 238//4
f 107//5 265//5 264//5
f 81//3 239//3 238//3
f 108//6 266//6 265//6
f 82//5 240//5 239//5
f 108//7 104//7 262//7
f 83//6 241//6 240//6
f 83//7 79//7 237//7
f 84//4 85//4 243//4
f 86//3 244//3 243//3
f 59//4 60//4 218//4
f 87//5 245//5 244//5
f 61//8 219//8 218//8
f 88//6 246//6 245//6
f 62//5 220//5 219//5
f 84//7 242//7 246//7
f 63//9 221//9 220//9
f 89//4 90//4 248//4
f 59//7 217//7 221//7
f 91//3 249//3 248//3
f 64//4 65//4 223//4
f 92//5 250//5 249//5
f 66//3 224//3 223//3
f 93//6 251//6 250//6
f 67//5 225//5 224//5
f 93//7 89//7 247//7
f 68//6 226//6 225//6
f 94//4 95//4 253//4
f 68//7 64//7 222//7
f 96//3 254//3 253//3
f 69//4 70//4 228//4
f 97//5 255//5 254//5
f 71//3 229//3 228//3
f 98//6 256//6 255//6
f 72//5 230//5 229//5
f 94//7 252//7 256//7
f 73//6 231//6 230//6
f 99//4 100//4 258//4
f 73//7 69//7 227//7
f 48//5 275//5 274//5
f 21//10 22//10 299//10
f 49//11 276//11 275//11
f 23//5 300//5 299//5
f 49//12 45//12 272//12
f 24//11 301//11 300//11
f 50//13 51//13 268//13
f 24//12 20//12 297//12
f 52//10 269//10 268//10
f 25//13 26//13 293//13
f 53//5 270//5 269//5
f 27//10 294//10 293//10
f 54//11 271//11 270//11
f 28//5 295//5 294//5
f 54//12 50//12 267//12
f 29//11 296//11 295//11
f 25//12 292//12 296//12
f 31//13 288//13 287//13
f 32//10 289//10 288//10
f 6//13 313//13 312//13
f 33//5 290//5 289//5
f 7//14 314//14 313//14
f 34//11 291//11 290//11
f 8//5 315//5 314//5
f 34//12 30//12 287//12
f 8//15 9//15 316//15
f 35//13 36//13 283//13
f 9//12 5//12 312//12
f 36//10 37//10 284//10
f 10//13 11//13 308//13
f 38//5 285//5 284//5
f 12//10 309//10 308//10
f 39//11 286//11 285//11
f 13//5 310//5 309//5
f 39//12 35//12 282//12
f 14//11 311//11 310//11
f 41//13 278//13 277//13
f 14//12 10//12 307//12
f 42//10 279//10 278//10
f 15//13 16//13 303//13
f 43//5 280//5 279//5
f 17//10 304//10 303//10
f 44//11 281//11 280//11
f 18//5 305//5 304//5
f 44//12 40//12 277//12
f 19//11 306//11 305//11
f 45//13 46//13 273//13
f 19//12 15//12 302//12
f 46//10 47//10 274//10
f 21//13 298//13 297//13
f 113//16 217//16 218//16
f 115//16 114//16 218//16
f 115//16 219//16 220//16
f 116//16 220//16 221//16
f 113//16 117//16 221//16
f 119//16 118//16 222//16
f 120//16 119//16 223//16
f 121//16 120//16 224//16
f 121//16 225//16 226//16
f 122//16 226//16 222//16
f 124//16 123//16 227//16
f 125//16 124//16 228//16
f 126//16 125//16 229//16
f 126//16 230//16 231//16
f 127//16 231//16 227//16
f 129//16 128//16 232//16
f 130//16 129//16 233//16
f 131//16 130//16 234//16
f 131//16 235//16 236//16
f 132//16 236//16 232//16
f 134//16 133//16 237//16
f 135//16 134//16 238//16
f 136//16 135//16 239//16
f 136//16 240//16 241//16
f 137//16 241//16 237//16
f 139//16 138//16 242//16
f 140//16 139//16 243//16
f 141//16 140//16 244//16
f 142//16 141//16 245//16
f 142//16 246//16 242//16
f 144//16 143//16 247//16
f 145//16 144//16 248//16
f 146//16 145//16 249//16
f 147//16 146//16 250//16
f 147//16 251//16 247//16
f 149//16 148//16 252//16
f 150//16 149//16 253//16
f 151//16 150//16 254//16
f 152//16 151//16 255//16
f 152//16 256//16 252//16
f 154//16 153//16 257//16
f 154//16 258//16 259//16
f 156//16 155//16 259//16
f 157//16 156//16 260//16
f 157//16 261//16 257//16
f 158//16 262//16 263//16
f 159//16 263//16 264//16
f 161//16 160//16 264//16
f 162//16 161//16 265//16
f 162//16 266//16 262//16
f 212//17 267//17 268//17
f 213//17 268//17 269//17
f 214//17 269//17 270//17
f 215//17 270//17 271//17
f 216//17 271//17 267//17
f 207//17 272//17 273//17
f 208//17 273//17 274//17
f 209//17 274//17 275//17
f 210//17 275//17 276//17
f 211//17 276//17 272//17
f 202//17 277//17 278//17
f 203//17 278//17 279//17
f 204//17 279//17 280//17
f 205//17 280//17 281//17
f 202//17 206//17 281//17
f 197//17 282//17 283//17
f 198//17 283//17 284//17
f 199//17 284//17 285//17
f 200//17 285//17 286//17
f 197//17 201//17 286//17
f 192//17 287//17 288//17
f 193//17 288//17 289//17
f 194//17 289//17 290//17
f 195//17 290//17 291//17
f 192//17 196//17 291//17
f 188//17 187//17 292//17
f 188//17 293//17 294//17
f 189//17 294//17 295//17
f 190//17 295//17 296//17
f 191//17 296//17 292//17
f 183//17 182//17 297//17
f 183//17 298//17 299//17
f 184//17 299//17 300//17
f 185//17 300//17 301//17
f 186//17 301//17 297//17
f 178//17 177//17 302//17
f 178//17 303//17 304//17
f 179//17 304//17 305//17
f 180//17 305//17 306//17
f 181//17 306//17 302//17
f 173//17 172//17 307//17
f 174//17 173//17 308//17
f 174//17 309//17 310//17
f 175//17 310//17 311//17
f 176//17 311//17 307//17
f 167//17 312//17 313//17
f 169//17 168//17 313//17
f 170//17 169//17 314//17
f 170//17 315//17 316//17
f 167//17 171//17 316//17
usemtl Wood1.001
f 115//16 116//16 117//16
f 119//16 121//16 122//16
f 124//16 126//16 123//16
f 129//16 131//16 128//16
f 134//16 136//16 133//16
f 139//16 141//16 138//16
f 144//16 146//16 143//16
f 149//16 151//16 148//16
f 154//16 156//16 153//16
f 159//16 161//16 158//16
f 168//17 170//17 171//17
f 173//17 175//17 172//17
f 179//17 180//17 181//17
f 184//17 185//17 186//17
f 189//17 190//17 191//17
f 194//17 195//17 196//17
f 199//17 200//17 201//17
f 204//17 205//17 206//17
f 209//17 210//17 211//17
f 214//17 215//17 216//17
f 117//16 113//16 114//16
f 114//16 115//16 117//16
f 122//16 118//16 119//16
f 119//16 120//16 121//16
f 127//16 123//16 126//16
f 124//16 125//16 126//16
f 132//16 128//16 131//16
f 129//16 130//16 131//16
f 137//16 133//16 136//16
f 134//16 135//16 136//16
f 142//16 138//16 141//16
f 139//16 140//16 141//16
f 147//16 143//16 146//16
f 144//16 145//16 146//16
f 152//16 148//16 151//16
f 149//16 150//16 151//16
f 157//16 153//16 156//16
f 154//16 155//16 156//16
f 162//16 158//16 161//16
f 159//16 160//16 161//16
f 171//17 167//17 168//17
f 168//17 169//17 170//17
f 176//17 172//17 175//17
f 173//17 174//17 175//17
f 181//17 177//17 178//17
f 178//17 179//17 181//17
f 186//17 182//17 183//17
f 183//17 184//17 186//17
f 191//17 187//17 188//17
f 188//17 189//17 191//17
f 196//17 192//17 193//17
f 193//17 194//17 196//17
f 201//17 197//17 198//17
f 198//17 199//17 201//17
f 206//17 202//17 203//17
f 203//17 204//17 206//17
f 211//17 207//17 208//17
f 208//17 209//17 211//17
f 216//17 212//17 213//17
f 213//17 214//17 216//17
usemtl Wood1.002
f 4//1 1//1 2//1
f 58//2 55//2 56//2
f 111//16 110//16 112//16
f 58//17 109//17 57//17
f 57//5 111//5 55//5
f 58//18 112//18 110//18
f 55//1 112//1 56//1
f 165//17 164//17 166//17
f 4//2 163//2 3//2
f 3//5 165//5 1//5
f 4//18 166//18 164//18
f 1//16 166//16 2//16
f 4//1 3//1 1//1
f 58//2 57//2 55//2
f 111//16 109//16 110//16
f 58//17 110//17 109//17
f 57//5 109//5 111//5
f 58//18 56//18 112//18
f 55//1 111//1 112//1
f 165//17 163//17 164//17
f 4//2 164//2 163//2
f 3//5 163//5 165//5
f 4//18 2//18 166//18
f 1//16 165//16 166//16
