# Blender v2.78 (sub 0) OBJ File: 'LogCabin AssetPack_Assets.blend'
# www.blender.org
mtllib cabinRoof_2.mtl
o Cube.008_Cube.017
v 0.500000 0.000000 -0.532101
v 0.500000 0.991928 0.500000
v 0.500000 0.000000 -0.496023
v 0.500000 0.991928 0.442796
v 0.500000 0.038237 -0.496023
v 0.500000 0.932620 0.442796
v 0.500000 0.832980 0.286326
v 0.500000 0.674031 0.129856
v 0.500000 0.515083 -0.026614
v 0.500000 0.356134 -0.183084
v 0.500000 0.197185 -0.339553
v 0.500000 0.155437 -0.339553
v 0.500000 0.310873 -0.183084
v 0.500000 0.466310 -0.026614
v 0.500000 0.621747 0.129856
v 0.500000 0.777184 0.286326
v 0.499986 0.048452 -0.506409
v -0.500000 0.000000 -0.532101
v -0.500000 0.991928 0.500000
v -0.500000 0.000000 -0.496023
v -0.500000 0.991928 0.442796
v -0.500000 0.038237 -0.496023
v -0.500000 0.932620 0.442796
v -0.500000 0.832980 0.286326
v -0.500000 0.674031 0.129856
v -0.500000 0.515083 -0.026614
v -0.500000 0.356134 -0.183084
v -0.500000 0.197185 -0.339553
v -0.500000 0.155437 -0.339553
v -0.500000 0.310873 -0.183084
v -0.500000 0.466310 -0.026614
v -0.500000 0.621747 0.129856
v -0.500000 0.777184 0.286326
v -0.499986 0.048452 -0.506409
v 0.000000 0.000000 -0.546696
v 0.000000 0.991928 0.500000
v 0.000000 0.000000 -0.510618
v 0.000000 0.037473 -0.510618
v -0.000000 0.991928 0.442796
v -0.000000 0.933785 0.442796
v 0.000000 0.196549 -0.354148
v 0.000000 0.355625 -0.197678
v 0.000000 0.514701 -0.041209
v -0.000000 0.673776 0.115261
v 0.000000 0.832852 0.271731
v 0.000000 0.155631 -0.354148
v 0.000000 0.311262 -0.197678
v 0.000000 0.466892 -0.041209
v -0.000000 0.622523 0.115261
v 0.000000 0.778154 0.271731
v 0.000000 0.047688 -0.521003
v 0.500000 0.208012 -0.350556
v 0.000000 0.207376 -0.365151
v -0.500000 0.208012 -0.350556
v 0.500000 0.365293 -0.192391
v 0.000000 0.364783 -0.206986
v -0.500000 0.365293 -0.192391
v 0.000000 0.839718 0.264754
v 0.500000 0.524785 -0.036474
v 0.000000 0.524403 -0.051069
v 0.500000 0.681403 0.122365
v -0.000000 0.681148 0.107770
v -0.500000 0.524785 -0.036474
v 0.500000 0.839845 0.279349
v -0.500000 0.681403 0.122365
v -0.500000 0.839845 0.279349
vn -0.0211 -0.7395 0.6728
vn 1.0000 0.0000 0.0000
vn 0.0210 0.6934 -0.7202
vn 0.0000 -0.7013 0.7128
vn 0.0214 -0.7126 -0.7012
vn 0.0210 -0.7126 -0.7012
vn 0.0188 0.7600 -0.6497
vn -0.0206 -0.7089 0.7051
vn -0.0209 -0.7089 0.7050
vn -0.0211 -0.7088 0.7050
vn -0.0214 -0.7088 0.7050
vn -0.0217 -0.7088 0.7050
vn 0.0183 0.7461 -0.6656
vn 1.0000 0.0007 -0.0007
vn 0.0216 -0.7127 -0.7011
vn 0.0000 1.0000 0.0000
vn 0.0000 -1.0000 0.0000
vn 0.0211 -0.7395 0.6728
vn -1.0000 0.0000 0.0000
vn -0.0207 -0.7126 -0.7012
vn -0.0210 0.6934 -0.7202
vn 0.0212 -0.7126 -0.7012
vn -0.0210 -0.7126 -0.7012
vn 0.0206 -0.7089 0.7051
vn 0.0209 -0.7089 0.7050
vn 0.0211 -0.7088 0.7050
vn 0.0214 -0.7088 0.7050
vn 0.0217 -0.7088 0.7050
vn -0.0183 0.7461 -0.6656
vn -1.0000 0.0007 -0.0007
vn -0.0216 -0.7127 -0.7011
vn 0.0184 0.7486 -0.6627
vn -0.0184 0.7486 -0.6627
vn -0.0214 -0.7126 -0.7012
vn 0.0188 0.7416 -0.6706
vn -0.0188 0.7416 -0.6706
vn -0.0212 -0.7126 -0.7012
vn 0.0189 0.7439 -0.6680
vn -0.0189 0.7439 -0.6680
vn -0.0194 0.7339 -0.6790
vn 0.0194 0.7339 -0.6790
vn -0.0188 0.7600 -0.6497
vn -0.0208 -0.7126 -0.7012
vn 0.0208 -0.7126 -0.7012
vn 0.0207 -0.7126 -0.7012
vn -0.0017 -0.7094 0.7048
vn 0.0202 0.6861 -0.7272
vn -0.0016 -0.6942 0.7198
vn 0.0000 0.7321 -0.6812
vn -0.0208 -0.7093 0.7046
vn -0.0211 -0.7093 0.7046
vn -0.0214 -0.7093 0.7046
vn -0.0217 -0.7093 0.7046
vn -0.0219 -0.7093 0.7046
vn 0.0185 0.7464 -0.6653
vn 0.0216 -0.7128 -0.7011
vn 0.0017 -0.7094 0.7048
vn -0.0202 0.6861 -0.7272
vn 0.0016 -0.6942 0.7198
vn 0.0208 -0.7093 0.7046
vn 0.0211 -0.7093 0.7046
vn 0.0214 -0.7093 0.7046
vn 0.0217 -0.7093 0.7046
vn 0.0219 -0.7093 0.7046
vn -0.0185 0.7464 -0.6653
vn -0.0216 -0.7128 -0.7011
vn 0.0186 0.7489 -0.6624
vn -0.0186 0.7489 -0.6624
vn 0.0190 0.7418 -0.6703
vn -0.0190 0.7418 -0.6703
vn 0.0191 0.7442 -0.6677
vn -0.0191 0.7442 -0.6677
vn -0.0196 0.7342 -0.6787
vn 0.0196 0.7342 -0.6787
usemtl Wood1.003
s off
f 16//1 40//1 50//1
f 1//2 5//2 3//2
f 7//2 6//2 16//2
f 2//2 6//2 4//2
f 38//3 1//3 35//3
f 40//4 2//4 36//4
f 5//2 12//2 3//2
f 11//2 13//2 12//2
f 10//2 14//2 13//2
f 9//2 15//2 14//2
f 8//2 16//2 15//2
f 41//5 52//5 11//5
f 9//2 10//2 55//2
f 43//6 59//6 9//6
f 39//7 64//7 58//7
f 3//8 46//8 37//8
f 12//9 47//9 46//9
f 13//10 48//10 47//10
f 14//11 49//11 48//11
f 15//12 50//12 49//12
f 41//13 17//13 51//13
f 11//14 5//14 17//14
f 38//15 17//15 5//15
f 4//16 36//16 2//16
f 1//17 37//17 35//17
f 40//18 33//18 50//18
f 18//19 20//19 22//19
f 45//20 66//20 58//20
f 23//19 24//19 33//19
f 19//19 21//19 23//19
f 18//21 38//21 35//21
f 19//4 40//4 36//4
f 29//19 22//19 20//19
f 30//19 28//19 29//19
f 31//19 27//19 30//19
f 32//19 26//19 31//19
f 33//19 25//19 32//19
f 10//2 11//2 52//2
f 42//22 55//22 10//22
f 43//23 63//23 60//23
f 25//19 24//19 65//19
f 46//24 20//24 37//24
f 47//25 29//25 46//25
f 48//26 30//26 47//26
f 49//27 31//27 48//27
f 50//28 32//28 49//28
f 34//29 41//29 51//29
f 28//30 34//30 22//30
f 34//31 38//31 22//31
f 36//16 21//16 19//16
f 18//17 37//17 20//17
f 42//32 52//32 53//32
f 54//33 42//33 53//33
f 41//34 54//34 53//34
f 28//19 27//19 54//19
f 43//35 55//35 56//35
f 57//36 43//36 56//36
f 42//37 57//37 56//37
f 27//19 26//19 57//19
f 44//38 59//38 60//38
f 63//39 44//39 60//39
f 26//19 25//19 63//19
f 8//2 9//2 59//2
f 65//40 45//40 62//40
f 45//41 61//41 62//41
f 7//2 8//2 61//2
f 66//42 39//42 58//42
f 44//43 65//43 62//43
f 44//44 61//44 8//44
f 45//45 64//45 7//45
f 24//19 21//19 66//19
f 4//2 7//2 64//2
f 16//46 6//46 40//46
f 7//2 4//2 6//2
f 38//47 5//47 1//47
f 40//48 6//48 2//48
f 5//2 11//2 12//2
f 11//2 10//2 13//2
f 10//2 9//2 14//2
f 9//2 8//2 15//2
f 8//2 7//2 16//2
f 41//5 53//5 52//5
f 43//6 60//6 59//6
f 39//49 4//49 64//49
f 3//50 12//50 46//50
f 12//51 13//51 47//51
f 13//52 14//52 48//52
f 14//53 15//53 49//53
f 15//54 16//54 50//54
f 41//55 11//55 17//55
f 38//56 51//56 17//56
f 4//16 39//16 36//16
f 1//17 3//17 37//17
f 40//57 23//57 33//57
f 45//20 24//20 66//20
f 23//19 21//19 24//19
f 18//58 22//58 38//58
f 19//59 23//59 40//59
f 29//19 28//19 22//19
f 30//19 27//19 28//19
f 31//19 26//19 27//19
f 32//19 25//19 26//19
f 33//19 24//19 25//19
f 42//22 56//22 55//22
f 43//23 26//23 63//23
f 46//60 29//60 20//60
f 47//61 30//61 29//61
f 48//62 31//62 30//62
f 49//63 32//63 31//63
f 50//64 33//64 32//64
f 34//65 28//65 41//65
f 34//66 51//66 38//66
f 36//16 39//16 21//16
f 18//17 35//17 37//17
f 42//67 10//67 52//67
f 54//68 27//68 42//68
f 41//34 28//34 54//34
f 43//69 9//69 55//69
f 57//70 26//70 43//70
f 42//37 27//37 57//37
f 44//71 8//71 59//71
f 63//72 25//72 44//72
f 65//73 24//73 45//73
f 45//74 7//74 61//74
f 66//49 21//49 39//49
f 44//43 25//43 65//43
f 44//44 62//44 61//44
f 45//45 58//45 64//45
