# Blender v2.78 (sub 0) OBJ File: 'LogCabin AssetPack_Assets.blend'
# www.blender.org
mtllib cabinStairs_2.mtl
o stairs_wood_1
v -0.475000 0.142857 -0.308366
v -0.475000 0.142857 -0.358366
v -0.475000 0.428571 -0.022652
v -0.475000 0.428571 -0.072652
v -0.475000 0.285714 -0.165509
v -0.475000 0.285714 -0.215509
v -0.475000 0.928571 0.498777
v -0.475000 0.785714 0.498777
v -0.475000 0.857143 0.355920
v -0.475000 0.857143 0.405920
v -0.475000 0.714285 0.263062
v -0.475000 0.714285 0.213062
v -0.475000 0.642857 0.120205
v -0.475000 0.642857 0.213062
v -0.475000 0.500000 -0.022652
v -0.475000 0.500000 0.070205
v -0.475000 0.357143 -0.165509
v -0.475000 0.357143 -0.072652
v -0.475000 0.214286 -0.308366
v -0.475000 0.214286 -0.215509
v -0.475000 0.785714 0.263062
v -0.475000 0.785714 0.355920
v -0.475000 0.071428 -0.358366
v -0.475000 0.571428 0.070205
v -0.475000 -0.000000 -0.286938
v -0.475000 0.071428 -0.451223
v -0.475000 -0.000000 -0.451223
v -0.475000 0.571428 0.120205
v -0.475000 0.928571 0.405920
v 0.475000 0.071428 -0.358366
v 0.475000 0.071428 -0.451223
v 0.475000 0.142857 -0.308366
v 0.475000 0.500000 0.070205
v 0.475000 0.571428 0.120205
v 0.475000 0.785714 0.498777
v 0.475000 0.642857 0.213062
v 0.475000 0.357143 -0.165509
v 0.475000 0.357143 -0.072652
v 0.475000 0.285714 -0.215509
v 0.475000 0.214286 -0.215509
v 0.475000 -0.000000 -0.286938
v 0.475000 0.857143 0.405919
v 0.475000 0.785714 0.355919
v 0.475000 0.928571 0.498777
v 0.475000 0.928571 0.405919
v 0.475000 0.714285 0.263062
v 0.475000 0.428571 -0.022652
v 0.475000 0.642857 0.120205
v 0.475000 -0.000000 -0.451223
v 0.475000 0.428571 -0.072652
v 0.475000 0.857143 0.355919
v 0.475000 0.285714 -0.165509
v 0.475000 0.214286 -0.308366
v 0.475000 0.785714 0.263062
v 0.475000 0.142857 -0.358366
v 0.475000 0.571428 0.070205
v 0.475000 0.500000 -0.022652
v 0.475000 0.714285 0.213062
v -0.500000 1.000000 0.498772
v -0.500000 1.000000 0.355915
v -0.500000 0.142857 -0.358370
v -0.500000 0.142857 -0.501228
v -0.500000 0.642857 0.070201
v -0.500000 0.714286 0.070201
v -0.500000 0.928571 0.355915
v -0.500000 0.428571 -0.072656
v -0.500000 0.428571 -0.215513
v -0.500000 0.785714 0.213058
v -0.500000 0.857143 0.213058
v -0.500000 0.285714 -0.215513
v -0.500000 0.285714 -0.358370
v -0.500000 0.357143 -0.215513
v -0.500000 0.071429 -0.501228
v -0.500000 0.071429 -0.358370
v -0.500000 0.928571 0.498772
v -0.500000 0.857143 0.355915
v -0.500000 0.214286 -0.358370
v -0.500000 0.500000 -0.072656
v -0.500000 0.571429 -0.072656
v -0.500000 0.714286 0.213058
v -0.500000 0.214286 -0.215513
v -0.500000 0.357143 -0.072656
v -0.500000 0.571429 0.070201
v -0.500000 0.500000 0.070201
v -0.500000 0.642857 0.213058
v -0.500000 0.785714 0.355915
v 0.500000 0.714286 0.213058
v 0.500000 0.642857 0.213058
v 0.500000 0.857143 0.355915
v 0.500000 0.785714 0.355915
v 0.500000 0.428571 -0.072656
v 0.500000 0.357143 -0.215513
v 0.500000 0.857143 0.213058
v 0.500000 0.285714 -0.215513
v 0.500000 0.214286 -0.215513
v 0.500000 1.000000 0.498772
v 0.500000 1.000000 0.355915
v 0.500000 0.142857 -0.501228
v 0.500000 0.071429 -0.501228
v 0.500000 0.714286 0.070201
v 0.500000 0.285714 -0.358371
v 0.500000 0.785714 0.213058
v 0.500000 0.928571 0.355915
v 0.500000 0.428571 -0.215513
v 0.500000 0.142857 -0.358371
v 0.500000 0.928571 0.498772
v 0.500000 0.642857 0.070201
v 0.500000 0.500000 -0.072656
v 0.500000 0.571429 -0.072656
v 0.500000 0.357143 -0.072656
v 0.500000 0.571429 0.070201
v 0.500000 0.214286 -0.358371
v 0.500000 0.071429 -0.358371
v 0.500000 0.500000 0.070201
vt -0.2857 0.0000
vt -0.4500 0.0714
vt -0.4500 0.0000
vt -0.3571 0.0714
vt 0.5000 0.7857
vt -0.2143 0.2143
vt -0.3071 0.1429
vt -0.3071 0.2143
vt -0.0714 0.3571
vt -0.1643 0.2857
vt -0.0214 0.4286
vt -0.0714 0.4286
vt 0.0714 0.5000
vt 0.1214 0.5714
vt 0.2143 0.6429
vt 0.2643 0.7143
vt 0.0000 0.0000
vt 0.0000 0.0000
vt 0.0000 0.0000
vt 0.2143 0.7143
vt 0.1214 0.6429
vt 0.0714 0.5714
vt -0.0214 0.5000
vt -0.1643 0.3571
vt -0.2143 0.2857
vt 0.0000 0.0000
vt 0.0000 0.0000
vt 0.0000 0.0000
vt 0.0000 0.0000
vt 0.0000 0.0000
vt -0.3571 0.1429
vt -0.2857 0.0000
vt -0.4500 0.0000
vt -0.4500 0.0714
vt -0.3571 0.0714
vt 0.5000 0.7857
vt -0.2143 0.2143
vt -0.3071 0.1429
vt -0.3071 0.2143
vt -0.1643 0.2857
vt -0.0714 0.3571
vt -0.0214 0.4286
vt -0.0714 0.4286
vt 0.0714 0.5000
vt 0.1214 0.5714
vt 0.2143 0.6429
vt 0.2643 0.7143
vt 0.0000 0.0000
vt 0.0000 0.0000
vt 0.0000 0.0000
vt 0.2143 0.7143
vt 0.1214 0.6429
vt 0.0714 0.5714
vt -0.0214 0.5000
vt -0.1643 0.3571
vt -0.2143 0.2857
vt 0.0000 0.0000
vt 0.0000 0.0000
vt 0.0000 0.0000
vt 0.0000 0.0000
vt 0.0000 0.0000
vt -0.3571 0.1429
vt -0.3571 0.1429
vt -0.5000 0.0714
vt -0.3571 0.0714
vt -0.5000 0.1429
vt -0.2143 0.2857
vt -0.3571 0.2143
vt -0.2143 0.2143
vt -0.3571 0.2857
vt -0.0714 0.4286
vt -0.2143 0.3571
vt -0.0714 0.3571
vt -0.2143 0.4286
vt 0.0714 0.5714
vt -0.0714 0.5000
vt 0.0714 0.5000
vt -0.0714 0.5714
vt 0.2143 0.7143
vt 0.0714 0.6429
vt 0.2143 0.6429
vt 0.0714 0.7143
vt 0.3571 0.8571
vt 0.2143 0.7857
vt 0.3571 0.7857
vt 0.2143 0.8571
vt 0.5000 1.0000
vt 0.3571 0.9286
vt 0.5000 0.9286
vt 0.3571 1.0000
vt -0.3571 0.1429
vt -0.3571 0.0714
vt -0.5000 0.0714
vt -0.5000 0.1429
vt -0.2143 0.2857
vt -0.2143 0.2143
vt -0.3571 0.2143
vt -0.3571 0.2857
vt -0.0714 0.4286
vt -0.0714 0.3571
vt -0.2143 0.3571
vt -0.2143 0.4286
vt 0.0714 0.5714
vt 0.0714 0.5000
vt -0.0714 0.5000
vt -0.0714 0.5714
vt 0.2143 0.7143
vt 0.2143 0.6429
vt 0.0714 0.6429
vt 0.0714 0.7143
vt 0.3571 0.8571
vt 0.3571 0.7857
vt 0.2143 0.7857
vt 0.2143 0.8571
vt 0.5000 1.0000
vt 0.5000 0.9286
vt 0.3571 0.9286
vt 0.3571 1.0000
vn -1.0000 0.0000 0.0000
vn -0.9945 -0.0673 -0.0800
vn -0.9945 -0.0654 -0.0815
vn -0.9945 -0.0592 -0.0861
vn -0.9945 -0.0820 -0.0648
vn -0.9945 -0.0518 -0.0908
vn -0.9945 -0.0470 -0.0934
vn -0.9945 -0.0312 -0.0998
vn -0.9945 0.0610 -0.0849
vn -0.9945 -0.0015 -0.1045
vn -0.9945 -0.0628 -0.0835
vn 1.0000 0.0000 0.0000
vn 0.9945 -0.0736 -0.0742
vn 0.9945 -0.0668 -0.0804
vn 0.9945 -0.0625 -0.0837
vn 0.9945 -0.0295 -0.1002
vn 0.9945 -0.0577 -0.0872
vn 0.9945 -0.0512 -0.0911
vn 0.9945 -0.0459 -0.0939
vn 0.9945 0.0034 -0.1045
vn 0.9945 -0.0288 -0.1004
vn 0.9945 -0.0652 -0.0817
vn 0.0000 1.0000 0.0000
vn -0.0000 0.0000 -1.0000
vn 0.0000 -1.0000 0.0000
vn 0.0000 -0.7071 0.7071
vn 0.0037 -0.7771 0.6294
vn 0.0000 0.0000 1.0000
vn -0.1042 -0.7090 0.6974
vn 0.0713 -0.7573 0.6492
usemtl Wood1.002
s off
f 25/1/1 26/2/1 27/3/1
f 26/2/1 25/1/1 23/4/1
f 23/4/1 25/1/1 8/5/2
f 23/4/1 8/5/3 20/6/1
f 23/4/1 20/6/1 1/7/1
f 1/7/1 20/6/1 19/8/1
f 20/6/1 18/9/1 5/10/1
f 18/9/1 8/5/4 3/11/1
f 18/9/1 3/11/1 4/12/1
f 3/11/1 8/5/5 16/13/1
f 16/13/1 8/5/6 28/14/1
f 28/14/1 8/5/7 14/15/1
f 14/15/1 8/5/8 11/16/1
f 21/17/1 11/18/1 22/19/1
f 12/20/1 14/15/1 11/16/1
f 13/21/1 28/14/1 14/15/1
f 24/22/1 16/13/1 28/14/1
f 15/23/1 3/11/1 16/13/1
f 17/24/1 5/10/1 18/9/1
f 6/25/1 20/6/1 5/10/1
f 8/26/1 29/27/1 10/28/1
f 10/28/1 9/29/1 22/19/1
f 22/19/1 8/5/9 10/28/1
f 29/27/1 8/26/1 7/30/1
f 2/31/1 23/4/1 1/7/1
f 11/18/1 8/5/10 22/19/1
f 20/6/1 8/5/11 18/9/1
f 41/32/12 49/33/12 31/34/12
f 31/34/12 30/35/12 41/32/12
f 30/35/12 35/36/13 41/32/12
f 30/35/12 40/37/12 35/36/14
f 30/35/12 32/38/12 40/37/12
f 32/38/12 53/39/12 40/37/12
f 40/37/12 52/40/12 38/41/12
f 38/41/12 47/42/12 35/36/15
f 38/41/12 50/43/12 47/42/12
f 47/42/12 33/44/12 35/36/16
f 33/44/12 34/45/12 35/36/17
f 34/45/12 36/46/12 35/36/18
f 36/46/12 46/47/12 35/36/19
f 54/48/12 43/49/12 46/50/12
f 58/51/12 46/47/12 36/46/12
f 48/52/12 36/46/12 34/45/12
f 56/53/12 34/45/12 33/44/12
f 57/54/12 33/44/12 47/42/12
f 37/55/12 38/41/12 52/40/12
f 39/56/12 52/40/12 40/37/12
f 35/57/12 42/58/12 45/59/12
f 42/58/12 43/49/12 51/60/12
f 43/49/12 42/58/12 35/36/20
f 45/59/12 44/61/12 35/57/12
f 55/62/12 32/38/12 30/35/12
f 46/50/12 43/49/12 35/36/21
f 40/37/12 38/41/12 35/36/22
f 32/38/23 2/31/23 1/7/23
f 40/37/23 19/8/23 20/6/23
f 58/51/24 14/15/24 12/20/24
f 43/49/23 21/17/23 22/19/23
f 57/54/24 3/11/24 15/23/24
f 44/61/23 29/27/23 7/30/23
f 55/62/24 23/4/24 2/31/24
f 46/47/23 12/20/23 11/16/23
f 47/42/23 4/12/23 3/11/23
f 54/48/24 11/18/24 21/17/24
f 56/53/24 16/13/24 24/22/24
f 34/45/23 24/22/23 28/14/23
f 30/35/23 26/2/23 23/4/23
f 45/59/24 10/28/24 29/27/24
f 48/52/24 28/14/24 13/21/24
f 33/44/23 15/23/23 16/13/23
f 49/33/25 25/1/25 27/3/25
f 36/46/23 13/21/23 14/15/23
f 37/55/24 5/10/24 17/24/24
f 41/32/26 8/5/27 25/1/26
f 38/41/23 17/24/23 18/9/23
f 31/34/24 27/3/24 26/2/24
f 50/43/24 18/9/24 4/12/24
f 51/60/24 22/19/24 9/29/24
f 39/56/24 20/6/24 6/25/24
f 35/57/28 7/30/28 8/26/28
f 42/58/23 9/29/23 10/28/23
f 53/39/24 1/7/24 19/8/24
f 52/40/23 6/25/23 5/10/23
f 32/38/23 55/62/23 2/31/23
f 40/37/23 53/39/23 19/8/23
f 58/51/24 36/46/24 14/15/24
f 43/49/23 54/48/23 21/17/23
f 57/54/24 47/42/24 3/11/24
f 44/61/23 45/59/23 29/27/23
f 55/62/24 30/35/24 23/4/24
f 46/47/23 58/51/23 12/20/23
f 47/42/23 50/43/23 4/12/23
f 54/48/24 46/50/24 11/18/24
f 56/53/24 33/44/24 16/13/24
f 34/45/23 56/53/23 24/22/23
f 30/35/23 31/34/23 26/2/23
f 45/59/24 42/58/24 10/28/24
f 48/52/24 34/45/24 28/14/24
f 33/44/23 57/54/23 15/23/23
f 49/33/25 41/32/25 25/1/25
f 36/46/23 48/52/23 13/21/23
f 37/55/24 52/40/24 5/10/24
f 41/32/26 35/36/29 8/5/30
f 38/41/23 37/55/23 17/24/23
f 31/34/24 49/33/24 27/3/24
f 50/43/24 38/41/24 18/9/24
f 51/60/24 43/49/24 22/19/24
f 39/56/24 40/37/24 20/6/24
f 35/57/28 44/61/28 7/30/28
f 42/58/23 51/60/23 9/29/23
f 53/39/24 32/38/24 1/7/24
f 52/40/23 39/56/23 6/25/23
usemtl Wood1.003
f 61/63/1 73/64/1 74/65/1
f 73/64/1 61/63/1 62/66/1
f 70/67/1 77/68/1 81/69/1
f 77/68/1 70/67/1 71/70/1
f 66/71/1 72/72/1 82/73/1
f 72/72/1 66/71/1 67/74/1
f 83/75/1 78/76/1 84/77/1
f 78/76/1 83/75/1 79/78/1
f 80/79/1 63/80/1 85/81/1
f 63/80/1 80/79/1 64/82/1
f 76/83/1 68/84/1 86/85/1
f 68/84/1 76/83/1 69/86/1
f 59/87/1 65/88/1 75/89/1
f 65/88/1 59/87/1 60/90/1
f 105/91/12 113/92/12 99/93/12
f 99/93/12 98/94/12 105/91/12
f 94/95/12 95/96/12 112/97/12
f 112/97/12 101/98/12 94/95/12
f 91/99/12 110/100/12 92/101/12
f 92/101/12 104/102/12 91/99/12
f 111/103/12 114/104/12 108/105/12
f 108/105/12 109/106/12 111/103/12
f 87/107/12 88/108/12 107/109/12
f 107/109/12 100/110/12 87/107/12
f 89/111/12 90/112/12 102/113/12
f 102/113/12 93/114/12 89/111/12
f 96/115/12 106/116/12 103/117/12
f 103/117/12 97/118/12 96/115/12
f 106/116/28 59/87/28 75/89/28
f 89/111/23 69/86/23 76/83/23
f 95/96/28 70/67/28 81/69/28
f 101/98/24 77/68/24 71/70/24
f 109/106/24 78/76/24 79/78/24
f 96/115/23 60/90/23 59/87/23
f 114/104/28 83/75/28 84/77/28
f 92/101/25 82/73/25 72/72/25
f 98/94/24 73/64/24 62/66/24
f 111/103/23 79/78/23 83/75/23
f 87/107/23 64/82/23 80/79/23
f 100/110/24 63/80/24 64/82/24
f 110/100/28 66/71/28 82/73/28
f 94/95/23 71/70/23 70/67/23
f 102/113/25 86/85/25 68/84/25
f 112/97/25 81/69/25 77/68/25
f 97/118/24 65/88/24 60/90/24
f 113/92/28 61/63/28 74/65/28
f 91/99/23 67/74/23 66/71/23
f 108/105/25 84/77/25 78/76/25
f 105/91/23 62/66/23 61/63/23
f 93/114/24 68/84/24 69/86/24
f 104/102/24 72/72/24 67/74/24
f 88/108/28 80/79/28 85/81/28
f 107/109/25 85/81/25 63/80/25
f 103/117/25 75/89/25 65/88/25
f 90/112/28 76/83/28 86/85/28
f 99/93/25 74/65/25 73/64/25
f 106/116/28 96/115/28 59/87/28
f 89/111/23 93/114/23 69/86/23
f 95/96/28 94/95/28 70/67/28
f 101/98/24 112/97/24 77/68/24
f 109/106/24 108/105/24 78/76/24
f 96/115/23 97/118/23 60/90/23
f 114/104/28 111/103/28 83/75/28
f 92/101/25 110/100/25 82/73/25
f 98/94/24 99/93/24 73/64/24
f 111/103/23 109/106/23 79/78/23
f 87/107/23 100/110/23 64/82/23
f 100/110/24 107/109/24 63/80/24
f 110/100/28 91/99/28 66/71/28
f 94/95/23 101/98/23 71/70/23
f 102/113/25 90/112/25 86/85/25
f 112/97/25 95/96/25 81/69/25
f 97/118/24 103/117/24 65/88/24
f 113/92/28 105/91/28 61/63/28
f 91/99/23 104/102/23 67/74/23
f 108/105/25 114/104/25 84/77/25
f 105/91/23 98/94/23 62/66/23
f 93/114/24 102/113/24 68/84/24
f 104/102/24 92/101/24 72/72/24
f 88/108/28 87/107/28 80/79/28
f 107/109/25 88/108/25 85/81/25
f 103/117/25 106/116/25 75/89/25
f 90/112/28 89/111/28 76/83/28
f 99/93/25 113/92/25 74/65/25
