# Blender v2.78 (sub 0) OBJ File: 'LogCabin AssetPack_Assets.blend'
# www.blender.org
mtllib cabinFloor_Wood_1.mtl
o cabinFloor
v 0.500000 0.001350 -0.375664
v 0.500000 0.001350 -0.385213
v -0.500000 0.001350 -0.385213
v -0.500000 0.001350 -0.375664
v 0.500000 0.013536 0.364787
v 0.500000 0.013536 0.249336
v -0.500000 0.013536 0.249336
v -0.500000 0.013536 0.364787
v 0.500000 0.013536 -0.385213
v 0.500000 0.013536 -0.500000
v -0.500000 0.013536 -0.500000
v -0.500000 0.013536 -0.385213
v 0.500000 -0.026464 -0.500000
v -0.500000 -0.026464 -0.500000
v 0.500000 -0.026464 0.249336
v 0.500000 -0.026464 0.374337
v -0.500000 -0.026464 0.374336
v -0.500000 -0.026464 0.249336
v -0.500000 -0.026464 0.500000
v 0.500000 -0.026464 0.500000
v 0.500000 -0.026464 0.124336
v -0.500000 -0.026464 0.124336
v 0.500000 -0.026464 -0.000664
v -0.500000 -0.026464 -0.000664
v 0.500000 -0.026464 -0.125664
v -0.500000 -0.026464 -0.125664
v 0.500000 -0.026464 -0.250664
v -0.500000 -0.026464 -0.250664
v 0.500000 -0.026464 -0.375664
v -0.500000 -0.026464 -0.375664
v 0.500000 0.001350 0.249336
v -0.500000 0.001350 0.249336
v 0.500000 0.001350 0.374336
v 0.500000 0.001350 0.364787
v -0.500000 0.001350 0.364787
v -0.500000 0.001350 0.374336
v 0.500000 0.001350 -0.125664
v -0.500000 0.001350 -0.125664
v -0.500000 0.013536 -0.125664
v 0.500000 0.013536 -0.125664
v 0.500000 0.013536 -0.260213
v 0.500000 0.013536 -0.375664
v -0.500000 0.013536 -0.375664
v -0.500000 0.013536 -0.260213
v -0.500000 0.001350 -0.010213
v 0.500000 0.001350 -0.010213
v 0.500000 0.013536 -0.010213
v -0.500000 0.013536 -0.010213
v 0.500000 0.001350 -0.250664
v 0.500000 0.001350 -0.260213
v -0.500000 0.001350 -0.260213
v -0.500000 0.001350 -0.250664
v 0.500000 0.001350 -0.000664
v -0.500000 0.001350 -0.000664
v 0.500000 0.001350 0.500000
v -0.500000 0.001350 0.500000
v -0.500000 0.013536 -0.250664
v -0.500000 0.001350 -0.135213
v -0.500000 0.001350 0.114787
v -0.500000 0.001350 0.124336
v -0.500000 0.013536 0.114787
v -0.500000 0.013536 -0.000664
v -0.500000 0.013536 -0.135213
v -0.500000 0.013536 0.124336
v -0.500000 0.001350 0.239787
v -0.500000 0.001350 0.489787
v -0.500000 0.013536 0.489787
v -0.500000 0.013536 0.374336
v -0.500000 0.013536 0.239787
v 0.500000 0.013536 0.489787
v 0.500000 0.013536 0.374336
v 0.500000 0.001350 0.489787
v 0.500000 0.001350 0.239787
v 0.500000 0.013536 0.239787
v 0.500000 0.013536 0.124336
v 0.500000 0.001350 0.114787
v 0.500000 0.013536 0.114787
v 0.500000 0.013536 -0.000664
v 0.500000 0.001350 0.124336
v 0.500000 0.001350 -0.135213
v 0.500000 0.013536 -0.135213
v 0.500000 0.013536 -0.250664
vt 0.0000 4.9213
vt 0.0000 4.5453
vt 39.3701 4.5453
vt 39.3701 4.9213
vt 0.0000 34.0729
vt 0.0000 29.5276
vt 39.3701 29.5276
vt 39.3701 34.0729
vt 0.0000 4.5453
vt 0.0000 0.0000
vt 39.3701 0.0000
vt 39.3701 4.5453
vt -39.3701 1.0950
vt 0.0000 1.0950
vt 0.0000 1.5748
vt -39.3701 1.5748
vt 0.0000 0.0000
vt 39.3701 0.0000
vt 39.3701 1.5748
vt 0.0000 1.5748
vt 0.0000 29.5276
vt 0.0000 34.4488
vt -39.3701 34.4488
vt -39.3701 29.5276
vt -39.3701 39.3701
vt 0.0000 39.3701
vt 0.0000 24.6063
vt -39.3701 24.6063
vt 0.0000 19.6850
vt -39.3701 19.6850
vt 0.0000 14.7638
vt -39.3701 14.7638
vt 0.0000 9.8425
vt -39.3701 9.8425
vt 0.0000 4.9213
vt -39.3701 4.9213
vt -39.3701 0.0000
vt 0.0000 1.0950
vt 39.3701 1.0950
vt 39.3701 1.5748
vt 0.0000 1.5748
vt 0.0000 34.4488
vt 0.0000 34.0729
vt 39.3701 34.0729
vt 39.3701 34.4488
vt -39.3701 1.0950
vt 0.0000 1.0950
vt 0.0000 1.5748
vt -39.3701 1.5748
vt 0.0000 1.0950
vt 39.3701 1.0950
vt 39.3701 1.5748
vt 0.0000 1.5748
vt 0.0000 9.4666
vt 0.0000 4.9213
vt 39.3701 4.9213
vt 39.3701 9.4666
vt -39.3701 1.0950
vt 0.0000 1.0950
vt 0.0000 1.5748
vt -39.3701 1.5748
vt 0.0000 9.8425
vt 0.0000 9.4666
vt 39.3701 9.4666
vt 39.3701 9.8425
vt 0.0000 1.0950
vt 39.3701 1.0950
vt 39.3701 1.5748
vt 0.0000 1.5748
vt 0.0000 19.6850
vt 0.0000 19.3091
vt 39.3701 19.3091
vt 39.3701 19.6850
vt -39.3701 1.0950
vt 0.0000 1.0950
vt 0.0000 1.5748
vt -39.3701 1.5748
vt 0.0000 19.3091
vt 0.0000 14.7638
vt 39.3701 14.7638
vt 39.3701 19.3091
vt -39.3701 0.0000
vt 0.0000 0.0000
vt 0.0000 1.0950
vt -39.3701 1.0950
vt -0.0000 1.5748
vt -0.0000 -0.0000
vt 4.9213 -0.0000
vt 4.5453 1.0950
vt 4.9213 1.0950
vt 9.8425 -0.0000
vt 9.4666 1.0950
vt 9.8425 1.0950
vt 9.4666 1.5748
vt 4.9213 1.5748
vt 4.5453 1.5748
vt 14.7638 -0.0000
vt 9.8425 1.5748
vt 14.3878 1.0950
vt 14.7638 1.0950
vt 19.6850 -0.0000
vt 14.7638 1.5748
vt 19.3091 1.0950
vt 19.6850 1.0950
vt 24.6063 -0.0000
vt 24.2304 1.0950
vt 24.6063 1.0950
vt 24.2304 1.5748
vt 19.6850 1.5748
vt 19.3091 1.5748
vt 14.3878 1.5748
vt 29.5276 -0.0000
vt 24.6063 1.5748
vt 29.1516 1.0950
vt 29.5276 1.0950
vt 34.4488 -0.0000
vt 34.0729 1.0950
vt 34.4488 1.0950
vt 39.3701 -0.0000
vt 38.9941 1.0950
vt 39.3701 1.0950
vt 38.9941 1.5748
vt 34.4488 1.5748
vt 34.0729 1.5748
vt 29.5276 1.5748
vt 29.1516 1.5748
vt 0.0000 38.9941
vt 0.0000 34.4488
vt 39.3701 34.4488
vt 39.3701 38.9941
vt 0.0000 1.0950
vt 39.3701 1.0950
vt 39.3701 1.5748
vt 0.0000 1.5748
vt 0.0000 39.3701
vt 0.0000 38.9941
vt 39.3701 38.9941
vt 39.3701 39.3701
vt -34.4488 1.0950
vt -34.4488 1.5748
vt -38.9941 1.5748
vt -38.9941 1.0950
vt -39.3701 0.0000
vt -34.4488 0.0000
vt -34.0729 1.0950
vt -29.5276 0.0000
vt -34.0729 1.5748
vt -29.5276 1.0950
vt -29.5276 1.5748
vt -39.3701 1.0950
vt -29.1516 1.0950
vt -24.6063 0.0000
vt -29.1516 1.5748
vt -24.6063 1.5748
vt -24.2304 1.0950
vt -19.6850 0.0000
vt -24.2304 1.5748
vt -19.6850 1.0950
vt -19.6850 1.5748
vt -24.6063 1.0950
vt -19.3091 1.0950
vt -14.7638 1.5748
vt -14.7638 0.0000
vt -19.3091 1.5748
vt -14.3878 1.0950
vt -9.8425 0.0000
vt -14.3878 1.5748
vt -9.8425 1.5748
vt -14.7638 1.0950
vt -9.4666 1.0950
vt -4.9213 0.0000
vt -9.4666 1.5748
vt -4.9213 1.0950
vt -4.9213 1.5748
vt -9.8425 1.0950
vt -4.5453 1.0950
vt -4.5453 1.5748
vt -39.3701 1.0950
vt 0.0000 1.0950
vt 0.0000 1.5748
vt -39.3701 1.5748
vt 0.0000 1.0950
vt 39.3701 1.0950
vt 39.3701 1.5748
vt 0.0000 1.5748
vt 0.0000 14.3878
vt 0.0000 9.8425
vt 39.3701 9.8425
vt 39.3701 14.3878
vt 0.0000 14.7638
vt 0.0000 14.3878
vt 39.3701 14.3878
vt 39.3701 14.7638
vt -39.3701 1.0950
vt 0.0000 1.0950
vt 0.0000 1.5748
vt -39.3701 1.5748
vt 0.0000 1.0950
vt 39.3701 1.0950
vt 39.3701 1.5748
vt 0.0000 1.5748
vt 0.0000 29.1516
vt 0.0000 24.6063
vt 39.3701 24.6063
vt 39.3701 29.1516
vt -39.3701 1.0950
vt 0.0000 1.0950
vt 0.0000 1.5748
vt -39.3701 1.5748
vt 0.0000 24.2304
vt 0.0000 19.6850
vt 39.3701 19.6850
vt 39.3701 24.2304
vt 0.0000 1.0950
vt 39.3701 1.0950
vt 39.3701 1.5748
vt 0.0000 1.5748
vt 0.0000 24.6063
vt 0.0000 24.2304
vt 39.3701 24.2304
vt 39.3701 24.6063
vt -39.3701 1.0950
vt 0.0000 1.0950
vt 0.0000 1.5748
vt -39.3701 1.5748
vt 0.0000 29.5276
vt 0.0000 29.1516
vt 39.3701 29.1516
vt 39.3701 29.5276
vn 0.0000 1.0000 0.0000
vn 0.0000 0.0000 1.0000
vn 0.0000 0.0000 -1.0000
vn 0.0000 -1.0000 0.0000
vn 0.0000 -0.9848 0.1736
vn 0.1950 -0.9808 -0.0000
vn -0.1723 -0.9848 0.0215
vn -0.1736 -0.9848 -0.0000
vn 0.1935 -0.9808 -0.0242
vn 0.0000 -0.9808 -0.1950
vn 0.0000 -0.9749 0.2225
vn -0.2208 -0.9749 0.0276
vn -0.2225 -0.9749 -0.0000
vn -0.2588 0.0000 -0.9659
vn -0.0338 -0.2566 -0.9659
vn -0.2588 0.0032 -0.9659
vn 0.0000 0.9659 -0.2588
vn 0.3535 0.9239 -0.1464
vn -0.2588 0.9659 -0.0025
vn -0.2566 0.9659 0.0338
vn -1.0000 0.0000 0.0000
vn -0.9808 0.0424 -0.1904
vn -0.9808 0.1845 -0.0633
vn -0.9808 0.1950 0.0000
vn -0.9239 -0.1464 -0.3535
vn -0.9808 -0.0000 0.1950
vn -0.9808 -0.1944 0.0154
vn -0.9808 -0.0571 0.1865
vn -0.9808 -0.0192 0.1941
vn 0.9808 0.1950 0.0000
vn 0.9808 -0.1802 -0.0746
vn 0.9239 -0.2706 -0.2706
vn 1.0000 0.0000 0.0000
vn 0.9848 0.0407 0.1688
vn 0.9848 0.0568 0.1640
vn 0.9239 -0.0747 0.3753
vn 0.9848 0.1736 0.0000
vn 0.9848 0.0000 -0.1736
vn 0.9659 -0.2588 0.0000
vn 0.9848 0.1642 -0.0564
vn 0.9659 -0.0315 0.2569
vn 0.9659 -0.1043 0.2369
vn 0.9749 0.2225 0.0000
vn 0.9659 -0.0023 0.2588
vn 0.9749 0.0000 -0.2225
vn 0.9749 0.2105 -0.0723
vn 0.0000 0.2588 0.9659
vn 0.2706 -0.2706 0.9239
vn 0.0000 0.1736 0.9848
vn 0.1294 -0.2242 0.9659
vn 0.0000 0.2225 0.9749
vn 0.1464 0.3535 -0.9239
vn 0.1939 -0.0213 -0.9808
vn 0.1802 -0.0746 -0.9808
vn -0.0747 -0.3753 -0.9239
vn -0.3753 0.9239 0.0747
vn 0.1939 0.9808 0.0210
vn 0.0177 0.9808 0.1942
usemtl Wood1.004
s off
f 1/1/1 2/2/1 3/3/1
f 3/3/1 4/4/1 1/1/1
f 5/5/1 6/6/1 7/7/1
f 7/7/1 8/8/1 5/5/1
f 9/9/1 10/10/1 11/11/1
f 11/11/1 12/12/1 9/9/1
f 3/13/2 2/14/2 9/15/2
f 9/15/2 12/16/2 3/13/2
f 13/17/3 14/18/3 11/19/3
f 11/19/3 10/20/3 13/17/3
f 15/21/4 16/22/4 17/23/4
f 17/23/4 18/24/4 15/21/4
f 19/25/4 17/23/4 16/22/4
f 16/22/4 20/26/4 19/25/4
f 21/27/5 15/21/4 18/24/4
f 18/24/4 22/28/6 21/27/7
f 23/29/4 21/27/8 22/28/9
f 22/28/10 24/30/4 23/29/4
f 25/31/11 23/29/4 24/30/4
f 24/30/4 26/32/4 25/31/12
f 27/33/5 25/31/13 26/32/4
f 26/32/4 28/34/6 27/33/7
f 29/35/4 27/33/8 28/34/9
f 28/34/10 30/36/4 29/35/4
f 13/17/4 29/35/4 30/36/4
f 30/36/4 14/37/4 13/17/4
f 31/38/3 32/39/3 7/40/3
f 7/40/3 6/41/3 31/38/3
f 33/42/1 34/43/1 35/44/1
f 35/44/1 36/45/1 33/42/1
f 35/46/2 34/47/2 5/48/2
f 5/48/2 8/49/2 35/46/2
f 37/50/14 38/51/3 39/52/3
f 39/52/3 40/53/15 37/50/16
f 41/54/1 42/55/1 43/56/1
f 43/56/1 44/57/1 41/54/1
f 45/58/2 46/59/2 47/60/2
f 47/60/2 48/61/2 45/58/2
f 49/62/17 50/63/1 51/64/1
f 51/64/1 52/65/18 49/62/19
f 1/66/3 4/67/3 43/68/3
f 43/68/3 42/69/3 1/66/3
f 53/70/1 46/71/1 45/72/1
f 45/72/1 54/73/1 53/70/1
f 51/74/2 50/75/2 41/76/2
f 41/76/2 44/77/2 51/74/2
f 47/78/1 40/79/20 39/80/1
f 39/80/1 48/81/1 47/78/1
f 19/82/2 20/83/2 55/84/2
f 55/84/2 56/85/2 19/82/2
f 11/86/21 14/87/21 30/88/21
f 30/88/21 3/89/21 11/86/21
f 30/88/21 4/90/21 3/89/21
f 30/88/21 28/91/22 4/90/21
f 28/91/23 51/92/21 4/90/21
f 28/91/24 52/93/25 51/92/21
f 4/90/21 51/92/21 44/94/21
f 44/94/21 43/95/21 4/90/21
f 11/86/21 3/89/21 12/96/21
f 28/91/26 26/97/21 57/98/27
f 26/97/21 58/99/21 57/98/28
f 26/97/21 38/100/21 58/99/21
f 26/97/21 24/101/21 38/100/21
f 24/101/21 39/102/21 38/100/21
f 24/101/21 45/103/21 39/102/21
f 24/101/21 54/104/21 45/103/21
f 24/101/21 22/105/22 54/104/21
f 22/105/23 59/106/21 54/104/21
f 22/105/24 60/107/25 59/106/21
f 54/104/21 59/106/21 61/108/21
f 61/108/21 62/109/21 54/104/21
f 39/102/21 45/103/21 48/110/21
f 57/98/29 58/99/21 63/111/21
f 22/105/26 18/112/21 64/113/27
f 18/112/21 65/114/21 64/113/28
f 18/112/21 32/115/21 65/114/21
f 18/112/21 17/116/21 32/115/21
f 17/116/21 35/117/21 32/115/21
f 17/116/21 36/118/21 35/117/21
f 17/116/21 19/119/21 36/118/21
f 19/119/21 66/120/21 36/118/21
f 19/119/21 56/121/21 66/120/21
f 36/118/21 66/120/21 67/122/21
f 67/122/21 68/123/21 36/118/21
f 32/115/21 35/117/21 8/124/21
f 8/124/21 7/125/21 32/115/21
f 64/113/29 65/114/21 69/126/21
f 28/91/30 57/98/31 52/93/32
f 22/105/30 64/113/31 60/107/32
f 70/127/1 71/128/1 68/129/1
f 68/129/1 67/130/1 70/127/1
f 33/131/3 36/132/3 68/133/3
f 68/133/3 71/134/3 33/131/3
f 55/135/1 72/136/1 66/137/1
f 66/137/1 56/138/1 55/135/1
f 33/139/33 71/140/33 70/141/33
f 33/139/33 70/141/33 72/142/33
f 33/139/33 72/142/33 20/143/33
f 33/139/33 20/143/33 16/144/33
f 34/145/33 33/139/33 16/144/33
f 34/145/33 16/144/33 15/146/33
f 5/147/33 34/145/33 15/146/33
f 5/147/33 15/146/33 31/148/33
f 31/148/33 6/149/33 5/147/33
f 72/142/33 55/150/33 20/143/33
f 73/151/33 31/148/33 15/146/33
f 73/151/33 15/146/33 21/152/34
f 74/153/33 73/151/33 21/152/35
f 75/154/36 74/153/33 21/152/37
f 76/155/33 21/152/38 23/156/33
f 77/157/33 76/155/33 23/156/33
f 77/157/33 23/156/33 53/158/33
f 53/158/33 78/159/33 77/157/33
f 76/155/33 79/160/39 21/152/40
f 46/161/33 53/158/33 23/156/33
f 40/162/41 46/161/33 23/156/33
f 40/162/42 23/156/33 25/163/43
f 40/162/44 47/164/33 46/161/33
f 80/165/33 25/163/45 27/166/34
f 81/167/33 80/165/33 27/166/35
f 82/168/36 81/167/33 27/166/37
f 80/165/33 37/169/39 25/163/46
f 50/170/33 27/166/38 29/171/33
f 41/172/33 50/170/33 29/171/33
f 41/172/33 29/171/33 1/173/33
f 1/173/33 42/174/33 41/172/33
f 50/170/33 49/175/39 27/166/40
f 2/176/33 1/173/33 29/171/33
f 2/176/33 29/171/33 13/17/33
f 9/177/33 2/176/33 13/17/33
f 13/17/33 10/20/33 9/177/33
f 79/160/47 75/154/48 21/152/49
f 49/175/47 82/168/48 27/166/49
f 37/169/47 40/162/50 25/163/51
f 66/178/2 72/179/2 70/180/2
f 70/180/2 67/181/2 66/178/2
f 49/182/14 52/183/52 57/184/53
f 57/184/54 82/185/55 49/182/16
f 81/186/1 82/187/56 57/188/57
f 57/188/58 63/189/1 81/186/1
f 37/190/17 80/191/1 58/192/1
f 58/192/1 38/193/1 37/190/19
f 58/194/2 80/195/2 81/196/2
f 81/196/2 63/197/2 58/194/2
f 79/198/14 60/199/52 64/200/53
f 64/200/54 75/201/55 79/198/16
f 74/202/1 75/203/56 64/204/57
f 64/204/58 69/205/1 74/202/1
f 65/206/2 73/207/2 74/208/2
f 74/208/2 69/209/2 65/206/2
f 77/210/1 78/211/1 62/212/1
f 62/212/1 61/213/1 77/210/1
f 53/214/3 54/215/3 62/216/3
f 62/216/3 78/217/3 53/214/3
f 79/218/17 76/219/1 59/220/1
f 59/220/1 60/221/18 79/218/19
f 59/222/2 76/223/2 77/224/2
f 77/224/2 61/225/2 59/222/2
f 31/226/1 73/227/1 65/228/1
f 65/228/1 32/229/1 31/226/1
