# Blender v2.78 (sub 0) OBJ File: 'LogCabin AssetPack.blend'
# www.blender.org
mtllib cabinWall_windowSlot.mtl
o Cylinder.001
v 0.498461 0.130880 -0.529160
v 0.498461 0.000000 -0.529160
v 0.498461 0.130880 -0.472211
v 0.498461 0.000000 -0.472211
v -0.498461 0.130880 -0.529160
v -0.498461 0.000000 -0.529160
v -0.498461 0.130880 -0.472211
v -0.498461 0.000000 -0.472211
v 0.499415 0.898981 -0.500000
v -0.499415 0.898981 -0.500000
v 0.499415 0.936903 -0.552195
v -0.499415 0.936903 -0.552195
v 0.499415 1.000000 -0.532258
v -0.499415 1.000000 -0.532258
v 0.499415 1.000000 -0.467742
v -0.499415 1.000000 -0.467742
v 0.499415 0.936903 -0.447805
v -0.499415 0.936903 -0.447805
v 0.499415 0.810094 -0.500000
v -0.499415 0.810094 -0.500000
v 0.499415 0.848015 -0.552195
v -0.499415 0.848015 -0.552195
v 0.499415 0.909374 -0.532258
v -0.499415 0.909374 -0.532258
v 0.499415 0.909374 -0.467742
v -0.499415 0.909374 -0.467742
v 0.499415 0.848015 -0.447805
v -0.499415 0.848015 -0.447805
v 0.499415 0.718937 -0.500000
v -0.499415 0.718937 -0.500000
v 0.499415 0.756859 -0.552195
v -0.499415 0.756859 -0.552195
v 0.499415 0.818217 -0.532258
v -0.499415 0.818217 -0.532258
v 0.499415 0.818217 -0.467742
v -0.499415 0.818217 -0.467742
v 0.499415 0.756859 -0.447805
v -0.499415 0.756859 -0.447805
v 0.499415 0.627781 -0.500000
v -0.499415 0.627781 -0.500000
v 0.499415 0.665702 -0.552195
v -0.499415 0.665702 -0.552195
v 0.499415 0.727061 -0.532258
v -0.499415 0.727061 -0.532258
v 0.499415 0.727061 -0.467742
v -0.499415 0.727061 -0.467742
v 0.499415 0.665702 -0.447805
v -0.499415 0.665702 -0.447805
v 0.499415 0.539156 -0.500000
v -0.499415 0.539156 -0.500000
v 0.499415 0.577078 -0.552195
v -0.499415 0.577078 -0.552195
v 0.499415 0.638436 -0.532258
v -0.499415 0.638436 -0.532258
v 0.499415 0.638436 -0.467742
v -0.499415 0.638436 -0.467742
v 0.499415 0.577078 -0.447805
v -0.499415 0.577078 -0.447805
v 0.499415 0.450532 -0.500000
v -0.499415 0.450532 -0.500000
v 0.499415 0.488453 -0.552195
v -0.499415 0.488453 -0.552195
v 0.499415 0.549812 -0.532258
v -0.499415 0.549812 -0.532258
v 0.499415 0.549812 -0.467742
v -0.499415 0.549812 -0.467742
v 0.499415 0.488453 -0.447805
v -0.499415 0.488453 -0.447805
v 0.499415 0.361907 -0.500000
v -0.499415 0.361907 -0.500000
v 0.499415 0.399829 -0.552195
v -0.499415 0.399829 -0.552195
v 0.499415 0.461188 -0.532258
v -0.499415 0.461188 -0.532258
v 0.499415 0.461188 -0.467742
v -0.499415 0.461188 -0.467742
v 0.499415 0.399829 -0.447805
v -0.499415 0.399829 -0.447805
v 0.499415 0.273283 -0.500000
v -0.499415 0.273283 -0.500000
v 0.499415 0.311205 -0.552195
v -0.499415 0.311205 -0.552195
v 0.499415 0.372563 -0.532258
v -0.499415 0.372563 -0.532258
v 0.499415 0.372563 -0.467742
v -0.499415 0.372563 -0.467742
v 0.499415 0.311205 -0.447805
v -0.499415 0.311205 -0.447805
v 0.499415 0.182126 -0.500000
v -0.499415 0.182126 -0.500000
v 0.499415 0.220048 -0.552195
v -0.499415 0.220048 -0.552195
v 0.499415 0.281407 -0.532258
v -0.499415 0.281407 -0.532258
v 0.499415 0.281407 -0.467742
v -0.499415 0.281407 -0.467742
v 0.499415 0.220048 -0.447805
v -0.499415 0.220048 -0.447805
v 0.499415 0.090970 -0.500000
v -0.499415 0.090970 -0.500000
v 0.499415 0.128891 -0.552195
v -0.499415 0.128891 -0.552195
v 0.499415 0.190250 -0.532258
v -0.499415 0.190250 -0.532258
v 0.499415 0.190250 -0.467742
v -0.499415 0.190250 -0.467742
v 0.499415 0.128891 -0.447805
v -0.499415 0.128891 -0.447805
v 0.200000 0.898981 -0.500000
v 0.200000 0.936903 -0.552195
v 0.200000 1.000000 -0.532258
v 0.200000 1.000000 -0.467742
v 0.200000 0.936903 -0.447805
v 0.200000 0.810094 -0.500000
v 0.200000 0.848015 -0.552195
v 0.200000 0.909374 -0.532258
v 0.200000 0.909374 -0.467742
v 0.200000 0.848015 -0.447805
v 0.200000 0.731298 -0.500000
v 0.200000 0.760678 -0.540439
v 0.200000 0.808217 -0.524993
v 0.200000 0.808217 -0.475007
v 0.200000 0.760678 -0.459561
v 0.200000 0.640141 -0.500000
v 0.200000 0.669522 -0.540439
v 0.200000 0.717061 -0.524993
v 0.200000 0.717061 -0.475007
v 0.200000 0.669522 -0.459561
v 0.200000 0.551517 -0.500000
v 0.200000 0.580897 -0.540439
v 0.200000 0.628436 -0.524993
v 0.200000 0.628436 -0.475007
v 0.200000 0.580897 -0.459561
v 0.200000 0.462892 -0.500000
v 0.200000 0.492273 -0.540439
v 0.200000 0.539812 -0.524993
v 0.200000 0.539812 -0.475007
v 0.200000 0.492273 -0.459561
v 0.200000 0.374268 -0.500000
v 0.200000 0.403649 -0.540439
v 0.200000 0.451188 -0.524993
v 0.200000 0.451188 -0.475007
v 0.200000 0.403649 -0.459561
v 0.200000 0.273283 -0.500000
v 0.200000 0.311205 -0.552195
v 0.200000 0.372563 -0.532258
v 0.200000 0.372563 -0.467742
v 0.200000 0.311205 -0.447805
v 0.200000 0.182126 -0.500000
v 0.200000 0.220048 -0.552195
v 0.200000 0.281407 -0.532258
v 0.200000 0.281407 -0.467742
v 0.200000 0.220048 -0.447805
v 0.200000 0.090970 -0.500000
v 0.200000 0.128891 -0.552195
v 0.200000 0.190250 -0.532258
v 0.200000 0.190250 -0.467742
v 0.200000 0.128891 -0.447805
v 0.200000 0.130880 -0.472211
v 0.200000 0.000000 -0.472211
v 0.200000 0.130880 -0.529160
v 0.200000 0.000000 -0.529160
v -0.199230 0.130880 -0.472211
v -0.199230 0.000000 -0.529160
v -0.199230 0.000000 -0.472211
v -0.199230 0.130880 -0.529160
v -0.199707 0.182126 -0.500000
v -0.199707 0.220048 -0.552195
v -0.199707 0.281407 -0.532258
v -0.199707 0.281407 -0.467742
v -0.199707 0.220048 -0.447805
v -0.199707 0.090970 -0.500000
v -0.199707 0.128891 -0.552195
v -0.199707 0.190250 -0.532258
v -0.199707 0.190250 -0.467742
v -0.199707 0.128891 -0.447805
v -0.199707 0.273283 -0.500000
v -0.199707 0.311205 -0.552195
v -0.199707 0.372563 -0.532258
v -0.199707 0.372563 -0.467742
v -0.199707 0.311205 -0.447805
v -0.199707 0.374268 -0.500000
v -0.199707 0.403649 -0.540439
v -0.199707 0.451188 -0.524993
v -0.199707 0.451188 -0.475007
v -0.199707 0.403649 -0.459561
v -0.199707 0.462892 -0.500000
v -0.199707 0.492273 -0.540439
v -0.199707 0.539812 -0.524993
v -0.199707 0.539812 -0.475007
v -0.199707 0.492273 -0.459561
v -0.199707 0.551517 -0.500000
v -0.199707 0.580897 -0.540439
v -0.199707 0.628436 -0.524993
v -0.199707 0.628436 -0.475007
v -0.199707 0.580897 -0.459561
v -0.199707 0.640141 -0.500000
v -0.199707 0.669522 -0.540439
v -0.199707 0.717061 -0.524993
v -0.199707 0.717061 -0.475007
v -0.199707 0.669522 -0.459561
v -0.199707 0.731298 -0.500000
v -0.199707 0.760678 -0.540439
v -0.199707 0.808217 -0.524993
v -0.199707 0.808217 -0.475007
v -0.199707 0.760678 -0.459561
v -0.199707 0.810094 -0.500000
v -0.199707 0.848015 -0.552195
v -0.199707 0.909374 -0.532258
v -0.199707 0.909374 -0.467742
v -0.199707 0.848015 -0.447805
v -0.199707 0.898981 -0.500000
v -0.199707 0.936903 -0.552195
v -0.199707 1.000000 -0.532258
v -0.199707 1.000000 -0.467742
v -0.199707 0.936903 -0.447805
v -0.199707 0.399829 -0.447805
v -0.199707 0.361907 -0.500000
v -0.199707 0.461188 -0.467742
v -0.199707 0.461188 -0.532258
v -0.199707 0.399829 -0.552195
v -0.199707 0.488453 -0.447805
v -0.199707 0.450532 -0.500000
v -0.199707 0.549812 -0.467742
v -0.199707 0.549812 -0.532258
v -0.199707 0.488453 -0.552195
v -0.199707 0.577078 -0.447805
v -0.199707 0.539156 -0.500000
v -0.199707 0.638436 -0.467742
v -0.199707 0.638436 -0.532258
v -0.199707 0.577078 -0.552195
v -0.199707 0.665702 -0.447805
v -0.199707 0.627781 -0.500000
v -0.199707 0.727061 -0.467742
v -0.199707 0.727061 -0.532258
v -0.199707 0.665702 -0.552195
v -0.199707 0.756859 -0.447805
v -0.199707 0.718937 -0.500000
v -0.199707 0.818217 -0.467742
v -0.199707 0.818217 -0.532258
v -0.199707 0.756859 -0.552195
v 0.200000 0.756859 -0.447805
v 0.200000 0.718937 -0.500000
v 0.200000 0.818217 -0.467742
v 0.200000 0.818217 -0.532258
v 0.200000 0.756859 -0.552195
v 0.200000 0.665702 -0.447805
v 0.200000 0.627781 -0.500000
v 0.200000 0.727061 -0.467742
v 0.200000 0.727061 -0.532258
v 0.200000 0.665702 -0.552195
v 0.200000 0.577078 -0.447805
v 0.200000 0.539156 -0.500000
v 0.200000 0.638436 -0.467742
v 0.200000 0.638436 -0.532258
v 0.200000 0.577078 -0.552195
v 0.200000 0.488453 -0.447805
v 0.200000 0.450532 -0.500000
v 0.200000 0.549812 -0.467742
v 0.200000 0.549812 -0.532258
v 0.200000 0.488453 -0.552195
v 0.200000 0.399829 -0.447805
v 0.200000 0.361907 -0.500000
v 0.200000 0.461188 -0.467742
v 0.200000 0.461188 -0.532258
v 0.200000 0.399829 -0.552195
vn 0.0000 -0.8090 -0.5878
vn 0.0000 0.3013 -0.9535
vn 0.0000 1.0000 0.0000
vn -1.0000 -0.0000 0.0000
vn 0.0000 0.3013 0.9535
vn 0.0000 -0.8090 0.5878
vn 1.0000 0.0000 0.0000
vn 0.0000 0.3090 -0.9511
vn 0.0000 0.3090 0.9511
vn 0.0000 -1.0000 0.0000
vn 0.0000 0.0000 1.0000
vn 0.0000 0.0000 -1.0000
usemtl Wood1
s off
f 10//1 213//1 212//1
f 12//2 214//2 213//2
f 14//3 215//3 214//3
f 18//4 16//4 14//4
f 16//5 216//5 215//5
f 216//6 10//6 212//6
f 11//7 15//7 17//7
f 207//1 22//1 208//1
f 22//8 209//8 208//8
f 24//3 210//3 209//3
f 28//4 26//4 24//4
f 26//9 211//9 210//9
f 211//6 20//6 207//6
f 21//7 25//7 19//7
f 30//1 241//1 238//1
f 32//8 240//8 241//8
f 34//3 239//3 240//3
f 38//4 36//4 34//4
f 36//9 237//9 239//9
f 237//6 30//6 238//6
f 31//7 35//7 29//7
f 40//1 236//1 233//1
f 42//8 235//8 236//8
f 44//3 234//3 235//3
f 48//4 46//4 44//4
f 46//9 232//9 234//9
f 232//6 40//6 233//6
f 41//7 45//7 39//7
f 50//1 231//1 228//1
f 52//8 230//8 231//8
f 54//3 229//3 230//3
f 58//4 56//4 54//4
f 56//9 227//9 229//9
f 227//6 50//6 228//6
f 51//7 55//7 49//7
f 60//1 226//1 223//1
f 226//8 64//8 225//8
f 64//3 224//3 225//3
f 68//4 66//4 64//4
f 66//9 222//9 224//9
f 222//6 60//6 223//6
f 61//7 65//7 59//7
f 70//1 221//1 218//1
f 221//8 74//8 220//8
f 74//3 219//3 220//3
f 78//4 76//4 74//4
f 76//9 217//9 219//9
f 217//6 70//6 218//6
f 71//7 75//7 69//7
f 80//1 178//1 177//1
f 178//8 84//8 179//8
f 84//3 180//3 179//3
f 88//4 86//4 84//4
f 86//9 181//9 180//9
f 181//6 80//6 177//6
f 81//7 85//7 79//7
f 167//1 92//1 168//1
f 92//8 169//8 168//8
f 94//3 170//3 169//3
f 98//4 96//4 94//4
f 96//9 171//9 170//9
f 171//6 90//6 167//6
f 91//7 95//7 97//7
f 172//1 102//1 173//1
f 173//8 104//8 174//8
f 104//3 175//3 174//3
f 108//4 106//4 104//4
f 106//9 176//9 175//9
f 176//6 100//6 172//6
f 101//7 105//7 99//7
f 17//6 109//6 9//6
f 112//5 17//5 15//5
f 111//3 15//3 13//3
f 110//2 13//2 11//2
f 109//1 11//1 9//1
f 27//6 114//6 19//6
f 117//9 27//9 25//9
f 116//3 25//3 23//3
f 115//8 23//8 21//8
f 114//1 21//1 19//1
f 37//6 243//6 29//6
f 244//9 37//9 35//9
f 245//3 35//3 33//3
f 246//8 33//8 31//8
f 243//1 31//1 29//1
f 47//6 248//6 39//6
f 249//9 47//9 45//9
f 250//3 45//3 43//3
f 251//8 43//8 41//8
f 248//1 41//1 39//1
f 57//6 253//6 49//6
f 254//9 57//9 55//9
f 255//3 55//3 53//3
f 256//8 53//8 51//8
f 253//1 51//1 49//1
f 67//6 258//6 59//6
f 259//9 67//9 65//9
f 260//3 65//3 63//3
f 261//8 63//8 61//8
f 258//1 61//1 59//1
f 77//6 263//6 69//6
f 264//9 77//9 75//9
f 265//3 75//3 73//3
f 266//8 73//8 71//8
f 263//1 71//1 69//1
f 87//6 144//6 79//6
f 147//9 87//9 85//9
f 146//3 85//3 83//3
f 145//8 83//8 81//8
f 144//1 81//1 79//1
f 97//6 149//6 89//6
f 152//9 97//9 95//9
f 151//3 95//3 93//3
f 150//8 93//8 91//8
f 149//1 91//1 89//1
f 107//6 154//6 99//6
f 157//9 107//9 105//9
f 156//3 105//3 103//3
f 155//8 103//8 101//8
f 154//1 101//1 99//1
f 153//6 167//6 149//6
f 170//9 153//9 152//9
f 169//3 152//3 151//3
f 168//8 151//8 150//8
f 167//1 150//1 149//1
f 158//6 172//6 154//6
f 175//9 158//9 157//9
f 174//3 157//3 156//3
f 173//8 156//8 155//8
f 172//1 155//1 154//1
f 148//6 177//6 144//6
f 180//9 148//9 147//9
f 178//8 146//8 145//8
f 177//1 145//1 144//1
f 179//3 147//3 146//3
f 118//6 207//6 114//6
f 210//9 118//9 117//9
f 209//3 117//3 116//3
f 208//8 116//8 115//8
f 207//1 115//1 114//1
f 113//6 212//6 109//6
f 215//5 113//5 112//5
f 214//3 112//3 111//3
f 213//2 111//2 110//2
f 212//1 110//1 109//1
f 182//7 217//7 218//7
f 185//7 217//7 186//7
f 184//7 219//7 185//7
f 183//7 220//7 184//7
f 183//7 218//7 221//7
f 187//7 222//7 223//7
f 190//7 222//7 191//7
f 189//7 224//7 190//7
f 188//7 225//7 189//7
f 188//7 223//7 226//7
f 196//7 228//7 192//7
f 195//7 227//7 196//7
f 194//7 229//7 195//7
f 193//7 230//7 194//7
f 193//7 228//7 231//7
f 201//7 233//7 197//7
f 200//7 232//7 201//7
f 199//7 234//7 200//7
f 198//7 235//7 199//7
f 198//7 233//7 236//7
f 206//7 238//7 202//7
f 205//7 237//7 206//7
f 204//7 239//7 205//7
f 203//7 240//7 204//7
f 203//7 238//7 241//7
f 123//4 243//4 242//4
f 122//4 242//4 244//4
f 121//4 244//4 245//4
f 121//4 246//4 120//4
f 120//4 243//4 119//4
f 128//4 248//4 247//4
f 127//4 247//4 249//4
f 126//4 249//4 250//4
f 126//4 251//4 125//4
f 125//4 248//4 124//4
f 133//4 253//4 252//4
f 132//4 252//4 254//4
f 131//4 254//4 255//4
f 131//4 256//4 130//4
f 130//4 253//4 129//4
f 134//4 257//4 138//4
f 137//4 257//4 259//4
f 136//4 259//4 260//4
f 135//4 260//4 261//4
f 135//4 258//4 134//4
f 139//4 262//4 143//4
f 142//4 262//4 264//4
f 141//4 264//4 265//4
f 140//4 265//4 266//4
f 140//4 263//4 139//4
f 10//1 12//1 213//1
f 12//2 14//2 214//2
f 14//3 16//3 215//3
f 14//4 12//4 18//4
f 10//4 18//4 12//4
f 16//5 18//5 216//5
f 216//6 18//6 10//6
f 17//7 9//7 11//7
f 11//7 13//7 15//7
f 207//1 20//1 22//1
f 22//8 24//8 209//8
f 24//3 26//3 210//3
f 24//4 22//4 20//4
f 20//4 28//4 24//4
f 26//9 28//9 211//9
f 211//6 28//6 20//6
f 27//7 19//7 25//7
f 21//7 23//7 25//7
f 30//1 32//1 241//1
f 32//8 34//8 240//8
f 34//3 36//3 239//3
f 34//4 32//4 30//4
f 30//4 38//4 34//4
f 36//9 38//9 237//9
f 237//6 38//6 30//6
f 37//7 29//7 35//7
f 31//7 33//7 35//7
f 40//1 42//1 236//1
f 42//8 44//8 235//8
f 44//3 46//3 234//3
f 44//4 42//4 40//4
f 40//4 48//4 44//4
f 46//9 48//9 232//9
f 232//6 48//6 40//6
f 47//7 39//7 45//7
f 41//7 43//7 45//7
f 50//1 52//1 231//1
f 52//8 54//8 230//8
f 54//3 56//3 229//3
f 54//4 52//4 50//4
f 50//4 58//4 54//4
f 56//9 58//9 227//9
f 227//6 58//6 50//6
f 57//7 49//7 55//7
f 51//7 53//7 55//7
f 60//1 62//1 226//1
f 226//8 62//8 64//8
f 64//3 66//3 224//3
f 64//4 62//4 60//4
f 60//4 68//4 64//4
f 66//9 68//9 222//9
f 222//6 68//6 60//6
f 67//7 59//7 65//7
f 61//7 63//7 65//7
f 70//1 72//1 221//1
f 221//8 72//8 74//8
f 74//3 76//3 219//3
f 74//4 72//4 70//4
f 70//4 78//4 74//4
f 76//9 78//9 217//9
f 217//6 78//6 70//6
f 77//7 69//7 75//7
f 71//7 73//7 75//7
f 80//1 82//1 178//1
f 178//8 82//8 84//8
f 84//3 86//3 180//3
f 84//4 82//4 80//4
f 80//4 88//4 84//4
f 86//9 88//9 181//9
f 181//6 88//6 80//6
f 87//7 79//7 85//7
f 81//7 83//7 85//7
f 167//1 90//1 92//1
f 92//8 94//8 169//8
f 94//3 96//3 170//3
f 94//4 92//4 90//4
f 90//4 98//4 94//4
f 96//9 98//9 171//9
f 171//6 98//6 90//6
f 97//7 89//7 91//7
f 91//7 93//7 95//7
f 172//1 100//1 102//1
f 173//8 102//8 104//8
f 104//3 106//3 175//3
f 104//4 102//4 100//4
f 100//4 108//4 104//4
f 106//9 108//9 176//9
f 176//6 108//6 100//6
f 107//7 99//7 105//7
f 101//7 103//7 105//7
f 17//6 113//6 109//6
f 112//5 113//5 17//5
f 111//3 112//3 15//3
f 110//2 111//2 13//2
f 109//1 110//1 11//1
f 27//6 118//6 114//6
f 117//9 118//9 27//9
f 116//3 117//3 25//3
f 115//8 116//8 23//8
f 114//1 115//1 21//1
f 37//6 242//6 243//6
f 244//9 242//9 37//9
f 245//3 244//3 35//3
f 246//8 245//8 33//8
f 243//1 246//1 31//1
f 47//6 247//6 248//6
f 249//9 247//9 47//9
f 250//3 249//3 45//3
f 251//8 250//8 43//8
f 248//1 251//1 41//1
f 57//6 252//6 253//6
f 254//9 252//9 57//9
f 255//3 254//3 55//3
f 256//8 255//8 53//8
f 253//1 256//1 51//1
f 67//6 257//6 258//6
f 259//9 257//9 67//9
f 260//3 259//3 65//3
f 261//8 260//8 63//8
f 258//1 261//1 61//1
f 77//6 262//6 263//6
f 264//9 262//9 77//9
f 265//3 264//3 75//3
f 266//8 265//8 73//8
f 263//1 266//1 71//1
f 87//6 148//6 144//6
f 147//9 148//9 87//9
f 146//3 147//3 85//3
f 145//8 146//8 83//8
f 144//1 145//1 81//1
f 97//6 153//6 149//6
f 152//9 153//9 97//9
f 151//3 152//3 95//3
f 150//8 151//8 93//8
f 149//1 150//1 91//1
f 107//6 158//6 154//6
f 157//9 158//9 107//9
f 156//3 157//3 105//3
f 155//8 156//8 103//8
f 154//1 155//1 101//1
f 153//6 171//6 167//6
f 170//9 171//9 153//9
f 169//3 170//3 152//3
f 168//8 169//8 151//8
f 167//1 168//1 150//1
f 158//6 176//6 172//6
f 175//9 176//9 158//9
f 174//3 175//3 157//3
f 173//8 174//8 156//8
f 172//1 173//1 155//1
f 148//6 181//6 177//6
f 180//9 181//9 148//9
f 178//8 179//8 146//8
f 177//1 178//1 145//1
f 179//3 180//3 147//3
f 118//6 211//6 207//6
f 210//9 211//9 118//9
f 209//3 210//3 117//3
f 208//8 209//8 116//8
f 207//1 208//1 115//1
f 113//6 216//6 212//6
f 215//5 216//5 113//5
f 214//3 215//3 112//3
f 213//2 214//2 111//2
f 212//1 213//1 110//1
f 182//7 186//7 217//7
f 185//7 219//7 217//7
f 184//7 220//7 219//7
f 183//7 221//7 220//7
f 183//7 182//7 218//7
f 187//7 191//7 222//7
f 190//7 224//7 222//7
f 189//7 225//7 224//7
f 188//7 226//7 225//7
f 188//7 187//7 223//7
f 196//7 227//7 228//7
f 195//7 229//7 227//7
f 194//7 230//7 229//7
f 193//7 231//7 230//7
f 193//7 192//7 228//7
f 201//7 232//7 233//7
f 200//7 234//7 232//7
f 199//7 235//7 234//7
f 198//7 236//7 235//7
f 198//7 197//7 233//7
f 206//7 237//7 238//7
f 205//7 239//7 237//7
f 204//7 240//7 239//7
f 203//7 241//7 240//7
f 203//7 202//7 238//7
f 123//4 119//4 243//4
f 122//4 123//4 242//4
f 121//4 122//4 244//4
f 121//4 245//4 246//4
f 120//4 246//4 243//4
f 128//4 124//4 248//4
f 127//4 128//4 247//4
f 126//4 127//4 249//4
f 126//4 250//4 251//4
f 125//4 251//4 248//4
f 133//4 129//4 253//4
f 132//4 133//4 252//4
f 131//4 132//4 254//4
f 131//4 255//4 256//4
f 130//4 256//4 253//4
f 134//4 258//4 257//4
f 137//4 138//4 257//4
f 136//4 137//4 259//4
f 135//4 136//4 260//4
f 135//4 261//4 258//4
f 139//4 263//4 262//4
f 142//4 143//4 262//4
f 141//4 142//4 264//4
f 140//4 141//4 265//4
f 140//4 266//4 263//4
usemtl Wood1.001
f 182//7 184//7 186//7
f 187//7 189//7 191//7
f 192//7 194//7 195//7
f 197//7 199//7 200//7
f 202//7 204//7 205//7
f 121//4 120//4 119//4
f 126//4 125//4 124//4
f 131//4 130//4 129//4
f 137//4 135//4 138//4
f 142//4 140//4 143//4
f 185//7 186//7 184//7
f 182//7 183//7 184//7
f 190//7 191//7 189//7
f 187//7 188//7 189//7
f 195//7 196//7 192//7
f 192//7 193//7 194//7
f 200//7 201//7 197//7
f 197//7 198//7 199//7
f 205//7 206//7 202//7
f 202//7 203//7 204//7
f 119//4 123//4 122//4
f 122//4 121//4 119//4
f 124//4 128//4 127//4
f 127//4 126//4 124//4
f 129//4 133//4 132//4
f 132//4 131//4 129//4
f 134//4 138//4 135//4
f 137//4 136//4 135//4
f 139//4 143//4 140//4
f 142//4 141//4 140//4
usemtl Wood1.002
f 5//3 163//3 166//3
f 2//10 160//10 162//10
f 163//11 8//11 165//11
f 1//7 4//7 2//7
f 161//12 2//12 162//12
f 7//4 6//4 8//4
f 166//12 162//12 164//12
f 3//11 160//11 4//11
f 162//10 165//10 164//10
f 161//3 3//3 1//3
f 164//10 8//10 6//10
f 5//12 164//12 6//12
f 159//11 165//11 160//11
f 166//3 159//3 161//3
f 5//3 7//3 163//3
f 2//10 4//10 160//10
f 163//11 7//11 8//11
f 1//7 3//7 4//7
f 161//12 1//12 2//12
f 7//4 5//4 6//4
f 166//12 161//12 162//12
f 3//11 159//11 160//11
f 162//10 160//10 165//10
f 161//3 159//3 3//3
f 164//10 165//10 8//10
f 5//12 166//12 164//12
f 159//11 163//11 165//11
f 166//3 163//3 159//3
