# Blender v2.78 (sub 0) OBJ File: 'LogCabin AssetPack_Assets.blend'
# www.blender.org
mtllib cabinBanister_Stairs_Right_1.mtl
o Plane.002_Plane.005
v -0.502244 0.000000 -0.550000
v -0.502244 1.050000 0.500000
v -0.502244 0.000000 -0.400000
v -0.502244 0.900000 0.500000
v -0.502244 0.112500 -0.287500
v -0.502244 0.225000 -0.175000
v -0.502244 0.337500 -0.062500
v -0.502244 0.450000 0.050000
v -0.502244 0.562500 0.162500
v -0.502244 0.675000 0.275000
v -0.502244 0.787500 0.387500
v -0.450000 0.000000 -0.400000
v -0.450000 0.000000 -0.550000
v -0.450000 1.050000 0.500000
v -0.450000 0.900000 0.500000
v -0.450000 0.787500 0.387500
v -0.450000 0.112500 -0.287500
v -0.450000 0.225000 -0.175000
v -0.450000 0.337500 -0.062500
v -0.450000 0.450000 0.050000
v -0.450000 0.562500 0.162500
v -0.450000 0.675000 0.275000
v -0.476120 0.196522 -0.421257
v -0.476120 0.364075 -0.415127
v -0.455904 0.196522 -0.406569
v -0.455904 0.374394 -0.404675
v -0.463626 0.196522 -0.382803
v -0.463626 0.391090 -0.387762
v -0.488614 0.196522 -0.382803
v -0.488614 0.391090 -0.387762
v -0.496336 0.196522 -0.406569
v -0.496336 0.374394 -0.404675
v -0.502244 0.220330 -0.550000
v -0.502244 1.270330 0.500000
v -0.450000 0.220330 -0.550000
v -0.450000 1.270330 0.500000
v -0.493464 0.256611 -0.543792
v -0.502244 0.240411 -0.550000
v -0.502244 1.290411 0.500000
v -0.493464 1.294194 0.493792
v -0.450000 0.240411 -0.550000
v -0.458780 0.256611 -0.543792
v -0.458780 1.294194 0.493792
v -0.450000 1.290411 0.500000
v -0.496423 0.081602 -0.545884
v -0.502244 0.070862 -0.550000
v -0.502244 1.120862 0.500000
v -0.496423 1.123371 0.495884
v -0.450000 0.070862 -0.550000
v -0.455821 0.081602 -0.545884
v -0.455821 1.123371 0.495884
v -0.450000 1.120862 0.500000
v -0.476120 0.296522 -0.321257
v -0.476120 0.464075 -0.315127
v -0.455904 0.296522 -0.306569
v -0.455904 0.474394 -0.304675
v -0.463626 0.296522 -0.282803
v -0.463626 0.491090 -0.287762
v -0.488614 0.296522 -0.282803
v -0.488614 0.491090 -0.287762
v -0.496336 0.296522 -0.306569
v -0.496336 0.474394 -0.304675
v -0.476120 0.396522 -0.221257
v -0.476120 0.564075 -0.215127
v -0.455904 0.396522 -0.206569
v -0.455904 0.574394 -0.204675
v -0.463626 0.396522 -0.182803
v -0.463626 0.591090 -0.187762
v -0.488614 0.396522 -0.182803
v -0.488614 0.591090 -0.187762
v -0.496336 0.396522 -0.206569
v -0.496336 0.574394 -0.204675
v -0.476120 0.496522 -0.121257
v -0.476120 0.664075 -0.115127
v -0.455904 0.496522 -0.106569
v -0.455904 0.674394 -0.104675
v -0.463626 0.496522 -0.082803
v -0.463626 0.691090 -0.087762
v -0.488614 0.496522 -0.082803
v -0.488614 0.691090 -0.087762
v -0.496336 0.496522 -0.106569
v -0.496336 0.674394 -0.104675
v -0.476120 0.596522 -0.021257
v -0.476120 0.764075 -0.015127
v -0.455904 0.596522 -0.006569
v -0.455904 0.774394 -0.004675
v -0.463626 0.596522 0.017197
v -0.463626 0.791090 0.012238
v -0.488614 0.596522 0.017197
v -0.488614 0.791090 0.012238
v -0.496336 0.596522 -0.006569
v -0.496336 0.774394 -0.004675
v -0.476120 0.696522 0.078743
v -0.476120 0.864075 0.084873
v -0.455904 0.696522 0.093431
v -0.455904 0.874394 0.095325
v -0.463626 0.696522 0.117197
v -0.463626 0.891090 0.112238
v -0.488614 0.696522 0.117197
v -0.488614 0.891090 0.112238
v -0.496336 0.696522 0.093431
v -0.496336 0.874394 0.095325
v -0.476120 0.796522 0.178743
v -0.476120 0.964075 0.184873
v -0.455904 0.796522 0.193431
v -0.455904 0.974394 0.195325
v -0.463626 0.796522 0.217197
v -0.463626 0.991090 0.212238
v -0.488614 0.796522 0.217197
v -0.488614 0.991090 0.212238
v -0.496336 0.796522 0.193431
v -0.496336 0.974394 0.195325
v -0.476120 0.896523 0.278743
v -0.476120 1.064075 0.284873
v -0.455904 0.896523 0.293431
v -0.455904 1.074394 0.295325
v -0.463626 0.896523 0.317197
v -0.463626 1.091090 0.312238
v -0.488614 0.896523 0.317197
v -0.488614 1.091090 0.312238
v -0.496336 0.896523 0.293431
v -0.496336 1.074394 0.295325
v -0.476120 0.996523 0.378743
v -0.476120 1.164075 0.384873
v -0.455904 0.996523 0.393431
v -0.455904 1.174394 0.395325
v -0.463626 0.996523 0.417197
v -0.463626 1.191090 0.412238
v -0.488614 0.996523 0.417197
v -0.488614 1.191090 0.412238
v -0.496336 0.996523 0.393431
v -0.496336 1.174394 0.395325
vn -1.0000 0.0000 0.0000
vn 1.0000 0.0000 0.0000
vn 0.0000 -0.7071 0.7071
vn 0.0000 -1.0000 0.0000
vn 0.0000 0.0000 1.0000
vn 0.0000 0.0000 -1.0000
vn -0.6269 0.5509 -0.5509
vn 0.6269 0.5509 -0.5509
vn 0.0000 0.8539 0.5204
vn 0.0000 0.3578 -0.9338
vn 0.0000 0.7071 -0.7071
vn 0.0000 0.8539 0.5205
vn 0.5875 0.0296 -0.8087
vn 0.9511 -0.0033 0.3090
vn 0.0000 0.0255 0.9997
vn 0.0000 0.7116 -0.7025
vn -0.9511 -0.0033 0.3090
vn -0.5875 0.0296 -0.8087
vn 0.0000 0.7117 -0.7025
vn 0.4554 0.0095 -0.8902
vn 0.9134 0.0104 0.4068
vn -0.9134 0.0104 0.4068
vn -0.4554 0.0095 -0.8902
usemtl Wood1.002
s off
f 7//1 8//1 1//1
f 20//2 19//2 13//2
f 6//3 19//3 7//3
f 11//3 15//3 4//3
f 10//3 16//3 11//3
f 7//3 20//3 8//3
f 3//3 17//3 5//3
f 14//2 49//2 52//2
f 1//4 12//4 3//4
f 8//3 21//3 9//3
f 5//3 18//3 6//3
f 4//5 14//5 2//5
f 9//3 22//3 10//3
f 1//6 49//6 13//6
f 2//1 46//1 1//1
f 14//5 47//5 2//5
f 35//3 34//3 33//3
f 33//6 41//6 35//6
f 34//1 38//1 33//1
f 36//2 41//2 44//2
f 36//5 39//5 34//5
f 39//7 37//7 38//7
f 42//8 44//8 41//8
f 44//9 40//9 39//9
f 38//10 42//10 41//10
f 37//11 43//11 42//11
f 47//7 45//7 46//7
f 50//8 52//8 49//8
f 47//12 51//12 48//12
f 46//10 50//10 49//10
f 48//11 50//11 45//11
f 2//1 1//1 8//1
f 1//1 3//1 5//1
f 11//1 4//1 2//1
f 8//1 9//1 2//1
f 10//1 11//1 2//1
f 1//1 5//1 6//1
f 6//1 7//1 1//1
f 9//1 10//1 2//1
f 12//2 13//2 17//2
f 14//2 15//2 16//2
f 16//2 22//2 14//2
f 21//2 20//2 14//2
f 19//2 18//2 13//2
f 22//2 21//2 14//2
f 17//2 13//2 18//2
f 20//2 13//2 14//2
f 6//3 18//3 19//3
f 11//3 16//3 15//3
f 10//3 22//3 16//3
f 7//3 19//3 20//3
f 3//3 12//3 17//3
f 14//2 13//2 49//2
f 1//4 13//4 12//4
f 8//3 20//3 21//3
f 5//3 17//3 18//3
f 4//5 15//5 14//5
f 9//3 21//3 22//3
f 1//6 46//6 49//6
f 2//1 47//1 46//1
f 14//5 52//5 47//5
f 35//3 36//3 34//3
f 33//6 38//6 41//6
f 34//1 39//1 38//1
f 36//2 35//2 41//2
f 36//5 44//5 39//5
f 39//7 40//7 37//7
f 42//8 43//8 44//8
f 44//9 43//9 40//9
f 38//10 37//10 42//10
f 37//11 40//11 43//11
f 47//7 48//7 45//7
f 50//8 51//8 52//8
f 47//9 52//9 51//9
f 46//10 45//10 50//10
f 48//11 51//11 50//11
usemtl Wood1
f 24//13 25//13 23//13
f 26//14 27//14 25//14
f 28//15 29//15 27//15
f 32//16 30//16 28//16
f 29//17 32//17 31//17
f 31//18 24//18 23//18
f 25//4 29//4 31//4
f 54//13 55//13 53//13
f 56//14 57//14 55//14
f 58//15 59//15 57//15
f 62//16 60//16 58//16
f 59//17 62//17 61//17
f 61//18 54//18 53//18
f 55//4 59//4 61//4
f 64//13 65//13 63//13
f 66//14 67//14 65//14
f 68//15 69//15 67//15
f 72//19 70//19 68//19
f 69//17 72//17 71//17
f 71//18 64//18 63//18
f 65//4 69//4 71//4
f 74//13 75//13 73//13
f 76//14 77//14 75//14
f 78//15 79//15 77//15
f 82//16 80//16 78//16
f 79//17 82//17 81//17
f 81//18 74//18 73//18
f 75//4 79//4 81//4
f 84//13 85//13 83//13
f 86//14 87//14 85//14
f 88//15 89//15 87//15
f 84//16 90//16 88//16
f 89//17 92//17 91//17
f 91//18 84//18 83//18
f 85//4 89//4 91//4
f 94//13 95//13 93//13
f 96//14 97//14 95//14
f 98//15 99//15 97//15
f 94//16 100//16 98//16
f 99//17 102//17 101//17
f 101//18 94//18 93//18
f 95//4 99//4 101//4
f 104//13 105//13 103//13
f 106//14 107//14 105//14
f 108//15 109//15 107//15
f 112//16 110//16 108//16
f 109//17 112//17 111//17
f 111//18 104//18 103//18
f 105//4 109//4 111//4
f 114//13 115//13 113//13
f 116//14 117//14 115//14
f 118//15 119//15 117//15
f 122//16 120//16 118//16
f 119//17 122//17 121//17
f 121//18 114//18 113//18
f 115//4 119//4 121//4
f 124//13 125//13 123//13
f 126//14 127//14 125//14
f 128//15 129//15 127//15
f 132//19 130//19 128//19
f 129//17 132//17 131//17
f 131//18 124//18 123//18
f 125//4 129//4 131//4
f 24//20 26//20 25//20
f 26//21 28//21 27//21
f 28//15 30//15 29//15
f 28//16 26//16 24//16
f 24//16 32//16 28//16
f 29//22 30//22 32//22
f 31//23 32//23 24//23
f 31//4 23//4 25//4
f 25//4 27//4 29//4
f 54//20 56//20 55//20
f 56//21 58//21 57//21
f 58//15 60//15 59//15
f 58//16 56//16 54//16
f 54//16 62//16 58//16
f 59//22 60//22 62//22
f 61//23 62//23 54//23
f 61//4 53//4 55//4
f 55//4 57//4 59//4
f 64//20 66//20 65//20
f 66//21 68//21 67//21
f 68//15 70//15 69//15
f 68//16 66//16 64//16
f 64//16 72//16 68//16
f 69//22 70//22 72//22
f 71//23 72//23 64//23
f 71//4 63//4 65//4
f 65//4 67//4 69//4
f 74//20 76//20 75//20
f 76//21 78//21 77//21
f 78//15 80//15 79//15
f 78//16 76//16 74//16
f 74//16 82//16 78//16
f 79//22 80//22 82//22
f 81//23 82//23 74//23
f 81//4 73//4 75//4
f 75//4 77//4 79//4
f 84//20 86//20 85//20
f 86//21 88//21 87//21
f 88//15 90//15 89//15
f 88//16 86//16 84//16
f 84//16 92//16 90//16
f 89//22 90//22 92//22
f 91//23 92//23 84//23
f 91//4 83//4 85//4
f 85//4 87//4 89//4
f 94//20 96//20 95//20
f 96//21 98//21 97//21
f 98//15 100//15 99//15
f 98//16 96//16 94//16
f 94//16 102//16 100//16
f 99//22 100//22 102//22
f 101//23 102//23 94//23
f 101//4 93//4 95//4
f 95//4 97//4 99//4
f 104//20 106//20 105//20
f 106//21 108//21 107//21
f 108//15 110//15 109//15
f 108//16 106//16 104//16
f 104//16 112//16 108//16
f 109//22 110//22 112//22
f 111//23 112//23 104//23
f 111//4 103//4 105//4
f 105//4 107//4 109//4
f 114//20 116//20 115//20
f 116//21 118//21 117//21
f 118//15 120//15 119//15
f 118//16 116//16 114//16
f 114//16 122//16 118//16
f 119//22 120//22 122//22
f 121//23 122//23 114//23
f 121//4 113//4 115//4
f 115//4 117//4 119//4
f 124//20 126//20 125//20
f 126//21 128//21 127//21
f 128//15 130//15 129//15
f 128//19 126//19 124//19
f 124//16 132//16 128//16
f 129//22 130//22 132//22
f 131//23 132//23 124//23
f 131//4 123//4 125//4
f 125//4 127//4 129//4
