# Blender v2.78 (sub 0) OBJ File: 'LogCabin AssetPack_Assets.blend'
# www.blender.org
mtllib cabinRoof_1.mtl
o Cube.007_Cube.016
v -0.500000 0.000000 -0.532101
v 0.500000 0.000000 -0.532101
v -0.500000 0.991928 0.500000
v 0.500000 0.991928 0.500000
v 0.500000 0.000000 -0.496023
v -0.500000 0.000000 -0.496023
v 0.500000 0.991928 0.442796
v -0.500000 0.991928 0.442796
v 0.500000 0.038237 -0.496023
v 0.500000 0.932620 0.442796
v -0.500000 0.036709 -0.496023
v -0.500000 0.934949 0.442796
vn -1.0000 0.0000 0.0000
vn -0.0016 -0.7086 0.7056
vn 0.0000 -1.0000 0.0000
vn 1.0000 0.0000 0.0000
vn 0.0000 1.0000 0.0000
vn -0.0011 0.7010 -0.7132
vn 0.0000 0.7009 -0.7132
vn -0.0000 -0.7085 0.7057
vn -0.0000 -0.7094 0.7048
vn 0.0000 0.7015 -0.7126
vn -0.0010 0.6863 -0.7273
vn -0.0016 -0.6942 0.7198
usemtl Wood1.003
s off
f 6//1 11//1 1//1
f 6//2 10//2 12//2
f 5//3 1//3 2//3
f 2//4 9//4 5//4
f 7//5 3//5 4//5
f 8//6 9//6 11//6
f 9//4 10//4 5//4
f 4//4 10//4 7//4
f 11//7 2//7 1//7
f 12//1 11//1 6//1
f 12//1 3//1 8//1
f 12//8 4//8 3//8
f 6//9 5//9 10//9
f 5//3 6//3 1//3
f 7//5 8//5 3//5
f 8//10 7//10 9//10
f 9//4 7//4 10//4
f 11//11 9//11 2//11
f 12//1 8//1 11//1
f 12//12 10//12 4//12
