# Blender v2.78 (sub 0) OBJ File: 'LogCabin AssetPack_Assets.blend'
# www.blender.org
mtllib cabinBanister_1.mtl
o Cube.015_Cube.004
v -0.500000 0.030085 -0.440000
v -0.500000 0.030085 -0.520000
v 0.500000 0.030085 -0.440000
v 0.500000 0.030085 -0.520000
v -0.500000 -0.020000 -0.448500
v -0.500000 -0.011500 -0.440000
v -0.500000 -0.011500 -0.520000
v -0.500000 -0.020000 -0.511500
v 0.500000 -0.011500 -0.440000
v 0.500000 -0.020000 -0.448500
v 0.500000 -0.020000 -0.511500
v 0.500000 -0.011500 -0.520000
v -0.505707 0.477700 -0.434335
v -0.505707 0.477700 -0.525665
v 0.505707 0.477700 -0.434335
v 0.505707 0.477700 -0.525665
v -0.505707 0.489841 -0.434335
v -0.496838 0.498710 -0.443204
v -0.496838 0.498710 -0.516796
v -0.505707 0.489841 -0.525665
v 0.496838 0.498710 -0.516796
v 0.505707 0.489841 -0.525665
v 0.496838 0.498710 -0.443204
v 0.505707 0.489841 -0.434335
v -0.000000 0.002900 -0.503451
v -0.000000 0.046049 -0.507103
v 0.023216 0.002900 -0.486583
v 0.026690 0.046049 -0.487712
v 0.014348 0.002900 -0.459291
v 0.016496 0.046049 -0.456335
v -0.014348 0.002900 -0.459291
v -0.016496 0.046049 -0.456335
v -0.023216 0.002900 -0.486583
v -0.026690 0.046049 -0.487712
v 0.022062 0.079750 -0.486208
v -0.000000 0.079750 -0.502237
v 0.013635 0.079750 -0.460272
v -0.013635 0.079750 -0.460272
v -0.022062 0.079750 -0.486208
v 0.017842 0.142938 -0.484837
v -0.000000 0.142938 -0.497799
v 0.011027 0.142938 -0.463863
v -0.011027 0.142938 -0.463863
v -0.017842 0.142938 -0.484837
v 0.016191 0.248251 -0.484300
v -0.000000 0.248251 -0.496064
v 0.010007 0.248251 -0.465266
v -0.010007 0.248251 -0.465266
v -0.016191 0.248251 -0.484300
v 0.019833 0.338821 -0.485484
v -0.000000 0.338821 -0.499893
v 0.012257 0.338821 -0.462169
v -0.012257 0.338821 -0.462169
v -0.019833 0.338821 -0.485484
v 0.027186 0.408328 -0.487873
v -0.000000 0.408328 -0.507625
v 0.016802 0.408328 -0.455914
v -0.016802 0.408328 -0.455914
v -0.027186 0.408328 -0.487873
v 0.032171 0.486260 -0.489493
v -0.000000 0.486260 -0.512867
v 0.019883 0.486260 -0.451673
v -0.019883 0.486260 -0.451673
v -0.032171 0.486260 -0.489493
v 0.150000 0.002900 -0.503451
v 0.150000 0.046049 -0.507103
v 0.173216 0.002900 -0.486583
v 0.176690 0.046049 -0.487712
v 0.164348 0.002900 -0.459291
v 0.166496 0.046049 -0.456335
v 0.135652 0.002900 -0.459291
v 0.133505 0.046049 -0.456335
v 0.126784 0.002900 -0.486583
v 0.123310 0.046049 -0.487712
v 0.172062 0.079750 -0.486208
v 0.150000 0.079750 -0.502237
v 0.163635 0.079750 -0.460272
v 0.136365 0.079750 -0.460272
v 0.127938 0.079750 -0.486208
v 0.167842 0.142938 -0.484837
v 0.150000 0.142938 -0.497799
v 0.161027 0.142938 -0.463863
v 0.138973 0.142938 -0.463863
v 0.132158 0.142938 -0.484837
v 0.166191 0.248251 -0.484300
v 0.150000 0.248251 -0.496064
v 0.160007 0.248251 -0.465266
v 0.139993 0.248251 -0.465266
v 0.133809 0.248251 -0.484300
v 0.169833 0.338821 -0.485484
v 0.150000 0.338821 -0.499893
v 0.162257 0.338821 -0.462169
v 0.137743 0.338821 -0.462169
v 0.130167 0.338821 -0.485484
v 0.177186 0.408328 -0.487873
v 0.150000 0.408328 -0.507625
v 0.166802 0.408328 -0.455914
v 0.133198 0.408328 -0.455914
v 0.122814 0.408328 -0.487873
v 0.182171 0.486260 -0.489493
v 0.150000 0.486260 -0.512867
v 0.169883 0.486260 -0.451673
v 0.130117 0.486260 -0.451673
v 0.117829 0.486260 -0.489493
v 0.300000 0.002900 -0.503451
v 0.300000 0.046049 -0.507103
v 0.323216 0.002900 -0.486583
v 0.326690 0.046049 -0.487712
v 0.314348 0.002900 -0.459291
v 0.316496 0.046049 -0.456335
v 0.285652 0.002900 -0.459291
v 0.283504 0.046049 -0.456335
v 0.276784 0.002900 -0.486583
v 0.273310 0.046049 -0.487712
v 0.322062 0.079750 -0.486208
v 0.300000 0.079750 -0.502237
v 0.313635 0.079750 -0.460272
v 0.286365 0.079750 -0.460272
v 0.277938 0.079750 -0.486208
v 0.317842 0.142938 -0.484837
v 0.300000 0.142938 -0.497799
v 0.311027 0.142938 -0.463863
v 0.288973 0.142938 -0.463863
v 0.282158 0.142938 -0.484837
v 0.316191 0.248251 -0.484300
v 0.300000 0.248251 -0.496064
v 0.310007 0.248251 -0.465266
v 0.289993 0.248251 -0.465266
v 0.283809 0.248251 -0.484300
v 0.319833 0.338821 -0.485484
v 0.300000 0.338821 -0.499893
v 0.312257 0.338821 -0.462169
v 0.287743 0.338821 -0.462169
v 0.280167 0.338821 -0.485484
v 0.327186 0.408328 -0.487873
v 0.300000 0.408328 -0.507625
v 0.316802 0.408328 -0.455914
v 0.283198 0.408328 -0.455914
v 0.272814 0.408328 -0.487873
v 0.332171 0.486260 -0.489493
v 0.300000 0.486260 -0.512867
v 0.319883 0.486260 -0.451673
v 0.280117 0.486260 -0.451673
v 0.267829 0.486260 -0.489493
v -0.300000 0.002900 -0.503451
v -0.300000 0.046049 -0.507103
v -0.276784 0.002900 -0.486583
v -0.273310 0.046049 -0.487712
v -0.285652 0.002900 -0.459291
v -0.283505 0.046049 -0.456335
v -0.314348 0.002900 -0.459291
v -0.316496 0.046049 -0.456335
v -0.323216 0.002900 -0.486583
v -0.326690 0.046049 -0.487712
v -0.277938 0.079750 -0.486208
v -0.300000 0.079750 -0.502237
v -0.286365 0.079750 -0.460272
v -0.313635 0.079750 -0.460272
v -0.322062 0.079750 -0.486208
v -0.282158 0.142938 -0.484837
v -0.300000 0.142938 -0.497799
v -0.288973 0.142938 -0.463863
v -0.311027 0.142938 -0.463863
v -0.317842 0.142938 -0.484837
v -0.283809 0.248251 -0.484300
v -0.300000 0.248251 -0.496064
v -0.289993 0.248251 -0.465266
v -0.310007 0.248251 -0.465266
v -0.316191 0.248251 -0.484300
v -0.280167 0.338821 -0.485484
v -0.300000 0.338821 -0.499893
v -0.287743 0.338821 -0.462169
v -0.312257 0.338821 -0.462169
v -0.319833 0.338821 -0.485484
v -0.272814 0.408328 -0.487873
v -0.300000 0.408328 -0.507625
v -0.283198 0.408328 -0.455914
v -0.316802 0.408328 -0.455914
v -0.327186 0.408328 -0.487873
v -0.267829 0.486260 -0.489493
v -0.300000 0.486260 -0.512867
v -0.280117 0.486260 -0.451673
v -0.319883 0.486260 -0.451673
v -0.332171 0.486260 -0.489493
v -0.150000 0.002900 -0.503451
v -0.150000 0.046049 -0.507103
v -0.126784 0.002900 -0.486583
v -0.123310 0.046049 -0.487712
v -0.135652 0.002900 -0.459291
v -0.133504 0.046049 -0.456335
v -0.164348 0.002900 -0.459291
v -0.166496 0.046049 -0.456335
v -0.173216 0.002900 -0.486583
v -0.176690 0.046049 -0.487712
v -0.127938 0.079750 -0.486208
v -0.150000 0.079750 -0.502237
v -0.136365 0.079750 -0.460272
v -0.163635 0.079750 -0.460272
v -0.172062 0.079750 -0.486208
v -0.132158 0.142938 -0.484837
v -0.150000 0.142938 -0.497799
v -0.138973 0.142938 -0.463863
v -0.161027 0.142938 -0.463863
v -0.167842 0.142938 -0.484837
v -0.133809 0.248251 -0.484300
v -0.150000 0.248251 -0.496064
v -0.139993 0.248251 -0.465266
v -0.160007 0.248251 -0.465266
v -0.166191 0.248251 -0.484300
v -0.130167 0.338821 -0.485484
v -0.150000 0.338821 -0.499893
v -0.137743 0.338821 -0.462169
v -0.162257 0.338821 -0.462169
v -0.169833 0.338821 -0.485484
v -0.122814 0.408328 -0.487873
v -0.150000 0.408328 -0.507625
v -0.133198 0.408328 -0.455914
v -0.166802 0.408328 -0.455914
v -0.177186 0.408328 -0.487873
v -0.117829 0.486260 -0.489493
v -0.150000 0.486260 -0.512867
v -0.130117 0.486260 -0.451673
v -0.169883 0.486260 -0.451673
v -0.182171 0.486260 -0.489493
vn 0.0000 0.0000 1.0000
vn 1.0000 0.0000 0.0000
vn 0.0000 0.0000 -1.0000
vn -1.0000 0.0000 0.0000
vn 0.0000 1.0000 0.0000
vn 0.0000 -0.7071 -0.7071
vn 0.0000 -0.7071 0.7071
vn 0.0000 -1.0000 0.0000
vn -0.7071 0.7071 0.0000
vn 0.0000 0.7071 -0.7071
vn 0.7071 0.7071 0.0000
vn 0.0000 0.7071 0.7071
vn 0.5864 -0.0683 -0.8071
vn 0.9488 -0.0683 0.3083
vn 0.0000 -0.0683 0.9977
vn -0.9446 0.1160 0.3069
vn -0.9488 -0.0683 0.3083
vn -0.5864 -0.0683 -0.8071
vn 0.5868 0.0567 -0.8077
vn 0.9446 0.1160 0.3069
vn -0.5838 0.1160 -0.8036
vn 0.5838 0.1160 -0.8036
vn 0.0000 0.1160 0.9932
vn 0.9510 0.0133 0.3090
vn -0.9495 0.0567 0.3085
vn 0.9495 0.0567 0.3085
vn -0.5868 0.0567 -0.8077
vn 0.0000 0.0567 0.9984
vn 0.0000 -0.0342 0.9994
vn -0.5877 0.0133 -0.8089
vn 0.0000 0.0133 0.9999
vn 0.5877 0.0133 -0.8089
vn -0.9510 0.0133 0.3090
vn -0.9472 -0.0896 0.3078
vn 0.5874 -0.0342 -0.8085
vn -0.9505 -0.0342 0.3088
vn 0.9505 -0.0342 0.3088
vn -0.5874 -0.0342 -0.8085
vn -0.5869 -0.0543 -0.8078
vn 0.9472 -0.0896 0.3078
vn -0.5854 -0.0896 -0.8058
vn 0.0000 -0.0896 0.9960
vn 0.5854 -0.0896 -0.8058
vn 0.0000 -0.0543 0.9985
vn 0.5869 -0.0543 -0.8078
vn -0.9497 -0.0543 0.3086
vn 0.9497 -0.0543 0.3086
usemtl Wood1.002
s off
f 3//1 6//1 9//1
f 4//2 3//2 11//2
f 2//3 12//3 7//3
f 1//4 2//4 5//4
f 2//5 3//5 4//5
f 8//6 12//6 11//6
f 10//7 6//7 5//7
f 11//8 5//8 8//8
f 15//8 14//8 16//8
f 15//1 17//1 13//1
f 19//5 23//5 21//5
f 14//3 22//3 16//3
f 16//2 24//2 15//2
f 19//9 17//9 18//9
f 21//10 20//10 19//10
f 23//11 22//11 21//11
f 23//12 17//12 24//12
f 13//4 20//4 14//4
f 3//1 1//1 6//1
f 10//2 11//2 3//2
f 12//2 4//2 11//2
f 3//2 9//2 10//2
f 2//3 4//3 12//3
f 8//4 5//4 2//4
f 6//4 1//4 5//4
f 2//4 7//4 8//4
f 2//5 1//5 3//5
f 8//6 7//6 12//6
f 10//7 9//7 6//7
f 11//8 10//8 5//8
f 15//8 13//8 14//8
f 15//1 24//1 17//1
f 19//5 18//5 23//5
f 14//3 20//3 22//3
f 16//2 22//2 24//2
f 19//9 20//9 17//9
f 21//10 22//10 20//10
f 23//11 24//11 22//11
f 23//12 18//12 17//12
f 13//4 17//4 20//4
usemtl Wood1
f 26//13 27//13 25//13
f 27//14 30//14 29//14
f 30//15 31//15 29//15
f 32//16 39//16 34//16
f 32//17 33//17 31//17
f 34//18 25//18 33//18
f 27//8 31//8 25//8
f 36//19 40//19 35//19
f 30//20 35//20 37//20
f 26//21 39//21 36//21
f 26//22 35//22 28//22
f 32//23 37//23 38//23
f 40//24 47//24 42//24
f 38//25 44//25 39//25
f 37//26 40//26 42//26
f 39//27 41//27 36//27
f 38//28 42//28 43//28
f 47//29 53//29 48//29
f 44//30 46//30 41//30
f 42//31 48//31 43//31
f 41//32 45//32 40//32
f 43//33 49//33 44//33
f 54//34 58//34 59//34
f 46//35 50//35 45//35
f 49//36 53//36 54//36
f 45//37 52//37 47//37
f 49//38 51//38 46//38
f 56//39 64//39 61//39
f 50//40 57//40 52//40
f 54//41 56//41 51//41
f 52//42 58//42 53//42
f 51//43 55//43 50//43
f 61//5 63//5 60//5
f 57//44 63//44 58//44
f 56//45 60//45 55//45
f 58//46 64//46 59//46
f 57//47 60//47 62//47
f 65//13 68//13 67//13
f 67//14 70//14 69//14
f 70//15 71//15 69//15
f 72//16 79//16 74//16
f 72//17 73//17 71//17
f 73//18 66//18 65//18
f 67//8 71//8 65//8
f 76//19 80//19 75//19
f 68//20 77//20 70//20
f 66//21 79//21 76//21
f 66//22 75//22 68//22
f 70//23 78//23 72//23
f 80//24 87//24 82//24
f 78//25 84//25 79//25
f 75//26 82//26 77//26
f 79//27 81//27 76//27
f 78//28 82//28 83//28
f 87//29 93//29 88//29
f 84//30 86//30 81//30
f 82//31 88//31 83//31
f 80//32 86//32 85//32
f 83//33 89//33 84//33
f 94//34 98//34 99//34
f 86//35 90//35 85//35
f 88//36 94//36 89//36
f 87//37 90//37 92//37
f 89//38 91//38 86//38
f 96//39 104//39 101//39
f 90//40 97//40 92//40
f 94//41 96//41 91//41
f 92//42 98//42 93//42
f 91//43 95//43 90//43
f 101//5 103//5 100//5
f 97//44 103//44 98//44
f 96//45 100//45 95//45
f 98//46 104//46 99//46
f 95//47 102//47 97//47
f 105//13 108//13 107//13
f 108//14 109//14 107//14
f 110//15 111//15 109//15
f 114//16 118//16 119//16
f 112//17 113//17 111//17
f 114//18 105//18 113//18
f 107//8 111//8 105//8
f 115//19 121//19 120//19
f 110//20 115//20 117//20
f 106//21 119//21 116//21
f 106//22 115//22 108//22
f 110//23 118//23 112//23
f 120//24 127//24 122//24
f 118//25 124//25 119//25
f 115//26 122//26 117//26
f 119//27 121//27 116//27
f 118//28 122//28 123//28
f 127//29 133//29 128//29
f 124//30 126//30 121//30
f 122//31 128//31 123//31
f 121//32 125//32 120//32
f 123//33 129//33 124//33
f 134//34 138//34 139//34
f 126//35 130//35 125//35
f 128//36 134//36 129//36
f 125//37 132//37 127//37
f 129//38 131//38 126//38
f 136//39 144//39 141//39
f 130//40 137//40 132//40
f 134//41 136//41 131//41
f 132//42 138//42 133//42
f 130//43 136//43 135//43
f 141//5 143//5 140//5
f 137//44 143//44 138//44
f 136//45 140//45 135//45
f 138//46 144//46 139//46
f 137//47 140//47 142//47
f 145//13 148//13 147//13
f 148//14 149//14 147//14
f 150//15 151//15 149//15
f 154//16 158//16 159//16
f 152//17 153//17 151//17
f 153//18 146//18 145//18
f 147//8 151//8 145//8
f 156//19 160//19 155//19
f 148//20 157//20 150//20
f 146//21 159//21 156//21
f 146//22 155//22 148//22
f 150//23 158//23 152//23
f 160//24 167//24 162//24
f 158//25 164//25 159//25
f 155//26 162//26 157//26
f 159//27 161//27 156//27
f 158//28 162//28 163//28
f 167//29 173//29 168//29
f 161//30 169//30 166//30
f 162//31 168//31 163//31
f 161//32 165//32 160//32
f 163//33 169//33 164//33
f 174//34 178//34 179//34
f 166//35 170//35 165//35
f 168//36 174//36 169//36
f 165//37 172//37 167//37
f 169//38 171//38 166//38
f 179//39 181//39 176//39
f 170//40 177//40 172//40
f 171//41 179//41 176//41
f 172//42 178//42 173//42
f 171//43 175//43 170//43
f 181//5 183//5 180//5
f 177//44 183//44 178//44
f 176//45 180//45 175//45
f 178//46 184//46 179//46
f 177//47 180//47 182//47
f 185//13 188//13 187//13
f 187//14 190//14 189//14
f 190//15 191//15 189//15
f 194//16 198//16 199//16
f 192//17 193//17 191//17
f 194//18 185//18 193//18
f 187//8 191//8 185//8
f 196//19 200//19 195//19
f 188//20 197//20 190//20
f 186//21 199//21 196//21
f 186//22 195//22 188//22
f 190//23 198//23 192//23
f 200//24 207//24 202//24
f 198//25 204//25 199//25
f 195//26 202//26 197//26
f 199//27 201//27 196//27
f 198//28 202//28 203//28
f 207//29 213//29 208//29
f 204//30 206//30 201//30
f 202//31 208//31 203//31
f 201//32 205//32 200//32
f 203//33 209//33 204//33
f 214//34 218//34 219//34
f 206//35 210//35 205//35
f 208//36 214//36 209//36
f 207//37 210//37 212//37
f 209//38 211//38 206//38
f 216//39 224//39 221//39
f 210//40 217//40 212//40
f 214//41 216//41 211//41
f 212//42 218//42 213//42
f 210//43 216//43 215//43
f 221//5 223//5 220//5
f 217//44 223//44 218//44
f 216//45 220//45 215//45
f 218//46 224//46 219//46
f 215//47 222//47 217//47
f 26//13 28//13 27//13
f 27//14 28//14 30//14
f 30//15 32//15 31//15
f 32//16 38//16 39//16
f 32//17 34//17 33//17
f 34//18 26//18 25//18
f 33//8 25//8 31//8
f 27//8 29//8 31//8
f 36//19 41//19 40//19
f 30//20 28//20 35//20
f 26//21 34//21 39//21
f 26//22 36//22 35//22
f 32//23 30//23 37//23
f 40//24 45//24 47//24
f 38//25 43//25 44//25
f 37//26 35//26 40//26
f 39//27 44//27 41//27
f 38//28 37//28 42//28
f 47//29 52//29 53//29
f 44//30 49//30 46//30
f 42//31 47//31 48//31
f 41//32 46//32 45//32
f 43//33 48//33 49//33
f 54//34 53//34 58//34
f 46//35 51//35 50//35
f 49//36 48//36 53//36
f 45//37 50//37 52//37
f 49//38 54//38 51//38
f 56//39 59//39 64//39
f 50//40 55//40 57//40
f 54//41 59//41 56//41
f 52//42 57//42 58//42
f 51//43 56//43 55//43
f 62//5 60//5 63//5
f 61//5 64//5 63//5
f 57//44 62//44 63//44
f 56//45 61//45 60//45
f 58//46 63//46 64//46
f 57//47 55//47 60//47
f 65//13 66//13 68//13
f 67//14 68//14 70//14
f 70//15 72//15 71//15
f 72//16 78//16 79//16
f 72//17 74//17 73//17
f 73//18 74//18 66//18
f 73//8 65//8 71//8
f 67//8 69//8 71//8
f 76//19 81//19 80//19
f 68//20 75//20 77//20
f 66//21 74//21 79//21
f 66//22 76//22 75//22
f 70//23 77//23 78//23
f 80//24 85//24 87//24
f 78//25 83//25 84//25
f 75//26 80//26 82//26
f 79//27 84//27 81//27
f 78//28 77//28 82//28
f 87//29 92//29 93//29
f 84//30 89//30 86//30
f 82//31 87//31 88//31
f 80//32 81//32 86//32
f 83//33 88//33 89//33
f 94//34 93//34 98//34
f 86//35 91//35 90//35
f 88//36 93//36 94//36
f 87//37 85//37 90//37
f 89//38 94//38 91//38
f 96//39 99//39 104//39
f 90//40 95//40 97//40
f 94//41 99//41 96//41
f 92//42 97//42 98//42
f 91//43 96//43 95//43
f 102//5 100//5 103//5
f 101//5 104//5 103//5
f 97//44 102//44 103//44
f 96//45 101//45 100//45
f 98//46 103//46 104//46
f 95//47 100//47 102//47
f 105//13 106//13 108//13
f 108//14 110//14 109//14
f 110//15 112//15 111//15
f 114//16 112//16 118//16
f 112//17 114//17 113//17
f 114//18 106//18 105//18
f 113//8 105//8 111//8
f 107//8 109//8 111//8
f 115//19 116//19 121//19
f 110//20 108//20 115//20
f 106//21 114//21 119//21
f 106//22 116//22 115//22
f 110//23 117//23 118//23
f 120//24 125//24 127//24
f 118//25 123//25 124//25
f 115//26 120//26 122//26
f 119//27 124//27 121//27
f 118//28 117//28 122//28
f 127//29 132//29 133//29
f 124//30 129//30 126//30
f 122//31 127//31 128//31
f 121//32 126//32 125//32
f 123//33 128//33 129//33
f 134//34 133//34 138//34
f 126//35 131//35 130//35
f 128//36 133//36 134//36
f 125//37 130//37 132//37
f 129//38 134//38 131//38
f 136//39 139//39 144//39
f 130//40 135//40 137//40
f 134//41 139//41 136//41
f 132//42 137//42 138//42
f 130//43 131//43 136//43
f 142//5 140//5 143//5
f 141//5 144//5 143//5
f 137//44 142//44 143//44
f 136//45 141//45 140//45
f 138//46 143//46 144//46
f 137//47 135//47 140//47
f 145//13 146//13 148//13
f 148//14 150//14 149//14
f 150//15 152//15 151//15
f 154//16 152//16 158//16
f 152//17 154//17 153//17
f 153//18 154//18 146//18
f 153//8 145//8 151//8
f 147//8 149//8 151//8
f 156//19 161//19 160//19
f 148//20 155//20 157//20
f 146//21 154//21 159//21
f 146//22 156//22 155//22
f 150//23 157//23 158//23
f 160//24 165//24 167//24
f 158//25 163//25 164//25
f 155//26 160//26 162//26
f 159//27 164//27 161//27
f 158//28 157//28 162//28
f 167//29 172//29 173//29
f 161//30 164//30 169//30
f 162//31 167//31 168//31
f 161//32 166//32 165//32
f 163//33 168//33 169//33
f 174//34 173//34 178//34
f 166//35 171//35 170//35
f 168//36 173//36 174//36
f 165//37 170//37 172//37
f 169//38 174//38 171//38
f 179//39 184//39 181//39
f 170//40 175//40 177//40
f 171//41 174//41 179//41
f 172//42 177//42 178//42
f 171//43 176//43 175//43
f 182//5 180//5 183//5
f 181//5 184//5 183//5
f 177//44 182//44 183//44
f 176//45 181//45 180//45
f 178//46 183//46 184//46
f 177//47 175//47 180//47
f 185//13 186//13 188//13
f 187//14 188//14 190//14
f 190//15 192//15 191//15
f 194//16 192//16 198//16
f 192//17 194//17 193//17
f 194//18 186//18 185//18
f 193//8 185//8 191//8
f 187//8 189//8 191//8
f 196//19 201//19 200//19
f 188//20 195//20 197//20
f 186//21 194//21 199//21
f 186//22 196//22 195//22
f 190//23 197//23 198//23
f 200//24 205//24 207//24
f 198//25 203//25 204//25
f 195//26 200//26 202//26
f 199//27 204//27 201//27
f 198//28 197//28 202//28
f 207//29 212//29 213//29
f 204//30 209//30 206//30
f 202//31 207//31 208//31
f 201//32 206//32 205//32
f 203//33 208//33 209//33
f 214//34 213//34 218//34
f 206//35 211//35 210//35
f 208//36 213//36 214//36
f 207//37 205//37 210//37
f 209//38 214//38 211//38
f 216//39 219//39 224//39
f 210//40 215//40 217//40
f 214//41 219//41 216//41
f 212//42 217//42 218//42
f 210//43 211//43 216//43
f 222//5 220//5 223//5
f 221//5 224//5 223//5
f 217//44 222//44 223//44
f 216//45 221//45 220//45
f 218//46 223//46 224//46
f 215//47 220//47 222//47
